%TF.GenerationSoftware,KiCad,Pcbnew,7.0.6*%
%TF.CreationDate,2023-09-01T18:36:08-07:00*%
%TF.ProjectId,Guitar_waveform_proj,47756974-6172-45f7-9761-7665666f726d,rev?*%
%TF.SameCoordinates,Original*%
%TF.FileFunction,Legend,Top*%
%TF.FilePolarity,Positive*%
%FSLAX46Y46*%
G04 Gerber Fmt 4.6, Leading zero omitted, Abs format (unit mm)*
G04 Created by KiCad (PCBNEW 7.0.6) date 2023-09-01 18:36:08*
%MOMM*%
%LPD*%
G01*
G04 APERTURE LIST*
%ADD10C,0.125000*%
%ADD11C,0.100000*%
G04 APERTURE END LIST*
D10*
X153871283Y-92934809D02*
X153871283Y-92434809D01*
X153871283Y-92434809D02*
X153990331Y-92434809D01*
X153990331Y-92434809D02*
X154061759Y-92458619D01*
X154061759Y-92458619D02*
X154109378Y-92506238D01*
X154109378Y-92506238D02*
X154133188Y-92553857D01*
X154133188Y-92553857D02*
X154156997Y-92649095D01*
X154156997Y-92649095D02*
X154156997Y-92720523D01*
X154156997Y-92720523D02*
X154133188Y-92815761D01*
X154133188Y-92815761D02*
X154109378Y-92863380D01*
X154109378Y-92863380D02*
X154061759Y-92911000D01*
X154061759Y-92911000D02*
X153990331Y-92934809D01*
X153990331Y-92934809D02*
X153871283Y-92934809D01*
X154466521Y-92434809D02*
X154561759Y-92434809D01*
X154561759Y-92434809D02*
X154609378Y-92458619D01*
X154609378Y-92458619D02*
X154656997Y-92506238D01*
X154656997Y-92506238D02*
X154680807Y-92601476D01*
X154680807Y-92601476D02*
X154680807Y-92768142D01*
X154680807Y-92768142D02*
X154656997Y-92863380D01*
X154656997Y-92863380D02*
X154609378Y-92911000D01*
X154609378Y-92911000D02*
X154561759Y-92934809D01*
X154561759Y-92934809D02*
X154466521Y-92934809D01*
X154466521Y-92934809D02*
X154418902Y-92911000D01*
X154418902Y-92911000D02*
X154371283Y-92863380D01*
X154371283Y-92863380D02*
X154347474Y-92768142D01*
X154347474Y-92768142D02*
X154347474Y-92601476D01*
X154347474Y-92601476D02*
X154371283Y-92506238D01*
X154371283Y-92506238D02*
X154418902Y-92458619D01*
X154418902Y-92458619D02*
X154466521Y-92434809D01*
X154895093Y-92434809D02*
X154895093Y-92839571D01*
X154895093Y-92839571D02*
X154918903Y-92887190D01*
X154918903Y-92887190D02*
X154942712Y-92911000D01*
X154942712Y-92911000D02*
X154990331Y-92934809D01*
X154990331Y-92934809D02*
X155085569Y-92934809D01*
X155085569Y-92934809D02*
X155133188Y-92911000D01*
X155133188Y-92911000D02*
X155156998Y-92887190D01*
X155156998Y-92887190D02*
X155180807Y-92839571D01*
X155180807Y-92839571D02*
X155180807Y-92434809D01*
X155347475Y-92434809D02*
X155633189Y-92434809D01*
X155490332Y-92934809D02*
X155490332Y-92434809D01*
X154037950Y-91402904D02*
X154109378Y-91426714D01*
X154109378Y-91426714D02*
X154133188Y-91450523D01*
X154133188Y-91450523D02*
X154156997Y-91498142D01*
X154156997Y-91498142D02*
X154156997Y-91569571D01*
X154156997Y-91569571D02*
X154133188Y-91617190D01*
X154133188Y-91617190D02*
X154109378Y-91641000D01*
X154109378Y-91641000D02*
X154061759Y-91664809D01*
X154061759Y-91664809D02*
X153871283Y-91664809D01*
X153871283Y-91664809D02*
X153871283Y-91164809D01*
X153871283Y-91164809D02*
X154037950Y-91164809D01*
X154037950Y-91164809D02*
X154085569Y-91188619D01*
X154085569Y-91188619D02*
X154109378Y-91212428D01*
X154109378Y-91212428D02*
X154133188Y-91260047D01*
X154133188Y-91260047D02*
X154133188Y-91307666D01*
X154133188Y-91307666D02*
X154109378Y-91355285D01*
X154109378Y-91355285D02*
X154085569Y-91379095D01*
X154085569Y-91379095D02*
X154037950Y-91402904D01*
X154037950Y-91402904D02*
X153871283Y-91402904D01*
X154466521Y-91426714D02*
X154466521Y-91664809D01*
X154299855Y-91164809D02*
X154466521Y-91426714D01*
X154466521Y-91426714D02*
X154633188Y-91164809D01*
X154799854Y-91664809D02*
X154799854Y-91164809D01*
X154799854Y-91164809D02*
X154990330Y-91164809D01*
X154990330Y-91164809D02*
X155037949Y-91188619D01*
X155037949Y-91188619D02*
X155061759Y-91212428D01*
X155061759Y-91212428D02*
X155085568Y-91260047D01*
X155085568Y-91260047D02*
X155085568Y-91331476D01*
X155085568Y-91331476D02*
X155061759Y-91379095D01*
X155061759Y-91379095D02*
X155037949Y-91402904D01*
X155037949Y-91402904D02*
X154990330Y-91426714D01*
X154990330Y-91426714D02*
X154799854Y-91426714D01*
X155276045Y-91521952D02*
X155514140Y-91521952D01*
X155228426Y-91664809D02*
X155395092Y-91164809D01*
X155395092Y-91164809D02*
X155561759Y-91664809D01*
X155704616Y-91641000D02*
X155776044Y-91664809D01*
X155776044Y-91664809D02*
X155895092Y-91664809D01*
X155895092Y-91664809D02*
X155942711Y-91641000D01*
X155942711Y-91641000D02*
X155966520Y-91617190D01*
X155966520Y-91617190D02*
X155990330Y-91569571D01*
X155990330Y-91569571D02*
X155990330Y-91521952D01*
X155990330Y-91521952D02*
X155966520Y-91474333D01*
X155966520Y-91474333D02*
X155942711Y-91450523D01*
X155942711Y-91450523D02*
X155895092Y-91426714D01*
X155895092Y-91426714D02*
X155799854Y-91402904D01*
X155799854Y-91402904D02*
X155752235Y-91379095D01*
X155752235Y-91379095D02*
X155728425Y-91355285D01*
X155728425Y-91355285D02*
X155704616Y-91307666D01*
X155704616Y-91307666D02*
X155704616Y-91260047D01*
X155704616Y-91260047D02*
X155728425Y-91212428D01*
X155728425Y-91212428D02*
X155752235Y-91188619D01*
X155752235Y-91188619D02*
X155799854Y-91164809D01*
X155799854Y-91164809D02*
X155918901Y-91164809D01*
X155918901Y-91164809D02*
X155990330Y-91188619D01*
X154037950Y-90132904D02*
X153871283Y-90132904D01*
X153871283Y-90394809D02*
X153871283Y-89894809D01*
X153871283Y-89894809D02*
X154109378Y-89894809D01*
X154299854Y-90394809D02*
X154299854Y-89894809D01*
X154299854Y-89894809D02*
X154466521Y-90251952D01*
X154466521Y-90251952D02*
X154633187Y-89894809D01*
X154633187Y-89894809D02*
X154633187Y-90394809D01*
X154799855Y-89894809D02*
X155085569Y-89894809D01*
X154942712Y-90394809D02*
X154942712Y-89894809D01*
X153799855Y-88624809D02*
X153966521Y-89124809D01*
X153966521Y-89124809D02*
X154133188Y-88624809D01*
X154585568Y-89077190D02*
X154561759Y-89101000D01*
X154561759Y-89101000D02*
X154490330Y-89124809D01*
X154490330Y-89124809D02*
X154442711Y-89124809D01*
X154442711Y-89124809D02*
X154371283Y-89101000D01*
X154371283Y-89101000D02*
X154323664Y-89053380D01*
X154323664Y-89053380D02*
X154299854Y-89005761D01*
X154299854Y-89005761D02*
X154276045Y-88910523D01*
X154276045Y-88910523D02*
X154276045Y-88839095D01*
X154276045Y-88839095D02*
X154299854Y-88743857D01*
X154299854Y-88743857D02*
X154323664Y-88696238D01*
X154323664Y-88696238D02*
X154371283Y-88648619D01*
X154371283Y-88648619D02*
X154442711Y-88624809D01*
X154442711Y-88624809D02*
X154490330Y-88624809D01*
X154490330Y-88624809D02*
X154561759Y-88648619D01*
X154561759Y-88648619D02*
X154585568Y-88672428D01*
X155085568Y-89077190D02*
X155061759Y-89101000D01*
X155061759Y-89101000D02*
X154990330Y-89124809D01*
X154990330Y-89124809D02*
X154942711Y-89124809D01*
X154942711Y-89124809D02*
X154871283Y-89101000D01*
X154871283Y-89101000D02*
X154823664Y-89053380D01*
X154823664Y-89053380D02*
X154799854Y-89005761D01*
X154799854Y-89005761D02*
X154776045Y-88910523D01*
X154776045Y-88910523D02*
X154776045Y-88839095D01*
X154776045Y-88839095D02*
X154799854Y-88743857D01*
X154799854Y-88743857D02*
X154823664Y-88696238D01*
X154823664Y-88696238D02*
X154871283Y-88648619D01*
X154871283Y-88648619D02*
X154942711Y-88624809D01*
X154942711Y-88624809D02*
X154990330Y-88624809D01*
X154990330Y-88624809D02*
X155061759Y-88648619D01*
X155061759Y-88648619D02*
X155085568Y-88672428D01*
X153847474Y-87711952D02*
X154085569Y-87711952D01*
X153799855Y-87854809D02*
X153966521Y-87354809D01*
X153966521Y-87354809D02*
X154133188Y-87854809D01*
X154561759Y-87378619D02*
X154514140Y-87354809D01*
X154514140Y-87354809D02*
X154442711Y-87354809D01*
X154442711Y-87354809D02*
X154371283Y-87378619D01*
X154371283Y-87378619D02*
X154323664Y-87426238D01*
X154323664Y-87426238D02*
X154299854Y-87473857D01*
X154299854Y-87473857D02*
X154276045Y-87569095D01*
X154276045Y-87569095D02*
X154276045Y-87640523D01*
X154276045Y-87640523D02*
X154299854Y-87735761D01*
X154299854Y-87735761D02*
X154323664Y-87783380D01*
X154323664Y-87783380D02*
X154371283Y-87831000D01*
X154371283Y-87831000D02*
X154442711Y-87854809D01*
X154442711Y-87854809D02*
X154490330Y-87854809D01*
X154490330Y-87854809D02*
X154561759Y-87831000D01*
X154561759Y-87831000D02*
X154585568Y-87807190D01*
X154585568Y-87807190D02*
X154585568Y-87640523D01*
X154585568Y-87640523D02*
X154490330Y-87640523D01*
X154799854Y-87854809D02*
X154799854Y-87354809D01*
X154799854Y-87354809D02*
X155085568Y-87854809D01*
X155085568Y-87854809D02*
X155085568Y-87354809D01*
X155323664Y-87854809D02*
X155323664Y-87354809D01*
X155323664Y-87354809D02*
X155442712Y-87354809D01*
X155442712Y-87354809D02*
X155514140Y-87378619D01*
X155514140Y-87378619D02*
X155561759Y-87426238D01*
X155561759Y-87426238D02*
X155585569Y-87473857D01*
X155585569Y-87473857D02*
X155609378Y-87569095D01*
X155609378Y-87569095D02*
X155609378Y-87640523D01*
X155609378Y-87640523D02*
X155585569Y-87735761D01*
X155585569Y-87735761D02*
X155561759Y-87783380D01*
X155561759Y-87783380D02*
X155514140Y-87831000D01*
X155514140Y-87831000D02*
X155442712Y-87854809D01*
X155442712Y-87854809D02*
X155323664Y-87854809D01*
X153799855Y-86084809D02*
X153966521Y-86584809D01*
X153966521Y-86584809D02*
X154133188Y-86084809D01*
X154585568Y-86584809D02*
X154418902Y-86346714D01*
X154299854Y-86584809D02*
X154299854Y-86084809D01*
X154299854Y-86084809D02*
X154490330Y-86084809D01*
X154490330Y-86084809D02*
X154537949Y-86108619D01*
X154537949Y-86108619D02*
X154561759Y-86132428D01*
X154561759Y-86132428D02*
X154585568Y-86180047D01*
X154585568Y-86180047D02*
X154585568Y-86251476D01*
X154585568Y-86251476D02*
X154561759Y-86299095D01*
X154561759Y-86299095D02*
X154537949Y-86322904D01*
X154537949Y-86322904D02*
X154490330Y-86346714D01*
X154490330Y-86346714D02*
X154299854Y-86346714D01*
X154799854Y-86322904D02*
X154966521Y-86322904D01*
X155037949Y-86584809D02*
X154799854Y-86584809D01*
X154799854Y-86584809D02*
X154799854Y-86084809D01*
X154799854Y-86084809D02*
X155037949Y-86084809D01*
X155418902Y-86322904D02*
X155252235Y-86322904D01*
X155252235Y-86584809D02*
X155252235Y-86084809D01*
X155252235Y-86084809D02*
X155490330Y-86084809D01*
X155656997Y-86132428D02*
X155680806Y-86108619D01*
X155680806Y-86108619D02*
X155728425Y-86084809D01*
X155728425Y-86084809D02*
X155847473Y-86084809D01*
X155847473Y-86084809D02*
X155895092Y-86108619D01*
X155895092Y-86108619D02*
X155918901Y-86132428D01*
X155918901Y-86132428D02*
X155942711Y-86180047D01*
X155942711Y-86180047D02*
X155942711Y-86227666D01*
X155942711Y-86227666D02*
X155918901Y-86299095D01*
X155918901Y-86299095D02*
X155633187Y-86584809D01*
X155633187Y-86584809D02*
X155942711Y-86584809D01*
X153799855Y-84814809D02*
X153966521Y-85314809D01*
X153966521Y-85314809D02*
X154133188Y-84814809D01*
X154585568Y-85314809D02*
X154418902Y-85076714D01*
X154299854Y-85314809D02*
X154299854Y-84814809D01*
X154299854Y-84814809D02*
X154490330Y-84814809D01*
X154490330Y-84814809D02*
X154537949Y-84838619D01*
X154537949Y-84838619D02*
X154561759Y-84862428D01*
X154561759Y-84862428D02*
X154585568Y-84910047D01*
X154585568Y-84910047D02*
X154585568Y-84981476D01*
X154585568Y-84981476D02*
X154561759Y-85029095D01*
X154561759Y-85029095D02*
X154537949Y-85052904D01*
X154537949Y-85052904D02*
X154490330Y-85076714D01*
X154490330Y-85076714D02*
X154299854Y-85076714D01*
X154799854Y-85052904D02*
X154966521Y-85052904D01*
X155037949Y-85314809D02*
X154799854Y-85314809D01*
X154799854Y-85314809D02*
X154799854Y-84814809D01*
X154799854Y-84814809D02*
X155037949Y-84814809D01*
X155418902Y-85052904D02*
X155252235Y-85052904D01*
X155252235Y-85314809D02*
X155252235Y-84814809D01*
X155252235Y-84814809D02*
X155490330Y-84814809D01*
X155942711Y-85314809D02*
X155656997Y-85314809D01*
X155799854Y-85314809D02*
X155799854Y-84814809D01*
X155799854Y-84814809D02*
X155752235Y-84886238D01*
X155752235Y-84886238D02*
X155704616Y-84933857D01*
X155704616Y-84933857D02*
X155656997Y-84957666D01*
X143949378Y-92934809D02*
X143711283Y-92934809D01*
X143711283Y-92934809D02*
X143711283Y-92434809D01*
X144401759Y-92934809D02*
X144235093Y-92696714D01*
X144116045Y-92934809D02*
X144116045Y-92434809D01*
X144116045Y-92434809D02*
X144306521Y-92434809D01*
X144306521Y-92434809D02*
X144354140Y-92458619D01*
X144354140Y-92458619D02*
X144377950Y-92482428D01*
X144377950Y-92482428D02*
X144401759Y-92530047D01*
X144401759Y-92530047D02*
X144401759Y-92601476D01*
X144401759Y-92601476D02*
X144377950Y-92649095D01*
X144377950Y-92649095D02*
X144354140Y-92672904D01*
X144354140Y-92672904D02*
X144306521Y-92696714D01*
X144306521Y-92696714D02*
X144116045Y-92696714D01*
X144901759Y-92887190D02*
X144877950Y-92911000D01*
X144877950Y-92911000D02*
X144806521Y-92934809D01*
X144806521Y-92934809D02*
X144758902Y-92934809D01*
X144758902Y-92934809D02*
X144687474Y-92911000D01*
X144687474Y-92911000D02*
X144639855Y-92863380D01*
X144639855Y-92863380D02*
X144616045Y-92815761D01*
X144616045Y-92815761D02*
X144592236Y-92720523D01*
X144592236Y-92720523D02*
X144592236Y-92649095D01*
X144592236Y-92649095D02*
X144616045Y-92553857D01*
X144616045Y-92553857D02*
X144639855Y-92506238D01*
X144639855Y-92506238D02*
X144687474Y-92458619D01*
X144687474Y-92458619D02*
X144758902Y-92434809D01*
X144758902Y-92434809D02*
X144806521Y-92434809D01*
X144806521Y-92434809D02*
X144877950Y-92458619D01*
X144877950Y-92458619D02*
X144901759Y-92482428D01*
X145116045Y-92934809D02*
X145116045Y-92434809D01*
X145401759Y-92934809D02*
X145187474Y-92649095D01*
X145401759Y-92434809D02*
X145116045Y-92720523D01*
X143877950Y-91402904D02*
X143949378Y-91426714D01*
X143949378Y-91426714D02*
X143973188Y-91450523D01*
X143973188Y-91450523D02*
X143996997Y-91498142D01*
X143996997Y-91498142D02*
X143996997Y-91569571D01*
X143996997Y-91569571D02*
X143973188Y-91617190D01*
X143973188Y-91617190D02*
X143949378Y-91641000D01*
X143949378Y-91641000D02*
X143901759Y-91664809D01*
X143901759Y-91664809D02*
X143711283Y-91664809D01*
X143711283Y-91664809D02*
X143711283Y-91164809D01*
X143711283Y-91164809D02*
X143877950Y-91164809D01*
X143877950Y-91164809D02*
X143925569Y-91188619D01*
X143925569Y-91188619D02*
X143949378Y-91212428D01*
X143949378Y-91212428D02*
X143973188Y-91260047D01*
X143973188Y-91260047D02*
X143973188Y-91307666D01*
X143973188Y-91307666D02*
X143949378Y-91355285D01*
X143949378Y-91355285D02*
X143925569Y-91379095D01*
X143925569Y-91379095D02*
X143877950Y-91402904D01*
X143877950Y-91402904D02*
X143711283Y-91402904D01*
X144496997Y-91617190D02*
X144473188Y-91641000D01*
X144473188Y-91641000D02*
X144401759Y-91664809D01*
X144401759Y-91664809D02*
X144354140Y-91664809D01*
X144354140Y-91664809D02*
X144282712Y-91641000D01*
X144282712Y-91641000D02*
X144235093Y-91593380D01*
X144235093Y-91593380D02*
X144211283Y-91545761D01*
X144211283Y-91545761D02*
X144187474Y-91450523D01*
X144187474Y-91450523D02*
X144187474Y-91379095D01*
X144187474Y-91379095D02*
X144211283Y-91283857D01*
X144211283Y-91283857D02*
X144235093Y-91236238D01*
X144235093Y-91236238D02*
X144282712Y-91188619D01*
X144282712Y-91188619D02*
X144354140Y-91164809D01*
X144354140Y-91164809D02*
X144401759Y-91164809D01*
X144401759Y-91164809D02*
X144473188Y-91188619D01*
X144473188Y-91188619D02*
X144496997Y-91212428D01*
X144711283Y-91664809D02*
X144711283Y-91164809D01*
X144996997Y-91664809D02*
X144782712Y-91379095D01*
X144996997Y-91164809D02*
X144711283Y-91450523D01*
X143710853Y-90364497D02*
X143782281Y-90388306D01*
X143782281Y-90388306D02*
X143901329Y-90388306D01*
X143901329Y-90388306D02*
X143948948Y-90364497D01*
X143948948Y-90364497D02*
X143972757Y-90340687D01*
X143972757Y-90340687D02*
X143996567Y-90293068D01*
X143996567Y-90293068D02*
X143996567Y-90245449D01*
X143996567Y-90245449D02*
X143972757Y-90197830D01*
X143972757Y-90197830D02*
X143948948Y-90174020D01*
X143948948Y-90174020D02*
X143901329Y-90150211D01*
X143901329Y-90150211D02*
X143806091Y-90126401D01*
X143806091Y-90126401D02*
X143758472Y-90102592D01*
X143758472Y-90102592D02*
X143734662Y-90078782D01*
X143734662Y-90078782D02*
X143710853Y-90031163D01*
X143710853Y-90031163D02*
X143710853Y-89983544D01*
X143710853Y-89983544D02*
X143734662Y-89935925D01*
X143734662Y-89935925D02*
X143758472Y-89912116D01*
X143758472Y-89912116D02*
X143806091Y-89888306D01*
X143806091Y-89888306D02*
X143925138Y-89888306D01*
X143925138Y-89888306D02*
X143996567Y-89912116D01*
X144496566Y-90340687D02*
X144472757Y-90364497D01*
X144472757Y-90364497D02*
X144401328Y-90388306D01*
X144401328Y-90388306D02*
X144353709Y-90388306D01*
X144353709Y-90388306D02*
X144282281Y-90364497D01*
X144282281Y-90364497D02*
X144234662Y-90316877D01*
X144234662Y-90316877D02*
X144210852Y-90269258D01*
X144210852Y-90269258D02*
X144187043Y-90174020D01*
X144187043Y-90174020D02*
X144187043Y-90102592D01*
X144187043Y-90102592D02*
X144210852Y-90007354D01*
X144210852Y-90007354D02*
X144234662Y-89959735D01*
X144234662Y-89959735D02*
X144282281Y-89912116D01*
X144282281Y-89912116D02*
X144353709Y-89888306D01*
X144353709Y-89888306D02*
X144401328Y-89888306D01*
X144401328Y-89888306D02*
X144472757Y-89912116D01*
X144472757Y-89912116D02*
X144496566Y-89935925D01*
X144710852Y-90388306D02*
X144710852Y-89888306D01*
X144996566Y-90388306D02*
X144782281Y-90102592D01*
X144996566Y-89888306D02*
X144710852Y-90174020D01*
X145210852Y-90388306D02*
X145210852Y-89888306D01*
X143639855Y-88624809D02*
X143806521Y-89124809D01*
X143806521Y-89124809D02*
X143973188Y-88624809D01*
X144139854Y-89124809D02*
X144139854Y-88624809D01*
X144139854Y-88624809D02*
X144258902Y-88624809D01*
X144258902Y-88624809D02*
X144330330Y-88648619D01*
X144330330Y-88648619D02*
X144377949Y-88696238D01*
X144377949Y-88696238D02*
X144401759Y-88743857D01*
X144401759Y-88743857D02*
X144425568Y-88839095D01*
X144425568Y-88839095D02*
X144425568Y-88910523D01*
X144425568Y-88910523D02*
X144401759Y-89005761D01*
X144401759Y-89005761D02*
X144377949Y-89053380D01*
X144377949Y-89053380D02*
X144330330Y-89101000D01*
X144330330Y-89101000D02*
X144258902Y-89124809D01*
X144258902Y-89124809D02*
X144139854Y-89124809D01*
X144639854Y-89124809D02*
X144639854Y-88624809D01*
X144639854Y-88624809D02*
X144758902Y-88624809D01*
X144758902Y-88624809D02*
X144830330Y-88648619D01*
X144830330Y-88648619D02*
X144877949Y-88696238D01*
X144877949Y-88696238D02*
X144901759Y-88743857D01*
X144901759Y-88743857D02*
X144925568Y-88839095D01*
X144925568Y-88839095D02*
X144925568Y-88910523D01*
X144925568Y-88910523D02*
X144901759Y-89005761D01*
X144901759Y-89005761D02*
X144877949Y-89053380D01*
X144877949Y-89053380D02*
X144830330Y-89101000D01*
X144830330Y-89101000D02*
X144758902Y-89124809D01*
X144758902Y-89124809D02*
X144639854Y-89124809D01*
X143711283Y-87854809D02*
X143711283Y-87354809D01*
X143711283Y-87354809D02*
X143830331Y-87354809D01*
X143830331Y-87354809D02*
X143901759Y-87378619D01*
X143901759Y-87378619D02*
X143949378Y-87426238D01*
X143949378Y-87426238D02*
X143973188Y-87473857D01*
X143973188Y-87473857D02*
X143996997Y-87569095D01*
X143996997Y-87569095D02*
X143996997Y-87640523D01*
X143996997Y-87640523D02*
X143973188Y-87735761D01*
X143973188Y-87735761D02*
X143949378Y-87783380D01*
X143949378Y-87783380D02*
X143901759Y-87831000D01*
X143901759Y-87831000D02*
X143830331Y-87854809D01*
X143830331Y-87854809D02*
X143711283Y-87854809D01*
X144473188Y-87378619D02*
X144425569Y-87354809D01*
X144425569Y-87354809D02*
X144354140Y-87354809D01*
X144354140Y-87354809D02*
X144282712Y-87378619D01*
X144282712Y-87378619D02*
X144235093Y-87426238D01*
X144235093Y-87426238D02*
X144211283Y-87473857D01*
X144211283Y-87473857D02*
X144187474Y-87569095D01*
X144187474Y-87569095D02*
X144187474Y-87640523D01*
X144187474Y-87640523D02*
X144211283Y-87735761D01*
X144211283Y-87735761D02*
X144235093Y-87783380D01*
X144235093Y-87783380D02*
X144282712Y-87831000D01*
X144282712Y-87831000D02*
X144354140Y-87854809D01*
X144354140Y-87854809D02*
X144401759Y-87854809D01*
X144401759Y-87854809D02*
X144473188Y-87831000D01*
X144473188Y-87831000D02*
X144496997Y-87807190D01*
X144496997Y-87807190D02*
X144496997Y-87640523D01*
X144496997Y-87640523D02*
X144401759Y-87640523D01*
X144711283Y-87854809D02*
X144711283Y-87354809D01*
X144711283Y-87354809D02*
X144996997Y-87854809D01*
X144996997Y-87854809D02*
X144996997Y-87354809D01*
X145235093Y-87854809D02*
X145235093Y-87354809D01*
X145235093Y-87354809D02*
X145354141Y-87354809D01*
X145354141Y-87354809D02*
X145425569Y-87378619D01*
X145425569Y-87378619D02*
X145473188Y-87426238D01*
X145473188Y-87426238D02*
X145496998Y-87473857D01*
X145496998Y-87473857D02*
X145520807Y-87569095D01*
X145520807Y-87569095D02*
X145520807Y-87640523D01*
X145520807Y-87640523D02*
X145496998Y-87735761D01*
X145496998Y-87735761D02*
X145473188Y-87783380D01*
X145473188Y-87783380D02*
X145425569Y-87831000D01*
X145425569Y-87831000D02*
X145354141Y-87854809D01*
X145354141Y-87854809D02*
X145235093Y-87854809D01*
X143639855Y-86084809D02*
X143806521Y-86584809D01*
X143806521Y-86584809D02*
X143973188Y-86084809D01*
X144139854Y-86584809D02*
X144139854Y-86084809D01*
X144377949Y-86584809D02*
X144377949Y-86084809D01*
X144377949Y-86084809D02*
X144663663Y-86584809D01*
X144663663Y-86584809D02*
X144663663Y-86084809D01*
X145187473Y-86584809D02*
X145020807Y-86346714D01*
X144901759Y-86584809D02*
X144901759Y-86084809D01*
X144901759Y-86084809D02*
X145092235Y-86084809D01*
X145092235Y-86084809D02*
X145139854Y-86108619D01*
X145139854Y-86108619D02*
X145163664Y-86132428D01*
X145163664Y-86132428D02*
X145187473Y-86180047D01*
X145187473Y-86180047D02*
X145187473Y-86251476D01*
X145187473Y-86251476D02*
X145163664Y-86299095D01*
X145163664Y-86299095D02*
X145139854Y-86322904D01*
X145139854Y-86322904D02*
X145092235Y-86346714D01*
X145092235Y-86346714D02*
X144901759Y-86346714D01*
X143639855Y-84814809D02*
X143806521Y-85314809D01*
X143806521Y-85314809D02*
X143973188Y-84814809D01*
X144139854Y-85314809D02*
X144139854Y-84814809D01*
X144377949Y-85314809D02*
X144377949Y-84814809D01*
X144377949Y-84814809D02*
X144663663Y-85314809D01*
X144663663Y-85314809D02*
X144663663Y-84814809D01*
X145139854Y-85314809D02*
X144901759Y-85314809D01*
X144901759Y-85314809D02*
X144901759Y-84814809D01*
D11*
X146621905Y-81737419D02*
X146621905Y-80737419D01*
X146621905Y-80737419D02*
X147002857Y-80737419D01*
X147002857Y-80737419D02*
X147098095Y-80785038D01*
X147098095Y-80785038D02*
X147145714Y-80832657D01*
X147145714Y-80832657D02*
X147193333Y-80927895D01*
X147193333Y-80927895D02*
X147193333Y-81070752D01*
X147193333Y-81070752D02*
X147145714Y-81165990D01*
X147145714Y-81165990D02*
X147098095Y-81213609D01*
X147098095Y-81213609D02*
X147002857Y-81261228D01*
X147002857Y-81261228D02*
X146621905Y-81261228D01*
X148193333Y-81642180D02*
X148145714Y-81689800D01*
X148145714Y-81689800D02*
X148002857Y-81737419D01*
X148002857Y-81737419D02*
X147907619Y-81737419D01*
X147907619Y-81737419D02*
X147764762Y-81689800D01*
X147764762Y-81689800D02*
X147669524Y-81594561D01*
X147669524Y-81594561D02*
X147621905Y-81499323D01*
X147621905Y-81499323D02*
X147574286Y-81308847D01*
X147574286Y-81308847D02*
X147574286Y-81165990D01*
X147574286Y-81165990D02*
X147621905Y-80975514D01*
X147621905Y-80975514D02*
X147669524Y-80880276D01*
X147669524Y-80880276D02*
X147764762Y-80785038D01*
X147764762Y-80785038D02*
X147907619Y-80737419D01*
X147907619Y-80737419D02*
X148002857Y-80737419D01*
X148002857Y-80737419D02*
X148145714Y-80785038D01*
X148145714Y-80785038D02*
X148193333Y-80832657D01*
X148621905Y-81737419D02*
X148621905Y-80737419D01*
X148621905Y-80737419D02*
X148955238Y-81451704D01*
X148955238Y-81451704D02*
X149288571Y-80737419D01*
X149288571Y-80737419D02*
X149288571Y-81737419D01*
X150288571Y-81737419D02*
X149717143Y-81737419D01*
X150002857Y-81737419D02*
X150002857Y-80737419D01*
X150002857Y-80737419D02*
X149907619Y-80880276D01*
X149907619Y-80880276D02*
X149812381Y-80975514D01*
X149812381Y-80975514D02*
X149717143Y-81023133D01*
X150860000Y-81165990D02*
X150764762Y-81118371D01*
X150764762Y-81118371D02*
X150717143Y-81070752D01*
X150717143Y-81070752D02*
X150669524Y-80975514D01*
X150669524Y-80975514D02*
X150669524Y-80927895D01*
X150669524Y-80927895D02*
X150717143Y-80832657D01*
X150717143Y-80832657D02*
X150764762Y-80785038D01*
X150764762Y-80785038D02*
X150860000Y-80737419D01*
X150860000Y-80737419D02*
X151050476Y-80737419D01*
X151050476Y-80737419D02*
X151145714Y-80785038D01*
X151145714Y-80785038D02*
X151193333Y-80832657D01*
X151193333Y-80832657D02*
X151240952Y-80927895D01*
X151240952Y-80927895D02*
X151240952Y-80975514D01*
X151240952Y-80975514D02*
X151193333Y-81070752D01*
X151193333Y-81070752D02*
X151145714Y-81118371D01*
X151145714Y-81118371D02*
X151050476Y-81165990D01*
X151050476Y-81165990D02*
X150860000Y-81165990D01*
X150860000Y-81165990D02*
X150764762Y-81213609D01*
X150764762Y-81213609D02*
X150717143Y-81261228D01*
X150717143Y-81261228D02*
X150669524Y-81356466D01*
X150669524Y-81356466D02*
X150669524Y-81546942D01*
X150669524Y-81546942D02*
X150717143Y-81642180D01*
X150717143Y-81642180D02*
X150764762Y-81689800D01*
X150764762Y-81689800D02*
X150860000Y-81737419D01*
X150860000Y-81737419D02*
X151050476Y-81737419D01*
X151050476Y-81737419D02*
X151145714Y-81689800D01*
X151145714Y-81689800D02*
X151193333Y-81642180D01*
X151193333Y-81642180D02*
X151240952Y-81546942D01*
X151240952Y-81546942D02*
X151240952Y-81356466D01*
X151240952Y-81356466D02*
X151193333Y-81261228D01*
X151193333Y-81261228D02*
X151145714Y-81213609D01*
X151145714Y-81213609D02*
X151050476Y-81165990D01*
X151860000Y-80737419D02*
X151955238Y-80737419D01*
X151955238Y-80737419D02*
X152050476Y-80785038D01*
X152050476Y-80785038D02*
X152098095Y-80832657D01*
X152098095Y-80832657D02*
X152145714Y-80927895D01*
X152145714Y-80927895D02*
X152193333Y-81118371D01*
X152193333Y-81118371D02*
X152193333Y-81356466D01*
X152193333Y-81356466D02*
X152145714Y-81546942D01*
X152145714Y-81546942D02*
X152098095Y-81642180D01*
X152098095Y-81642180D02*
X152050476Y-81689800D01*
X152050476Y-81689800D02*
X151955238Y-81737419D01*
X151955238Y-81737419D02*
X151860000Y-81737419D01*
X151860000Y-81737419D02*
X151764762Y-81689800D01*
X151764762Y-81689800D02*
X151717143Y-81642180D01*
X151717143Y-81642180D02*
X151669524Y-81546942D01*
X151669524Y-81546942D02*
X151621905Y-81356466D01*
X151621905Y-81356466D02*
X151621905Y-81118371D01*
X151621905Y-81118371D02*
X151669524Y-80927895D01*
X151669524Y-80927895D02*
X151717143Y-80832657D01*
X151717143Y-80832657D02*
X151764762Y-80785038D01*
X151764762Y-80785038D02*
X151860000Y-80737419D01*
X153145714Y-81737419D02*
X152574286Y-81737419D01*
X152860000Y-81737419D02*
X152860000Y-80737419D01*
X152860000Y-80737419D02*
X152764762Y-80880276D01*
X152764762Y-80880276D02*
X152669524Y-80975514D01*
X152669524Y-80975514D02*
X152574286Y-81023133D01*
%TO.C,PCM1801*%
X148470000Y-85090000D02*
G75*
G03*
X148470000Y-85090000I-200000J0D01*
G01*
%TD*%
M02*
