M48
; DRILL file {KiCad 7.0.6} date Sun Aug 25 10:21:38 2024
; FORMAT={-:-/ absolute / metric / decimal}
; #@! TF.CreationDate,2024-08-25T10:21:38-07:00
; #@! TF.GenerationSoftware,Kicad,Pcbnew,7.0.6
; #@! TF.FileFunction,Plated,1,2,PTH
FMAT,2
METRIC
; #@! TA.AperFunction,Plated,PTH,ViaDrill
T1C0.400
; #@! TA.AperFunction,Plated,PTH,ComponentDrill
T2C0.600
; #@! TA.AperFunction,Plated,PTH,ComponentDrill
T3C0.800
; #@! TA.AperFunction,Plated,PTH,ComponentDrill
T4C0.900
; #@! TA.AperFunction,Plated,PTH,ComponentDrill
T5C1.000
; #@! TA.AperFunction,Plated,PTH,ComponentDrill
T6C1.100
; #@! TA.AperFunction,Plated,PTH,ComponentDrill
T7C1.750
%
G90
G05
T1
X163.195Y-41.91
X182.88Y-104.14
T2
X150.035Y-39.37
X151.535Y-39.37
X153.035Y-102.87
X154.535Y-102.87
X164.235Y-102.87
X165.735Y-102.87
X175.435Y-67.31
X176.935Y-67.31
X188.595Y-69.215
X190.095Y-69.215
T3
X150.385Y-78.74
X152.385Y-78.74
X155.6Y-81.28
X156.195Y-67.945
X156.195Y-78.105
X156.29Y-89.535
X158.115Y-94.615
X158.115Y-98.425
X159.37Y-67.945
X159.37Y-78.105
X159.385Y-85.09
X160.6Y-81.28
X161.29Y-89.535
X162.545Y-67.945
X162.545Y-78.105
X163.83Y-33.655
X165.125Y-81.28
X165.72Y-67.945
X165.72Y-78.105
X166.37Y-33.655
X168.275Y-94.615
X168.275Y-98.425
X168.895Y-67.945
X168.895Y-78.105
X168.91Y-33.655
X169.545Y-85.09
X170.125Y-81.28
X172.36Y-97.155
X172.36Y-99.695
X172.36Y-102.235
X172.72Y-91.44
X173.34Y-74.93
X173.34Y-85.09
X173.99Y-33.25
X175.26Y-94.615
X177.15Y-72.39
X177.15Y-74.93
X177.15Y-77.47
X177.15Y-80.01
X177.15Y-82.55
X177.15Y-85.09
X177.15Y-87.63
X178.075Y-97.155
X178.075Y-99.695
X178.075Y-102.235
X182.88Y-91.44
X182.88Y-94.615
X184.15Y-33.25
X184.77Y-72.39
X184.77Y-74.93
X184.77Y-77.47
X184.77Y-80.01
X184.77Y-82.55
X184.77Y-85.09
X184.77Y-87.63
X191.77Y-35.812
X191.77Y-39.312
T4
X154.392Y-128.246
X156.932Y-128.246
X159.472Y-128.246
X162.012Y-128.246
X164.552Y-107.774
X164.552Y-128.246
X167.092Y-107.774
X167.092Y-128.246
X169.632Y-107.774
X169.632Y-128.246
X172.172Y-107.774
X172.172Y-128.246
X174.712Y-107.774
X174.712Y-128.246
X177.252Y-107.774
X177.252Y-128.246
X179.792Y-107.774
X179.792Y-128.246
X182.332Y-107.774
X182.332Y-128.246
X184.872Y-107.774
X184.872Y-128.246
X187.412Y-107.774
X187.412Y-128.246
X189.952Y-107.774
X189.952Y-128.246
X192.492Y-107.774
X192.492Y-128.246
T5
X152.385Y-68.58
X152.385Y-71.12
X152.385Y-73.66
X156.845Y-38.735
X156.85Y-33.655
X159.385Y-38.735
X159.39Y-33.655
X161.925Y-38.735
X164.465Y-38.735
X164.465Y-89.535
X167.005Y-89.535
X169.545Y-89.535
X193.04Y-73.66
X193.04Y-76.2
X193.04Y-78.74
X193.04Y-81.28
X193.04Y-83.82
X193.04Y-86.36
X193.04Y-88.9
X193.04Y-91.44
X193.04Y-93.98
X193.04Y-96.52
X193.04Y-99.06
T6
X177.8Y-36.83
X177.8Y-40.64
X185.42Y-36.83
X185.42Y-40.64
T7
X152.25Y-45.25
X152.25Y-61.75
X158.75Y-45.25
X158.75Y-61.75
X165.25Y-45.25
X165.25Y-61.75
X181.25Y-45.25
X181.25Y-61.75
X187.75Y-45.25
X187.75Y-61.75
X194.25Y-45.25
X194.25Y-61.75
T0
M30
