%TF.GenerationSoftware,KiCad,Pcbnew,7.0.6*%
%TF.CreationDate,2024-08-25T10:22:35-07:00*%
%TF.ProjectId,Guitar_waveform_proj,47756974-6172-45f7-9761-7665666f726d,rev?*%
%TF.SameCoordinates,Original*%
%TF.FileFunction,Drillmap*%
%TF.FilePolarity,Positive*%
%FSLAX45Y45*%
G04 Gerber Fmt 4.5, Leading zero omitted, Abs format (unit mm)*
G04 Created by KiCad (PCBNEW 7.0.6) date 2024-08-25 10:22:35*
%MOMM*%
%LPD*%
G01*
G04 APERTURE LIST*
%ADD10C,0.100000*%
%ADD11C,0.200000*%
%ADD12C,0.040000*%
%ADD13C,0.060000*%
%ADD14C,0.080000*%
%ADD15C,0.090000*%
%ADD16C,0.110000*%
%ADD17C,0.175000*%
G04 APERTURE END LIST*
D10*
X15200000Y-3100000D02*
X19450000Y-3100000D01*
X19450000Y-3100000D02*
G75*
G03*
X19850000Y-3500000I400000J0D01*
G01*
X19450000Y-13300000D02*
X15200000Y-13300000D01*
X14800000Y-3500000D02*
G75*
G03*
X15200000Y-3100000I0J400000D01*
G01*
X14800000Y-12900000D02*
X14800000Y-3500000D01*
X15200000Y-13300000D02*
G75*
G03*
X14800000Y-12900000I-400000J0D01*
G01*
X19850000Y-3500000D02*
X19850000Y-12900000D01*
X19850000Y-12900000D02*
G75*
G03*
X19450000Y-13300000I0J-400000D01*
G01*
D11*
D12*
X16299500Y-4171000D02*
X16339500Y-4211000D01*
X16339500Y-4171000D02*
X16299500Y-4211000D01*
X18268000Y-10394000D02*
X18308000Y-10434000D01*
X18308000Y-10394000D02*
X18268000Y-10434000D01*
D13*
X15033500Y-3937000D02*
G75*
G03*
X15033500Y-3937000I-30000J0D01*
G01*
X15183500Y-3937000D02*
G75*
G03*
X15183500Y-3937000I-30000J0D01*
G01*
X15333500Y-10287000D02*
G75*
G03*
X15333500Y-10287000I-30000J0D01*
G01*
X15483500Y-10287000D02*
G75*
G03*
X15483500Y-10287000I-30000J0D01*
G01*
X16453500Y-10287000D02*
G75*
G03*
X16453500Y-10287000I-30000J0D01*
G01*
X16603500Y-10287000D02*
G75*
G03*
X16603500Y-10287000I-30000J0D01*
G01*
X17573500Y-6731000D02*
G75*
G03*
X17573500Y-6731000I-30000J0D01*
G01*
X17723500Y-6731000D02*
G75*
G03*
X17723500Y-6731000I-30000J0D01*
G01*
X18889500Y-6921500D02*
G75*
G03*
X18889500Y-6921500I-30000J0D01*
G01*
X19039500Y-6921500D02*
G75*
G03*
X19039500Y-6921500I-30000J0D01*
G01*
D14*
X15038500Y-7834000D02*
X15038500Y-7914000D01*
X14998500Y-7874000D02*
X15078500Y-7874000D01*
X15238500Y-7834000D02*
X15238500Y-7914000D01*
X15198500Y-7874000D02*
X15278500Y-7874000D01*
X15560000Y-8088000D02*
X15560000Y-8168000D01*
X15520000Y-8128000D02*
X15600000Y-8128000D01*
X15619500Y-6754500D02*
X15619500Y-6834500D01*
X15579500Y-6794500D02*
X15659500Y-6794500D01*
X15619500Y-7770500D02*
X15619500Y-7850500D01*
X15579500Y-7810500D02*
X15659500Y-7810500D01*
X15629000Y-8913500D02*
X15629000Y-8993500D01*
X15589000Y-8953500D02*
X15669000Y-8953500D01*
X15811500Y-9421500D02*
X15811500Y-9501500D01*
X15771500Y-9461500D02*
X15851500Y-9461500D01*
X15811500Y-9802500D02*
X15811500Y-9882500D01*
X15771500Y-9842500D02*
X15851500Y-9842500D01*
X15937000Y-6754500D02*
X15937000Y-6834500D01*
X15897000Y-6794500D02*
X15977000Y-6794500D01*
X15937000Y-7770500D02*
X15937000Y-7850500D01*
X15897000Y-7810500D02*
X15977000Y-7810500D01*
X15938500Y-8469000D02*
X15938500Y-8549000D01*
X15898500Y-8509000D02*
X15978500Y-8509000D01*
X16060000Y-8088000D02*
X16060000Y-8168000D01*
X16020000Y-8128000D02*
X16100000Y-8128000D01*
X16129000Y-8913500D02*
X16129000Y-8993500D01*
X16089000Y-8953500D02*
X16169000Y-8953500D01*
X16254500Y-6754500D02*
X16254500Y-6834500D01*
X16214500Y-6794500D02*
X16294500Y-6794500D01*
X16254500Y-7770500D02*
X16254500Y-7850500D01*
X16214500Y-7810500D02*
X16294500Y-7810500D01*
X16383000Y-3325500D02*
X16383000Y-3405500D01*
X16343000Y-3365500D02*
X16423000Y-3365500D01*
X16512500Y-8088000D02*
X16512500Y-8168000D01*
X16472500Y-8128000D02*
X16552500Y-8128000D01*
X16572000Y-6754500D02*
X16572000Y-6834500D01*
X16532000Y-6794500D02*
X16612000Y-6794500D01*
X16572000Y-7770500D02*
X16572000Y-7850500D01*
X16532000Y-7810500D02*
X16612000Y-7810500D01*
X16637000Y-3325500D02*
X16637000Y-3405500D01*
X16597000Y-3365500D02*
X16677000Y-3365500D01*
X16827500Y-9421500D02*
X16827500Y-9501500D01*
X16787500Y-9461500D02*
X16867500Y-9461500D01*
X16827500Y-9802500D02*
X16827500Y-9882500D01*
X16787500Y-9842500D02*
X16867500Y-9842500D01*
X16889500Y-6754500D02*
X16889500Y-6834500D01*
X16849500Y-6794500D02*
X16929500Y-6794500D01*
X16889500Y-7770500D02*
X16889500Y-7850500D01*
X16849500Y-7810500D02*
X16929500Y-7810500D01*
X16891000Y-3325500D02*
X16891000Y-3405500D01*
X16851000Y-3365500D02*
X16931000Y-3365500D01*
X16954500Y-8469000D02*
X16954500Y-8549000D01*
X16914500Y-8509000D02*
X16994500Y-8509000D01*
X17012500Y-8088000D02*
X17012500Y-8168000D01*
X16972500Y-8128000D02*
X17052500Y-8128000D01*
X17236000Y-9675500D02*
X17236000Y-9755500D01*
X17196000Y-9715500D02*
X17276000Y-9715500D01*
X17236000Y-9929500D02*
X17236000Y-10009500D01*
X17196000Y-9969500D02*
X17276000Y-9969500D01*
X17236000Y-10183500D02*
X17236000Y-10263500D01*
X17196000Y-10223500D02*
X17276000Y-10223500D01*
X17272000Y-9104000D02*
X17272000Y-9184000D01*
X17232000Y-9144000D02*
X17312000Y-9144000D01*
X17334000Y-7453000D02*
X17334000Y-7533000D01*
X17294000Y-7493000D02*
X17374000Y-7493000D01*
X17334000Y-8469000D02*
X17334000Y-8549000D01*
X17294000Y-8509000D02*
X17374000Y-8509000D01*
X17399000Y-3285000D02*
X17399000Y-3365000D01*
X17359000Y-3325000D02*
X17439000Y-3325000D01*
X17526000Y-9421500D02*
X17526000Y-9501500D01*
X17486000Y-9461500D02*
X17566000Y-9461500D01*
X17715000Y-7199000D02*
X17715000Y-7279000D01*
X17675000Y-7239000D02*
X17755000Y-7239000D01*
X17715000Y-7453000D02*
X17715000Y-7533000D01*
X17675000Y-7493000D02*
X17755000Y-7493000D01*
X17715000Y-7707000D02*
X17715000Y-7787000D01*
X17675000Y-7747000D02*
X17755000Y-7747000D01*
X17715000Y-7961000D02*
X17715000Y-8041000D01*
X17675000Y-8001000D02*
X17755000Y-8001000D01*
X17715000Y-8215000D02*
X17715000Y-8295000D01*
X17675000Y-8255000D02*
X17755000Y-8255000D01*
X17715000Y-8469000D02*
X17715000Y-8549000D01*
X17675000Y-8509000D02*
X17755000Y-8509000D01*
X17715000Y-8723000D02*
X17715000Y-8803000D01*
X17675000Y-8763000D02*
X17755000Y-8763000D01*
X17807500Y-9675500D02*
X17807500Y-9755500D01*
X17767500Y-9715500D02*
X17847500Y-9715500D01*
X17807500Y-9929500D02*
X17807500Y-10009500D01*
X17767500Y-9969500D02*
X17847500Y-9969500D01*
X17807500Y-10183500D02*
X17807500Y-10263500D01*
X17767500Y-10223500D02*
X17847500Y-10223500D01*
X18288000Y-9104000D02*
X18288000Y-9184000D01*
X18248000Y-9144000D02*
X18328000Y-9144000D01*
X18288000Y-9421500D02*
X18288000Y-9501500D01*
X18248000Y-9461500D02*
X18328000Y-9461500D01*
X18415000Y-3285000D02*
X18415000Y-3365000D01*
X18375000Y-3325000D02*
X18455000Y-3325000D01*
X18477000Y-7199000D02*
X18477000Y-7279000D01*
X18437000Y-7239000D02*
X18517000Y-7239000D01*
X18477000Y-7453000D02*
X18477000Y-7533000D01*
X18437000Y-7493000D02*
X18517000Y-7493000D01*
X18477000Y-7707000D02*
X18477000Y-7787000D01*
X18437000Y-7747000D02*
X18517000Y-7747000D01*
X18477000Y-7961000D02*
X18477000Y-8041000D01*
X18437000Y-8001000D02*
X18517000Y-8001000D01*
X18477000Y-8215000D02*
X18477000Y-8295000D01*
X18437000Y-8255000D02*
X18517000Y-8255000D01*
X18477000Y-8469000D02*
X18477000Y-8549000D01*
X18437000Y-8509000D02*
X18517000Y-8509000D01*
X18477000Y-8723000D02*
X18477000Y-8803000D01*
X18437000Y-8763000D02*
X18517000Y-8763000D01*
X19177000Y-3541235D02*
X19177000Y-3621235D01*
X19137000Y-3581235D02*
X19217000Y-3581235D01*
X19177000Y-3891235D02*
X19177000Y-3971235D01*
X19137000Y-3931235D02*
X19217000Y-3931235D01*
D15*
X15471020Y-12856420D02*
X15471020Y-12792780D01*
X15407380Y-12792780D01*
X15407380Y-12856420D01*
X15471020Y-12856420D01*
X15725020Y-12856420D02*
X15725020Y-12792780D01*
X15661380Y-12792780D01*
X15661380Y-12856420D01*
X15725020Y-12856420D01*
X15979020Y-12856420D02*
X15979020Y-12792780D01*
X15915380Y-12792780D01*
X15915380Y-12856420D01*
X15979020Y-12856420D01*
X16233020Y-12856420D02*
X16233020Y-12792780D01*
X16169380Y-12792780D01*
X16169380Y-12856420D01*
X16233020Y-12856420D01*
X16487020Y-10809220D02*
X16487020Y-10745580D01*
X16423380Y-10745580D01*
X16423380Y-10809220D01*
X16487020Y-10809220D01*
X16487020Y-12856420D02*
X16487020Y-12792780D01*
X16423380Y-12792780D01*
X16423380Y-12856420D01*
X16487020Y-12856420D01*
X16741020Y-10809220D02*
X16741020Y-10745580D01*
X16677380Y-10745580D01*
X16677380Y-10809220D01*
X16741020Y-10809220D01*
X16741020Y-12856420D02*
X16741020Y-12792780D01*
X16677380Y-12792780D01*
X16677380Y-12856420D01*
X16741020Y-12856420D01*
X16995020Y-10809220D02*
X16995020Y-10745580D01*
X16931380Y-10745580D01*
X16931380Y-10809220D01*
X16995020Y-10809220D01*
X16995020Y-12856420D02*
X16995020Y-12792780D01*
X16931380Y-12792780D01*
X16931380Y-12856420D01*
X16995020Y-12856420D01*
X17249020Y-10809220D02*
X17249020Y-10745580D01*
X17185380Y-10745580D01*
X17185380Y-10809220D01*
X17249020Y-10809220D01*
X17249020Y-12856420D02*
X17249020Y-12792780D01*
X17185380Y-12792780D01*
X17185380Y-12856420D01*
X17249020Y-12856420D01*
X17503020Y-10809220D02*
X17503020Y-10745580D01*
X17439380Y-10745580D01*
X17439380Y-10809220D01*
X17503020Y-10809220D01*
X17503020Y-12856420D02*
X17503020Y-12792780D01*
X17439380Y-12792780D01*
X17439380Y-12856420D01*
X17503020Y-12856420D01*
X17757020Y-10809220D02*
X17757020Y-10745580D01*
X17693380Y-10745580D01*
X17693380Y-10809220D01*
X17757020Y-10809220D01*
X17757020Y-12856420D02*
X17757020Y-12792780D01*
X17693380Y-12792780D01*
X17693380Y-12856420D01*
X17757020Y-12856420D01*
X18011020Y-10809220D02*
X18011020Y-10745580D01*
X17947380Y-10745580D01*
X17947380Y-10809220D01*
X18011020Y-10809220D01*
X18011020Y-12856420D02*
X18011020Y-12792780D01*
X17947380Y-12792780D01*
X17947380Y-12856420D01*
X18011020Y-12856420D01*
X18265020Y-10809220D02*
X18265020Y-10745580D01*
X18201380Y-10745580D01*
X18201380Y-10809220D01*
X18265020Y-10809220D01*
X18265020Y-12856420D02*
X18265020Y-12792780D01*
X18201380Y-12792780D01*
X18201380Y-12856420D01*
X18265020Y-12856420D01*
X18519020Y-10809220D02*
X18519020Y-10745580D01*
X18455380Y-10745580D01*
X18455380Y-10809220D01*
X18519020Y-10809220D01*
X18519020Y-12856420D02*
X18519020Y-12792780D01*
X18455380Y-12792780D01*
X18455380Y-12856420D01*
X18519020Y-12856420D01*
X18773020Y-10809220D02*
X18773020Y-10745580D01*
X18709380Y-10745580D01*
X18709380Y-10809220D01*
X18773020Y-10809220D01*
X18773020Y-12856420D02*
X18773020Y-12792780D01*
X18709380Y-12792780D01*
X18709380Y-12856420D01*
X18773020Y-12856420D01*
X19027020Y-10809220D02*
X19027020Y-10745580D01*
X18963380Y-10745580D01*
X18963380Y-10809220D01*
X19027020Y-10809220D01*
X19027020Y-12856420D02*
X19027020Y-12792780D01*
X18963380Y-12792780D01*
X18963380Y-12856420D01*
X19027020Y-12856420D01*
X19281020Y-10809220D02*
X19281020Y-10745580D01*
X19217380Y-10745580D01*
X19217380Y-10809220D01*
X19281020Y-10809220D01*
X19281020Y-12856420D02*
X19281020Y-12792780D01*
X19217380Y-12792780D01*
X19217380Y-12856420D01*
X19281020Y-12856420D01*
D10*
X15238500Y-6908000D02*
X15288500Y-6858000D01*
X15238500Y-6808000D01*
X15188500Y-6858000D01*
X15238500Y-6908000D01*
X15238500Y-7162000D02*
X15288500Y-7112000D01*
X15238500Y-7062000D01*
X15188500Y-7112000D01*
X15238500Y-7162000D01*
X15238500Y-7416000D02*
X15288500Y-7366000D01*
X15238500Y-7316000D01*
X15188500Y-7366000D01*
X15238500Y-7416000D01*
X15684500Y-3923500D02*
X15734500Y-3873500D01*
X15684500Y-3823500D01*
X15634500Y-3873500D01*
X15684500Y-3923500D01*
X15685000Y-3415500D02*
X15735000Y-3365500D01*
X15685000Y-3315500D01*
X15635000Y-3365500D01*
X15685000Y-3415500D01*
X15938500Y-3923500D02*
X15988500Y-3873500D01*
X15938500Y-3823500D01*
X15888500Y-3873500D01*
X15938500Y-3923500D01*
X15939000Y-3415500D02*
X15989000Y-3365500D01*
X15939000Y-3315500D01*
X15889000Y-3365500D01*
X15939000Y-3415500D01*
X16192500Y-3923500D02*
X16242500Y-3873500D01*
X16192500Y-3823500D01*
X16142500Y-3873500D01*
X16192500Y-3923500D01*
X16446500Y-3923500D02*
X16496500Y-3873500D01*
X16446500Y-3823500D01*
X16396500Y-3873500D01*
X16446500Y-3923500D01*
X16446500Y-9003500D02*
X16496500Y-8953500D01*
X16446500Y-8903500D01*
X16396500Y-8953500D01*
X16446500Y-9003500D01*
X16700500Y-9003500D02*
X16750500Y-8953500D01*
X16700500Y-8903500D01*
X16650500Y-8953500D01*
X16700500Y-9003500D01*
X16954500Y-9003500D02*
X17004500Y-8953500D01*
X16954500Y-8903500D01*
X16904500Y-8953500D01*
X16954500Y-9003500D01*
X19304000Y-7416000D02*
X19354000Y-7366000D01*
X19304000Y-7316000D01*
X19254000Y-7366000D01*
X19304000Y-7416000D01*
X19304000Y-7670000D02*
X19354000Y-7620000D01*
X19304000Y-7570000D01*
X19254000Y-7620000D01*
X19304000Y-7670000D01*
X19304000Y-7924000D02*
X19354000Y-7874000D01*
X19304000Y-7824000D01*
X19254000Y-7874000D01*
X19304000Y-7924000D01*
X19304000Y-8178000D02*
X19354000Y-8128000D01*
X19304000Y-8078000D01*
X19254000Y-8128000D01*
X19304000Y-8178000D01*
X19304000Y-8432000D02*
X19354000Y-8382000D01*
X19304000Y-8332000D01*
X19254000Y-8382000D01*
X19304000Y-8432000D01*
X19304000Y-8686000D02*
X19354000Y-8636000D01*
X19304000Y-8586000D01*
X19254000Y-8636000D01*
X19304000Y-8686000D01*
X19304000Y-8940000D02*
X19354000Y-8890000D01*
X19304000Y-8840000D01*
X19254000Y-8890000D01*
X19304000Y-8940000D01*
X19304000Y-9194000D02*
X19354000Y-9144000D01*
X19304000Y-9094000D01*
X19254000Y-9144000D01*
X19304000Y-9194000D01*
X19304000Y-9448000D02*
X19354000Y-9398000D01*
X19304000Y-9348000D01*
X19254000Y-9398000D01*
X19304000Y-9448000D01*
X19304000Y-9702000D02*
X19354000Y-9652000D01*
X19304000Y-9602000D01*
X19254000Y-9652000D01*
X19304000Y-9702000D01*
X19304000Y-9956000D02*
X19354000Y-9906000D01*
X19304000Y-9856000D01*
X19254000Y-9906000D01*
X19304000Y-9956000D01*
D16*
X17725000Y-3628000D02*
X17835000Y-3738000D01*
X17835000Y-3628000D02*
X17725000Y-3738000D01*
X17835000Y-3683000D02*
G75*
G03*
X17835000Y-3683000I-55000J0D01*
G01*
X17725000Y-4009000D02*
X17835000Y-4119000D01*
X17835000Y-4009000D02*
X17725000Y-4119000D01*
X17835000Y-4064000D02*
G75*
G03*
X17835000Y-4064000I-55000J0D01*
G01*
X18487000Y-3628000D02*
X18597000Y-3738000D01*
X18597000Y-3628000D02*
X18487000Y-3738000D01*
X18597000Y-3683000D02*
G75*
G03*
X18597000Y-3683000I-55000J0D01*
G01*
X18487000Y-4009000D02*
X18597000Y-4119000D01*
X18597000Y-4009000D02*
X18487000Y-4119000D01*
X18597000Y-4064000D02*
G75*
G03*
X18597000Y-4064000I-55000J0D01*
G01*
D17*
X15137500Y-4437500D02*
X15312500Y-4612500D01*
X15312500Y-4437500D02*
X15137500Y-4612500D01*
X15225000Y-4437500D02*
X15225000Y-4612500D01*
X15137500Y-4525000D02*
X15312500Y-4525000D01*
X15137500Y-6087500D02*
X15312500Y-6262500D01*
X15312500Y-6087500D02*
X15137500Y-6262500D01*
X15225000Y-6087500D02*
X15225000Y-6262500D01*
X15137500Y-6175000D02*
X15312500Y-6175000D01*
X15787500Y-4437500D02*
X15962500Y-4612500D01*
X15962500Y-4437500D02*
X15787500Y-4612500D01*
X15875000Y-4437500D02*
X15875000Y-4612500D01*
X15787500Y-4525000D02*
X15962500Y-4525000D01*
X15787500Y-6087500D02*
X15962500Y-6262500D01*
X15962500Y-6087500D02*
X15787500Y-6262500D01*
X15875000Y-6087500D02*
X15875000Y-6262500D01*
X15787500Y-6175000D02*
X15962500Y-6175000D01*
X16437500Y-4437500D02*
X16612500Y-4612500D01*
X16612500Y-4437500D02*
X16437500Y-4612500D01*
X16525000Y-4437500D02*
X16525000Y-4612500D01*
X16437500Y-4525000D02*
X16612500Y-4525000D01*
X16437500Y-6087500D02*
X16612500Y-6262500D01*
X16612500Y-6087500D02*
X16437500Y-6262500D01*
X16525000Y-6087500D02*
X16525000Y-6262500D01*
X16437500Y-6175000D02*
X16612500Y-6175000D01*
X18037500Y-4437500D02*
X18212500Y-4612500D01*
X18212500Y-4437500D02*
X18037500Y-4612500D01*
X18125000Y-4437500D02*
X18125000Y-4612500D01*
X18037500Y-4525000D02*
X18212500Y-4525000D01*
X18037500Y-6087500D02*
X18212500Y-6262500D01*
X18212500Y-6087500D02*
X18037500Y-6262500D01*
X18125000Y-6087500D02*
X18125000Y-6262500D01*
X18037500Y-6175000D02*
X18212500Y-6175000D01*
X18687500Y-4437500D02*
X18862500Y-4612500D01*
X18862500Y-4437500D02*
X18687500Y-4612500D01*
X18775000Y-4437500D02*
X18775000Y-4612500D01*
X18687500Y-4525000D02*
X18862500Y-4525000D01*
X18687500Y-6087500D02*
X18862500Y-6262500D01*
X18862500Y-6087500D02*
X18687500Y-6262500D01*
X18775000Y-6087500D02*
X18775000Y-6262500D01*
X18687500Y-6175000D02*
X18862500Y-6175000D01*
X19337500Y-4437500D02*
X19512500Y-4612500D01*
X19512500Y-4437500D02*
X19337500Y-4612500D01*
X19425000Y-4437500D02*
X19425000Y-4612500D01*
X19337500Y-4525000D02*
X19512500Y-4525000D01*
X19337500Y-6087500D02*
X19512500Y-6262500D01*
X19512500Y-6087500D02*
X19337500Y-6262500D01*
X19425000Y-6087500D02*
X19425000Y-6262500D01*
X19337500Y-6175000D02*
X19512500Y-6175000D01*
D11*
X15055777Y-13616484D02*
X15055777Y-13416484D01*
X15055777Y-13416484D02*
X15103396Y-13416484D01*
X15103396Y-13416484D02*
X15131967Y-13426008D01*
X15131967Y-13426008D02*
X15151015Y-13445055D01*
X15151015Y-13445055D02*
X15160539Y-13464103D01*
X15160539Y-13464103D02*
X15170062Y-13502198D01*
X15170062Y-13502198D02*
X15170062Y-13530769D01*
X15170062Y-13530769D02*
X15160539Y-13568865D01*
X15160539Y-13568865D02*
X15151015Y-13587912D01*
X15151015Y-13587912D02*
X15131967Y-13606960D01*
X15131967Y-13606960D02*
X15103396Y-13616484D01*
X15103396Y-13616484D02*
X15055777Y-13616484D01*
X15255777Y-13616484D02*
X15255777Y-13483150D01*
X15255777Y-13521246D02*
X15265301Y-13502198D01*
X15265301Y-13502198D02*
X15274824Y-13492674D01*
X15274824Y-13492674D02*
X15293872Y-13483150D01*
X15293872Y-13483150D02*
X15312920Y-13483150D01*
X15379586Y-13616484D02*
X15379586Y-13483150D01*
X15379586Y-13416484D02*
X15370062Y-13426008D01*
X15370062Y-13426008D02*
X15379586Y-13435531D01*
X15379586Y-13435531D02*
X15389110Y-13426008D01*
X15389110Y-13426008D02*
X15379586Y-13416484D01*
X15379586Y-13416484D02*
X15379586Y-13435531D01*
X15503396Y-13616484D02*
X15484348Y-13606960D01*
X15484348Y-13606960D02*
X15474824Y-13587912D01*
X15474824Y-13587912D02*
X15474824Y-13416484D01*
X15608158Y-13616484D02*
X15589110Y-13606960D01*
X15589110Y-13606960D02*
X15579586Y-13587912D01*
X15579586Y-13587912D02*
X15579586Y-13416484D01*
X15836729Y-13616484D02*
X15836729Y-13416484D01*
X15836729Y-13416484D02*
X15903396Y-13559341D01*
X15903396Y-13559341D02*
X15970062Y-13416484D01*
X15970062Y-13416484D02*
X15970062Y-13616484D01*
X16151015Y-13616484D02*
X16151015Y-13511722D01*
X16151015Y-13511722D02*
X16141491Y-13492674D01*
X16141491Y-13492674D02*
X16122443Y-13483150D01*
X16122443Y-13483150D02*
X16084348Y-13483150D01*
X16084348Y-13483150D02*
X16065301Y-13492674D01*
X16151015Y-13606960D02*
X16131967Y-13616484D01*
X16131967Y-13616484D02*
X16084348Y-13616484D01*
X16084348Y-13616484D02*
X16065301Y-13606960D01*
X16065301Y-13606960D02*
X16055777Y-13587912D01*
X16055777Y-13587912D02*
X16055777Y-13568865D01*
X16055777Y-13568865D02*
X16065301Y-13549817D01*
X16065301Y-13549817D02*
X16084348Y-13540293D01*
X16084348Y-13540293D02*
X16131967Y-13540293D01*
X16131967Y-13540293D02*
X16151015Y-13530769D01*
X16246253Y-13483150D02*
X16246253Y-13683150D01*
X16246253Y-13492674D02*
X16265301Y-13483150D01*
X16265301Y-13483150D02*
X16303396Y-13483150D01*
X16303396Y-13483150D02*
X16322443Y-13492674D01*
X16322443Y-13492674D02*
X16331967Y-13502198D01*
X16331967Y-13502198D02*
X16341491Y-13521246D01*
X16341491Y-13521246D02*
X16341491Y-13578388D01*
X16341491Y-13578388D02*
X16331967Y-13597436D01*
X16331967Y-13597436D02*
X16322443Y-13606960D01*
X16322443Y-13606960D02*
X16303396Y-13616484D01*
X16303396Y-13616484D02*
X16265301Y-13616484D01*
X16265301Y-13616484D02*
X16246253Y-13606960D01*
X16427205Y-13597436D02*
X16436729Y-13606960D01*
X16436729Y-13606960D02*
X16427205Y-13616484D01*
X16427205Y-13616484D02*
X16417682Y-13606960D01*
X16417682Y-13606960D02*
X16427205Y-13597436D01*
X16427205Y-13597436D02*
X16427205Y-13616484D01*
X16427205Y-13492674D02*
X16436729Y-13502198D01*
X16436729Y-13502198D02*
X16427205Y-13511722D01*
X16427205Y-13511722D02*
X16417682Y-13502198D01*
X16417682Y-13502198D02*
X16427205Y-13492674D01*
X16427205Y-13492674D02*
X16427205Y-13511722D01*
D12*
X14755000Y-13925000D02*
X14795000Y-13965000D01*
X14795000Y-13925000D02*
X14755000Y-13965000D01*
D11*
X15093872Y-13836484D02*
X15112920Y-13836484D01*
X15112920Y-13836484D02*
X15131967Y-13846008D01*
X15131967Y-13846008D02*
X15141491Y-13855531D01*
X15141491Y-13855531D02*
X15151015Y-13874579D01*
X15151015Y-13874579D02*
X15160539Y-13912674D01*
X15160539Y-13912674D02*
X15160539Y-13960293D01*
X15160539Y-13960293D02*
X15151015Y-13998388D01*
X15151015Y-13998388D02*
X15141491Y-14017436D01*
X15141491Y-14017436D02*
X15131967Y-14026960D01*
X15131967Y-14026960D02*
X15112920Y-14036484D01*
X15112920Y-14036484D02*
X15093872Y-14036484D01*
X15093872Y-14036484D02*
X15074824Y-14026960D01*
X15074824Y-14026960D02*
X15065301Y-14017436D01*
X15065301Y-14017436D02*
X15055777Y-13998388D01*
X15055777Y-13998388D02*
X15046253Y-13960293D01*
X15046253Y-13960293D02*
X15046253Y-13912674D01*
X15046253Y-13912674D02*
X15055777Y-13874579D01*
X15055777Y-13874579D02*
X15065301Y-13855531D01*
X15065301Y-13855531D02*
X15074824Y-13846008D01*
X15074824Y-13846008D02*
X15093872Y-13836484D01*
X15246253Y-14017436D02*
X15255777Y-14026960D01*
X15255777Y-14026960D02*
X15246253Y-14036484D01*
X15246253Y-14036484D02*
X15236729Y-14026960D01*
X15236729Y-14026960D02*
X15246253Y-14017436D01*
X15246253Y-14017436D02*
X15246253Y-14036484D01*
X15427205Y-13903150D02*
X15427205Y-14036484D01*
X15379586Y-13826960D02*
X15331967Y-13969817D01*
X15331967Y-13969817D02*
X15455777Y-13969817D01*
X15570062Y-13836484D02*
X15589110Y-13836484D01*
X15589110Y-13836484D02*
X15608158Y-13846008D01*
X15608158Y-13846008D02*
X15617682Y-13855531D01*
X15617682Y-13855531D02*
X15627205Y-13874579D01*
X15627205Y-13874579D02*
X15636729Y-13912674D01*
X15636729Y-13912674D02*
X15636729Y-13960293D01*
X15636729Y-13960293D02*
X15627205Y-13998388D01*
X15627205Y-13998388D02*
X15617682Y-14017436D01*
X15617682Y-14017436D02*
X15608158Y-14026960D01*
X15608158Y-14026960D02*
X15589110Y-14036484D01*
X15589110Y-14036484D02*
X15570062Y-14036484D01*
X15570062Y-14036484D02*
X15551015Y-14026960D01*
X15551015Y-14026960D02*
X15541491Y-14017436D01*
X15541491Y-14017436D02*
X15531967Y-13998388D01*
X15531967Y-13998388D02*
X15522443Y-13960293D01*
X15522443Y-13960293D02*
X15522443Y-13912674D01*
X15522443Y-13912674D02*
X15531967Y-13874579D01*
X15531967Y-13874579D02*
X15541491Y-13855531D01*
X15541491Y-13855531D02*
X15551015Y-13846008D01*
X15551015Y-13846008D02*
X15570062Y-13836484D01*
X15760539Y-13836484D02*
X15779586Y-13836484D01*
X15779586Y-13836484D02*
X15798634Y-13846008D01*
X15798634Y-13846008D02*
X15808158Y-13855531D01*
X15808158Y-13855531D02*
X15817682Y-13874579D01*
X15817682Y-13874579D02*
X15827205Y-13912674D01*
X15827205Y-13912674D02*
X15827205Y-13960293D01*
X15827205Y-13960293D02*
X15817682Y-13998388D01*
X15817682Y-13998388D02*
X15808158Y-14017436D01*
X15808158Y-14017436D02*
X15798634Y-14026960D01*
X15798634Y-14026960D02*
X15779586Y-14036484D01*
X15779586Y-14036484D02*
X15760539Y-14036484D01*
X15760539Y-14036484D02*
X15741491Y-14026960D01*
X15741491Y-14026960D02*
X15731967Y-14017436D01*
X15731967Y-14017436D02*
X15722443Y-13998388D01*
X15722443Y-13998388D02*
X15712920Y-13960293D01*
X15712920Y-13960293D02*
X15712920Y-13912674D01*
X15712920Y-13912674D02*
X15722443Y-13874579D01*
X15722443Y-13874579D02*
X15731967Y-13855531D01*
X15731967Y-13855531D02*
X15741491Y-13846008D01*
X15741491Y-13846008D02*
X15760539Y-13836484D01*
X15912920Y-14036484D02*
X15912920Y-13903150D01*
X15912920Y-13922198D02*
X15922443Y-13912674D01*
X15922443Y-13912674D02*
X15941491Y-13903150D01*
X15941491Y-13903150D02*
X15970063Y-13903150D01*
X15970063Y-13903150D02*
X15989110Y-13912674D01*
X15989110Y-13912674D02*
X15998634Y-13931722D01*
X15998634Y-13931722D02*
X15998634Y-14036484D01*
X15998634Y-13931722D02*
X16008158Y-13912674D01*
X16008158Y-13912674D02*
X16027205Y-13903150D01*
X16027205Y-13903150D02*
X16055777Y-13903150D01*
X16055777Y-13903150D02*
X16074824Y-13912674D01*
X16074824Y-13912674D02*
X16084348Y-13931722D01*
X16084348Y-13931722D02*
X16084348Y-14036484D01*
X16179586Y-14036484D02*
X16179586Y-13903150D01*
X16179586Y-13922198D02*
X16189110Y-13912674D01*
X16189110Y-13912674D02*
X16208158Y-13903150D01*
X16208158Y-13903150D02*
X16236729Y-13903150D01*
X16236729Y-13903150D02*
X16255777Y-13912674D01*
X16255777Y-13912674D02*
X16265301Y-13931722D01*
X16265301Y-13931722D02*
X16265301Y-14036484D01*
X16265301Y-13931722D02*
X16274824Y-13912674D01*
X16274824Y-13912674D02*
X16293872Y-13903150D01*
X16293872Y-13903150D02*
X16322443Y-13903150D01*
X16322443Y-13903150D02*
X16341491Y-13912674D01*
X16341491Y-13912674D02*
X16351015Y-13931722D01*
X16351015Y-13931722D02*
X16351015Y-14036484D01*
X16741491Y-13826960D02*
X16570063Y-14084103D01*
X16998634Y-13836484D02*
X17017682Y-13836484D01*
X17017682Y-13836484D02*
X17036729Y-13846008D01*
X17036729Y-13846008D02*
X17046253Y-13855531D01*
X17046253Y-13855531D02*
X17055777Y-13874579D01*
X17055777Y-13874579D02*
X17065301Y-13912674D01*
X17065301Y-13912674D02*
X17065301Y-13960293D01*
X17065301Y-13960293D02*
X17055777Y-13998388D01*
X17055777Y-13998388D02*
X17046253Y-14017436D01*
X17046253Y-14017436D02*
X17036729Y-14026960D01*
X17036729Y-14026960D02*
X17017682Y-14036484D01*
X17017682Y-14036484D02*
X16998634Y-14036484D01*
X16998634Y-14036484D02*
X16979587Y-14026960D01*
X16979587Y-14026960D02*
X16970063Y-14017436D01*
X16970063Y-14017436D02*
X16960539Y-13998388D01*
X16960539Y-13998388D02*
X16951015Y-13960293D01*
X16951015Y-13960293D02*
X16951015Y-13912674D01*
X16951015Y-13912674D02*
X16960539Y-13874579D01*
X16960539Y-13874579D02*
X16970063Y-13855531D01*
X16970063Y-13855531D02*
X16979587Y-13846008D01*
X16979587Y-13846008D02*
X16998634Y-13836484D01*
X17151015Y-14017436D02*
X17160539Y-14026960D01*
X17160539Y-14026960D02*
X17151015Y-14036484D01*
X17151015Y-14036484D02*
X17141491Y-14026960D01*
X17141491Y-14026960D02*
X17151015Y-14017436D01*
X17151015Y-14017436D02*
X17151015Y-14036484D01*
X17284348Y-13836484D02*
X17303396Y-13836484D01*
X17303396Y-13836484D02*
X17322444Y-13846008D01*
X17322444Y-13846008D02*
X17331968Y-13855531D01*
X17331968Y-13855531D02*
X17341491Y-13874579D01*
X17341491Y-13874579D02*
X17351015Y-13912674D01*
X17351015Y-13912674D02*
X17351015Y-13960293D01*
X17351015Y-13960293D02*
X17341491Y-13998388D01*
X17341491Y-13998388D02*
X17331968Y-14017436D01*
X17331968Y-14017436D02*
X17322444Y-14026960D01*
X17322444Y-14026960D02*
X17303396Y-14036484D01*
X17303396Y-14036484D02*
X17284348Y-14036484D01*
X17284348Y-14036484D02*
X17265301Y-14026960D01*
X17265301Y-14026960D02*
X17255777Y-14017436D01*
X17255777Y-14017436D02*
X17246253Y-13998388D01*
X17246253Y-13998388D02*
X17236729Y-13960293D01*
X17236729Y-13960293D02*
X17236729Y-13912674D01*
X17236729Y-13912674D02*
X17246253Y-13874579D01*
X17246253Y-13874579D02*
X17255777Y-13855531D01*
X17255777Y-13855531D02*
X17265301Y-13846008D01*
X17265301Y-13846008D02*
X17284348Y-13836484D01*
X17541491Y-14036484D02*
X17427206Y-14036484D01*
X17484348Y-14036484D02*
X17484348Y-13836484D01*
X17484348Y-13836484D02*
X17465301Y-13865055D01*
X17465301Y-13865055D02*
X17446253Y-13884103D01*
X17446253Y-13884103D02*
X17427206Y-13893627D01*
X17722444Y-13836484D02*
X17627206Y-13836484D01*
X17627206Y-13836484D02*
X17617682Y-13931722D01*
X17617682Y-13931722D02*
X17627206Y-13922198D01*
X17627206Y-13922198D02*
X17646253Y-13912674D01*
X17646253Y-13912674D02*
X17693872Y-13912674D01*
X17693872Y-13912674D02*
X17712920Y-13922198D01*
X17712920Y-13922198D02*
X17722444Y-13931722D01*
X17722444Y-13931722D02*
X17731968Y-13950769D01*
X17731968Y-13950769D02*
X17731968Y-13998388D01*
X17731968Y-13998388D02*
X17722444Y-14017436D01*
X17722444Y-14017436D02*
X17712920Y-14026960D01*
X17712920Y-14026960D02*
X17693872Y-14036484D01*
X17693872Y-14036484D02*
X17646253Y-14036484D01*
X17646253Y-14036484D02*
X17627206Y-14026960D01*
X17627206Y-14026960D02*
X17617682Y-14017436D01*
X17798634Y-13836484D02*
X17931968Y-13836484D01*
X17931968Y-13836484D02*
X17846253Y-14036484D01*
X17998634Y-13836484D02*
X17998634Y-13874579D01*
X18074825Y-13836484D02*
X18074825Y-13874579D01*
X18370063Y-14112674D02*
X18360539Y-14103150D01*
X18360539Y-14103150D02*
X18341491Y-14074579D01*
X18341491Y-14074579D02*
X18331968Y-14055531D01*
X18331968Y-14055531D02*
X18322444Y-14026960D01*
X18322444Y-14026960D02*
X18312920Y-13979341D01*
X18312920Y-13979341D02*
X18312920Y-13941246D01*
X18312920Y-13941246D02*
X18322444Y-13893627D01*
X18322444Y-13893627D02*
X18331968Y-13865055D01*
X18331968Y-13865055D02*
X18341491Y-13846008D01*
X18341491Y-13846008D02*
X18360539Y-13817436D01*
X18360539Y-13817436D02*
X18370063Y-13807912D01*
X18436730Y-13855531D02*
X18446253Y-13846008D01*
X18446253Y-13846008D02*
X18465301Y-13836484D01*
X18465301Y-13836484D02*
X18512920Y-13836484D01*
X18512920Y-13836484D02*
X18531968Y-13846008D01*
X18531968Y-13846008D02*
X18541491Y-13855531D01*
X18541491Y-13855531D02*
X18551015Y-13874579D01*
X18551015Y-13874579D02*
X18551015Y-13893627D01*
X18551015Y-13893627D02*
X18541491Y-13922198D01*
X18541491Y-13922198D02*
X18427206Y-14036484D01*
X18427206Y-14036484D02*
X18551015Y-14036484D01*
X18789111Y-14036484D02*
X18789111Y-13836484D01*
X18874825Y-14036484D02*
X18874825Y-13931722D01*
X18874825Y-13931722D02*
X18865301Y-13912674D01*
X18865301Y-13912674D02*
X18846253Y-13903150D01*
X18846253Y-13903150D02*
X18817682Y-13903150D01*
X18817682Y-13903150D02*
X18798634Y-13912674D01*
X18798634Y-13912674D02*
X18789111Y-13922198D01*
X18998634Y-14036484D02*
X18979587Y-14026960D01*
X18979587Y-14026960D02*
X18970063Y-14017436D01*
X18970063Y-14017436D02*
X18960539Y-13998388D01*
X18960539Y-13998388D02*
X18960539Y-13941246D01*
X18960539Y-13941246D02*
X18970063Y-13922198D01*
X18970063Y-13922198D02*
X18979587Y-13912674D01*
X18979587Y-13912674D02*
X18998634Y-13903150D01*
X18998634Y-13903150D02*
X19027206Y-13903150D01*
X19027206Y-13903150D02*
X19046253Y-13912674D01*
X19046253Y-13912674D02*
X19055777Y-13922198D01*
X19055777Y-13922198D02*
X19065301Y-13941246D01*
X19065301Y-13941246D02*
X19065301Y-13998388D01*
X19065301Y-13998388D02*
X19055777Y-14017436D01*
X19055777Y-14017436D02*
X19046253Y-14026960D01*
X19046253Y-14026960D02*
X19027206Y-14036484D01*
X19027206Y-14036484D02*
X18998634Y-14036484D01*
X19179587Y-14036484D02*
X19160539Y-14026960D01*
X19160539Y-14026960D02*
X19151015Y-14007912D01*
X19151015Y-14007912D02*
X19151015Y-13836484D01*
X19331968Y-14026960D02*
X19312920Y-14036484D01*
X19312920Y-14036484D02*
X19274825Y-14036484D01*
X19274825Y-14036484D02*
X19255777Y-14026960D01*
X19255777Y-14026960D02*
X19246253Y-14007912D01*
X19246253Y-14007912D02*
X19246253Y-13931722D01*
X19246253Y-13931722D02*
X19255777Y-13912674D01*
X19255777Y-13912674D02*
X19274825Y-13903150D01*
X19274825Y-13903150D02*
X19312920Y-13903150D01*
X19312920Y-13903150D02*
X19331968Y-13912674D01*
X19331968Y-13912674D02*
X19341492Y-13931722D01*
X19341492Y-13931722D02*
X19341492Y-13950769D01*
X19341492Y-13950769D02*
X19246253Y-13969817D01*
X19417682Y-14026960D02*
X19436730Y-14036484D01*
X19436730Y-14036484D02*
X19474825Y-14036484D01*
X19474825Y-14036484D02*
X19493873Y-14026960D01*
X19493873Y-14026960D02*
X19503396Y-14007912D01*
X19503396Y-14007912D02*
X19503396Y-13998388D01*
X19503396Y-13998388D02*
X19493873Y-13979341D01*
X19493873Y-13979341D02*
X19474825Y-13969817D01*
X19474825Y-13969817D02*
X19446253Y-13969817D01*
X19446253Y-13969817D02*
X19427206Y-13960293D01*
X19427206Y-13960293D02*
X19417682Y-13941246D01*
X19417682Y-13941246D02*
X19417682Y-13931722D01*
X19417682Y-13931722D02*
X19427206Y-13912674D01*
X19427206Y-13912674D02*
X19446253Y-13903150D01*
X19446253Y-13903150D02*
X19474825Y-13903150D01*
X19474825Y-13903150D02*
X19493873Y-13912674D01*
X19570063Y-14112674D02*
X19579587Y-14103150D01*
X19579587Y-14103150D02*
X19598634Y-14074579D01*
X19598634Y-14074579D02*
X19608158Y-14055531D01*
X19608158Y-14055531D02*
X19617682Y-14026960D01*
X19617682Y-14026960D02*
X19627206Y-13979341D01*
X19627206Y-13979341D02*
X19627206Y-13941246D01*
X19627206Y-13941246D02*
X19617682Y-13893627D01*
X19617682Y-13893627D02*
X19608158Y-13865055D01*
X19608158Y-13865055D02*
X19598634Y-13846008D01*
X19598634Y-13846008D02*
X19579587Y-13817436D01*
X19579587Y-13817436D02*
X19570063Y-13807912D01*
D13*
X14795000Y-14209000D02*
G75*
G03*
X14795000Y-14209000I-30000J0D01*
G01*
D11*
X15093872Y-14100484D02*
X15112920Y-14100484D01*
X15112920Y-14100484D02*
X15131967Y-14110008D01*
X15131967Y-14110008D02*
X15141491Y-14119531D01*
X15141491Y-14119531D02*
X15151015Y-14138579D01*
X15151015Y-14138579D02*
X15160539Y-14176674D01*
X15160539Y-14176674D02*
X15160539Y-14224293D01*
X15160539Y-14224293D02*
X15151015Y-14262388D01*
X15151015Y-14262388D02*
X15141491Y-14281436D01*
X15141491Y-14281436D02*
X15131967Y-14290960D01*
X15131967Y-14290960D02*
X15112920Y-14300484D01*
X15112920Y-14300484D02*
X15093872Y-14300484D01*
X15093872Y-14300484D02*
X15074824Y-14290960D01*
X15074824Y-14290960D02*
X15065301Y-14281436D01*
X15065301Y-14281436D02*
X15055777Y-14262388D01*
X15055777Y-14262388D02*
X15046253Y-14224293D01*
X15046253Y-14224293D02*
X15046253Y-14176674D01*
X15046253Y-14176674D02*
X15055777Y-14138579D01*
X15055777Y-14138579D02*
X15065301Y-14119531D01*
X15065301Y-14119531D02*
X15074824Y-14110008D01*
X15074824Y-14110008D02*
X15093872Y-14100484D01*
X15246253Y-14281436D02*
X15255777Y-14290960D01*
X15255777Y-14290960D02*
X15246253Y-14300484D01*
X15246253Y-14300484D02*
X15236729Y-14290960D01*
X15236729Y-14290960D02*
X15246253Y-14281436D01*
X15246253Y-14281436D02*
X15246253Y-14300484D01*
X15427205Y-14100484D02*
X15389110Y-14100484D01*
X15389110Y-14100484D02*
X15370062Y-14110008D01*
X15370062Y-14110008D02*
X15360539Y-14119531D01*
X15360539Y-14119531D02*
X15341491Y-14148103D01*
X15341491Y-14148103D02*
X15331967Y-14186198D01*
X15331967Y-14186198D02*
X15331967Y-14262388D01*
X15331967Y-14262388D02*
X15341491Y-14281436D01*
X15341491Y-14281436D02*
X15351015Y-14290960D01*
X15351015Y-14290960D02*
X15370062Y-14300484D01*
X15370062Y-14300484D02*
X15408158Y-14300484D01*
X15408158Y-14300484D02*
X15427205Y-14290960D01*
X15427205Y-14290960D02*
X15436729Y-14281436D01*
X15436729Y-14281436D02*
X15446253Y-14262388D01*
X15446253Y-14262388D02*
X15446253Y-14214769D01*
X15446253Y-14214769D02*
X15436729Y-14195722D01*
X15436729Y-14195722D02*
X15427205Y-14186198D01*
X15427205Y-14186198D02*
X15408158Y-14176674D01*
X15408158Y-14176674D02*
X15370062Y-14176674D01*
X15370062Y-14176674D02*
X15351015Y-14186198D01*
X15351015Y-14186198D02*
X15341491Y-14195722D01*
X15341491Y-14195722D02*
X15331967Y-14214769D01*
X15570062Y-14100484D02*
X15589110Y-14100484D01*
X15589110Y-14100484D02*
X15608158Y-14110008D01*
X15608158Y-14110008D02*
X15617682Y-14119531D01*
X15617682Y-14119531D02*
X15627205Y-14138579D01*
X15627205Y-14138579D02*
X15636729Y-14176674D01*
X15636729Y-14176674D02*
X15636729Y-14224293D01*
X15636729Y-14224293D02*
X15627205Y-14262388D01*
X15627205Y-14262388D02*
X15617682Y-14281436D01*
X15617682Y-14281436D02*
X15608158Y-14290960D01*
X15608158Y-14290960D02*
X15589110Y-14300484D01*
X15589110Y-14300484D02*
X15570062Y-14300484D01*
X15570062Y-14300484D02*
X15551015Y-14290960D01*
X15551015Y-14290960D02*
X15541491Y-14281436D01*
X15541491Y-14281436D02*
X15531967Y-14262388D01*
X15531967Y-14262388D02*
X15522443Y-14224293D01*
X15522443Y-14224293D02*
X15522443Y-14176674D01*
X15522443Y-14176674D02*
X15531967Y-14138579D01*
X15531967Y-14138579D02*
X15541491Y-14119531D01*
X15541491Y-14119531D02*
X15551015Y-14110008D01*
X15551015Y-14110008D02*
X15570062Y-14100484D01*
X15760539Y-14100484D02*
X15779586Y-14100484D01*
X15779586Y-14100484D02*
X15798634Y-14110008D01*
X15798634Y-14110008D02*
X15808158Y-14119531D01*
X15808158Y-14119531D02*
X15817682Y-14138579D01*
X15817682Y-14138579D02*
X15827205Y-14176674D01*
X15827205Y-14176674D02*
X15827205Y-14224293D01*
X15827205Y-14224293D02*
X15817682Y-14262388D01*
X15817682Y-14262388D02*
X15808158Y-14281436D01*
X15808158Y-14281436D02*
X15798634Y-14290960D01*
X15798634Y-14290960D02*
X15779586Y-14300484D01*
X15779586Y-14300484D02*
X15760539Y-14300484D01*
X15760539Y-14300484D02*
X15741491Y-14290960D01*
X15741491Y-14290960D02*
X15731967Y-14281436D01*
X15731967Y-14281436D02*
X15722443Y-14262388D01*
X15722443Y-14262388D02*
X15712920Y-14224293D01*
X15712920Y-14224293D02*
X15712920Y-14176674D01*
X15712920Y-14176674D02*
X15722443Y-14138579D01*
X15722443Y-14138579D02*
X15731967Y-14119531D01*
X15731967Y-14119531D02*
X15741491Y-14110008D01*
X15741491Y-14110008D02*
X15760539Y-14100484D01*
X15912920Y-14300484D02*
X15912920Y-14167150D01*
X15912920Y-14186198D02*
X15922443Y-14176674D01*
X15922443Y-14176674D02*
X15941491Y-14167150D01*
X15941491Y-14167150D02*
X15970063Y-14167150D01*
X15970063Y-14167150D02*
X15989110Y-14176674D01*
X15989110Y-14176674D02*
X15998634Y-14195722D01*
X15998634Y-14195722D02*
X15998634Y-14300484D01*
X15998634Y-14195722D02*
X16008158Y-14176674D01*
X16008158Y-14176674D02*
X16027205Y-14167150D01*
X16027205Y-14167150D02*
X16055777Y-14167150D01*
X16055777Y-14167150D02*
X16074824Y-14176674D01*
X16074824Y-14176674D02*
X16084348Y-14195722D01*
X16084348Y-14195722D02*
X16084348Y-14300484D01*
X16179586Y-14300484D02*
X16179586Y-14167150D01*
X16179586Y-14186198D02*
X16189110Y-14176674D01*
X16189110Y-14176674D02*
X16208158Y-14167150D01*
X16208158Y-14167150D02*
X16236729Y-14167150D01*
X16236729Y-14167150D02*
X16255777Y-14176674D01*
X16255777Y-14176674D02*
X16265301Y-14195722D01*
X16265301Y-14195722D02*
X16265301Y-14300484D01*
X16265301Y-14195722D02*
X16274824Y-14176674D01*
X16274824Y-14176674D02*
X16293872Y-14167150D01*
X16293872Y-14167150D02*
X16322443Y-14167150D01*
X16322443Y-14167150D02*
X16341491Y-14176674D01*
X16341491Y-14176674D02*
X16351015Y-14195722D01*
X16351015Y-14195722D02*
X16351015Y-14300484D01*
X16741491Y-14090960D02*
X16570063Y-14348103D01*
X16998634Y-14100484D02*
X17017682Y-14100484D01*
X17017682Y-14100484D02*
X17036729Y-14110008D01*
X17036729Y-14110008D02*
X17046253Y-14119531D01*
X17046253Y-14119531D02*
X17055777Y-14138579D01*
X17055777Y-14138579D02*
X17065301Y-14176674D01*
X17065301Y-14176674D02*
X17065301Y-14224293D01*
X17065301Y-14224293D02*
X17055777Y-14262388D01*
X17055777Y-14262388D02*
X17046253Y-14281436D01*
X17046253Y-14281436D02*
X17036729Y-14290960D01*
X17036729Y-14290960D02*
X17017682Y-14300484D01*
X17017682Y-14300484D02*
X16998634Y-14300484D01*
X16998634Y-14300484D02*
X16979587Y-14290960D01*
X16979587Y-14290960D02*
X16970063Y-14281436D01*
X16970063Y-14281436D02*
X16960539Y-14262388D01*
X16960539Y-14262388D02*
X16951015Y-14224293D01*
X16951015Y-14224293D02*
X16951015Y-14176674D01*
X16951015Y-14176674D02*
X16960539Y-14138579D01*
X16960539Y-14138579D02*
X16970063Y-14119531D01*
X16970063Y-14119531D02*
X16979587Y-14110008D01*
X16979587Y-14110008D02*
X16998634Y-14100484D01*
X17151015Y-14281436D02*
X17160539Y-14290960D01*
X17160539Y-14290960D02*
X17151015Y-14300484D01*
X17151015Y-14300484D02*
X17141491Y-14290960D01*
X17141491Y-14290960D02*
X17151015Y-14281436D01*
X17151015Y-14281436D02*
X17151015Y-14300484D01*
X17284348Y-14100484D02*
X17303396Y-14100484D01*
X17303396Y-14100484D02*
X17322444Y-14110008D01*
X17322444Y-14110008D02*
X17331968Y-14119531D01*
X17331968Y-14119531D02*
X17341491Y-14138579D01*
X17341491Y-14138579D02*
X17351015Y-14176674D01*
X17351015Y-14176674D02*
X17351015Y-14224293D01*
X17351015Y-14224293D02*
X17341491Y-14262388D01*
X17341491Y-14262388D02*
X17331968Y-14281436D01*
X17331968Y-14281436D02*
X17322444Y-14290960D01*
X17322444Y-14290960D02*
X17303396Y-14300484D01*
X17303396Y-14300484D02*
X17284348Y-14300484D01*
X17284348Y-14300484D02*
X17265301Y-14290960D01*
X17265301Y-14290960D02*
X17255777Y-14281436D01*
X17255777Y-14281436D02*
X17246253Y-14262388D01*
X17246253Y-14262388D02*
X17236729Y-14224293D01*
X17236729Y-14224293D02*
X17236729Y-14176674D01*
X17236729Y-14176674D02*
X17246253Y-14138579D01*
X17246253Y-14138579D02*
X17255777Y-14119531D01*
X17255777Y-14119531D02*
X17265301Y-14110008D01*
X17265301Y-14110008D02*
X17284348Y-14100484D01*
X17427206Y-14119531D02*
X17436729Y-14110008D01*
X17436729Y-14110008D02*
X17455777Y-14100484D01*
X17455777Y-14100484D02*
X17503396Y-14100484D01*
X17503396Y-14100484D02*
X17522444Y-14110008D01*
X17522444Y-14110008D02*
X17531968Y-14119531D01*
X17531968Y-14119531D02*
X17541491Y-14138579D01*
X17541491Y-14138579D02*
X17541491Y-14157627D01*
X17541491Y-14157627D02*
X17531968Y-14186198D01*
X17531968Y-14186198D02*
X17417682Y-14300484D01*
X17417682Y-14300484D02*
X17541491Y-14300484D01*
X17608158Y-14100484D02*
X17731968Y-14100484D01*
X17731968Y-14100484D02*
X17665301Y-14176674D01*
X17665301Y-14176674D02*
X17693872Y-14176674D01*
X17693872Y-14176674D02*
X17712920Y-14186198D01*
X17712920Y-14186198D02*
X17722444Y-14195722D01*
X17722444Y-14195722D02*
X17731968Y-14214769D01*
X17731968Y-14214769D02*
X17731968Y-14262388D01*
X17731968Y-14262388D02*
X17722444Y-14281436D01*
X17722444Y-14281436D02*
X17712920Y-14290960D01*
X17712920Y-14290960D02*
X17693872Y-14300484D01*
X17693872Y-14300484D02*
X17636729Y-14300484D01*
X17636729Y-14300484D02*
X17617682Y-14290960D01*
X17617682Y-14290960D02*
X17608158Y-14281436D01*
X17903396Y-14100484D02*
X17865301Y-14100484D01*
X17865301Y-14100484D02*
X17846253Y-14110008D01*
X17846253Y-14110008D02*
X17836729Y-14119531D01*
X17836729Y-14119531D02*
X17817682Y-14148103D01*
X17817682Y-14148103D02*
X17808158Y-14186198D01*
X17808158Y-14186198D02*
X17808158Y-14262388D01*
X17808158Y-14262388D02*
X17817682Y-14281436D01*
X17817682Y-14281436D02*
X17827206Y-14290960D01*
X17827206Y-14290960D02*
X17846253Y-14300484D01*
X17846253Y-14300484D02*
X17884349Y-14300484D01*
X17884349Y-14300484D02*
X17903396Y-14290960D01*
X17903396Y-14290960D02*
X17912920Y-14281436D01*
X17912920Y-14281436D02*
X17922444Y-14262388D01*
X17922444Y-14262388D02*
X17922444Y-14214769D01*
X17922444Y-14214769D02*
X17912920Y-14195722D01*
X17912920Y-14195722D02*
X17903396Y-14186198D01*
X17903396Y-14186198D02*
X17884349Y-14176674D01*
X17884349Y-14176674D02*
X17846253Y-14176674D01*
X17846253Y-14176674D02*
X17827206Y-14186198D01*
X17827206Y-14186198D02*
X17817682Y-14195722D01*
X17817682Y-14195722D02*
X17808158Y-14214769D01*
X17998634Y-14100484D02*
X17998634Y-14138579D01*
X18074825Y-14100484D02*
X18074825Y-14138579D01*
X18370063Y-14376674D02*
X18360539Y-14367150D01*
X18360539Y-14367150D02*
X18341491Y-14338579D01*
X18341491Y-14338579D02*
X18331968Y-14319531D01*
X18331968Y-14319531D02*
X18322444Y-14290960D01*
X18322444Y-14290960D02*
X18312920Y-14243341D01*
X18312920Y-14243341D02*
X18312920Y-14205246D01*
X18312920Y-14205246D02*
X18322444Y-14157627D01*
X18322444Y-14157627D02*
X18331968Y-14129055D01*
X18331968Y-14129055D02*
X18341491Y-14110008D01*
X18341491Y-14110008D02*
X18360539Y-14081436D01*
X18360539Y-14081436D02*
X18370063Y-14071912D01*
X18551015Y-14300484D02*
X18436730Y-14300484D01*
X18493872Y-14300484D02*
X18493872Y-14100484D01*
X18493872Y-14100484D02*
X18474825Y-14129055D01*
X18474825Y-14129055D02*
X18455777Y-14148103D01*
X18455777Y-14148103D02*
X18436730Y-14157627D01*
X18674825Y-14100484D02*
X18693872Y-14100484D01*
X18693872Y-14100484D02*
X18712920Y-14110008D01*
X18712920Y-14110008D02*
X18722444Y-14119531D01*
X18722444Y-14119531D02*
X18731968Y-14138579D01*
X18731968Y-14138579D02*
X18741491Y-14176674D01*
X18741491Y-14176674D02*
X18741491Y-14224293D01*
X18741491Y-14224293D02*
X18731968Y-14262388D01*
X18731968Y-14262388D02*
X18722444Y-14281436D01*
X18722444Y-14281436D02*
X18712920Y-14290960D01*
X18712920Y-14290960D02*
X18693872Y-14300484D01*
X18693872Y-14300484D02*
X18674825Y-14300484D01*
X18674825Y-14300484D02*
X18655777Y-14290960D01*
X18655777Y-14290960D02*
X18646253Y-14281436D01*
X18646253Y-14281436D02*
X18636730Y-14262388D01*
X18636730Y-14262388D02*
X18627206Y-14224293D01*
X18627206Y-14224293D02*
X18627206Y-14176674D01*
X18627206Y-14176674D02*
X18636730Y-14138579D01*
X18636730Y-14138579D02*
X18646253Y-14119531D01*
X18646253Y-14119531D02*
X18655777Y-14110008D01*
X18655777Y-14110008D02*
X18674825Y-14100484D01*
X18979587Y-14300484D02*
X18979587Y-14100484D01*
X19065301Y-14300484D02*
X19065301Y-14195722D01*
X19065301Y-14195722D02*
X19055777Y-14176674D01*
X19055777Y-14176674D02*
X19036730Y-14167150D01*
X19036730Y-14167150D02*
X19008158Y-14167150D01*
X19008158Y-14167150D02*
X18989111Y-14176674D01*
X18989111Y-14176674D02*
X18979587Y-14186198D01*
X19189111Y-14300484D02*
X19170063Y-14290960D01*
X19170063Y-14290960D02*
X19160539Y-14281436D01*
X19160539Y-14281436D02*
X19151015Y-14262388D01*
X19151015Y-14262388D02*
X19151015Y-14205246D01*
X19151015Y-14205246D02*
X19160539Y-14186198D01*
X19160539Y-14186198D02*
X19170063Y-14176674D01*
X19170063Y-14176674D02*
X19189111Y-14167150D01*
X19189111Y-14167150D02*
X19217682Y-14167150D01*
X19217682Y-14167150D02*
X19236730Y-14176674D01*
X19236730Y-14176674D02*
X19246253Y-14186198D01*
X19246253Y-14186198D02*
X19255777Y-14205246D01*
X19255777Y-14205246D02*
X19255777Y-14262388D01*
X19255777Y-14262388D02*
X19246253Y-14281436D01*
X19246253Y-14281436D02*
X19236730Y-14290960D01*
X19236730Y-14290960D02*
X19217682Y-14300484D01*
X19217682Y-14300484D02*
X19189111Y-14300484D01*
X19370063Y-14300484D02*
X19351015Y-14290960D01*
X19351015Y-14290960D02*
X19341492Y-14271912D01*
X19341492Y-14271912D02*
X19341492Y-14100484D01*
X19522444Y-14290960D02*
X19503396Y-14300484D01*
X19503396Y-14300484D02*
X19465301Y-14300484D01*
X19465301Y-14300484D02*
X19446253Y-14290960D01*
X19446253Y-14290960D02*
X19436730Y-14271912D01*
X19436730Y-14271912D02*
X19436730Y-14195722D01*
X19436730Y-14195722D02*
X19446253Y-14176674D01*
X19446253Y-14176674D02*
X19465301Y-14167150D01*
X19465301Y-14167150D02*
X19503396Y-14167150D01*
X19503396Y-14167150D02*
X19522444Y-14176674D01*
X19522444Y-14176674D02*
X19531968Y-14195722D01*
X19531968Y-14195722D02*
X19531968Y-14214769D01*
X19531968Y-14214769D02*
X19436730Y-14233817D01*
X19608158Y-14290960D02*
X19627206Y-14300484D01*
X19627206Y-14300484D02*
X19665301Y-14300484D01*
X19665301Y-14300484D02*
X19684349Y-14290960D01*
X19684349Y-14290960D02*
X19693873Y-14271912D01*
X19693873Y-14271912D02*
X19693873Y-14262388D01*
X19693873Y-14262388D02*
X19684349Y-14243341D01*
X19684349Y-14243341D02*
X19665301Y-14233817D01*
X19665301Y-14233817D02*
X19636730Y-14233817D01*
X19636730Y-14233817D02*
X19617682Y-14224293D01*
X19617682Y-14224293D02*
X19608158Y-14205246D01*
X19608158Y-14205246D02*
X19608158Y-14195722D01*
X19608158Y-14195722D02*
X19617682Y-14176674D01*
X19617682Y-14176674D02*
X19636730Y-14167150D01*
X19636730Y-14167150D02*
X19665301Y-14167150D01*
X19665301Y-14167150D02*
X19684349Y-14176674D01*
X19760539Y-14376674D02*
X19770063Y-14367150D01*
X19770063Y-14367150D02*
X19789111Y-14338579D01*
X19789111Y-14338579D02*
X19798634Y-14319531D01*
X19798634Y-14319531D02*
X19808158Y-14290960D01*
X19808158Y-14290960D02*
X19817682Y-14243341D01*
X19817682Y-14243341D02*
X19817682Y-14205246D01*
X19817682Y-14205246D02*
X19808158Y-14157627D01*
X19808158Y-14157627D02*
X19798634Y-14129055D01*
X19798634Y-14129055D02*
X19789111Y-14110008D01*
X19789111Y-14110008D02*
X19770063Y-14081436D01*
X19770063Y-14081436D02*
X19760539Y-14071912D01*
D14*
X14755000Y-14433000D02*
X14755000Y-14513000D01*
X14715000Y-14473000D02*
X14795000Y-14473000D01*
D11*
X15093872Y-14364484D02*
X15112920Y-14364484D01*
X15112920Y-14364484D02*
X15131967Y-14374008D01*
X15131967Y-14374008D02*
X15141491Y-14383531D01*
X15141491Y-14383531D02*
X15151015Y-14402579D01*
X15151015Y-14402579D02*
X15160539Y-14440674D01*
X15160539Y-14440674D02*
X15160539Y-14488293D01*
X15160539Y-14488293D02*
X15151015Y-14526388D01*
X15151015Y-14526388D02*
X15141491Y-14545436D01*
X15141491Y-14545436D02*
X15131967Y-14554960D01*
X15131967Y-14554960D02*
X15112920Y-14564484D01*
X15112920Y-14564484D02*
X15093872Y-14564484D01*
X15093872Y-14564484D02*
X15074824Y-14554960D01*
X15074824Y-14554960D02*
X15065301Y-14545436D01*
X15065301Y-14545436D02*
X15055777Y-14526388D01*
X15055777Y-14526388D02*
X15046253Y-14488293D01*
X15046253Y-14488293D02*
X15046253Y-14440674D01*
X15046253Y-14440674D02*
X15055777Y-14402579D01*
X15055777Y-14402579D02*
X15065301Y-14383531D01*
X15065301Y-14383531D02*
X15074824Y-14374008D01*
X15074824Y-14374008D02*
X15093872Y-14364484D01*
X15246253Y-14545436D02*
X15255777Y-14554960D01*
X15255777Y-14554960D02*
X15246253Y-14564484D01*
X15246253Y-14564484D02*
X15236729Y-14554960D01*
X15236729Y-14554960D02*
X15246253Y-14545436D01*
X15246253Y-14545436D02*
X15246253Y-14564484D01*
X15370062Y-14450198D02*
X15351015Y-14440674D01*
X15351015Y-14440674D02*
X15341491Y-14431150D01*
X15341491Y-14431150D02*
X15331967Y-14412103D01*
X15331967Y-14412103D02*
X15331967Y-14402579D01*
X15331967Y-14402579D02*
X15341491Y-14383531D01*
X15341491Y-14383531D02*
X15351015Y-14374008D01*
X15351015Y-14374008D02*
X15370062Y-14364484D01*
X15370062Y-14364484D02*
X15408158Y-14364484D01*
X15408158Y-14364484D02*
X15427205Y-14374008D01*
X15427205Y-14374008D02*
X15436729Y-14383531D01*
X15436729Y-14383531D02*
X15446253Y-14402579D01*
X15446253Y-14402579D02*
X15446253Y-14412103D01*
X15446253Y-14412103D02*
X15436729Y-14431150D01*
X15436729Y-14431150D02*
X15427205Y-14440674D01*
X15427205Y-14440674D02*
X15408158Y-14450198D01*
X15408158Y-14450198D02*
X15370062Y-14450198D01*
X15370062Y-14450198D02*
X15351015Y-14459722D01*
X15351015Y-14459722D02*
X15341491Y-14469246D01*
X15341491Y-14469246D02*
X15331967Y-14488293D01*
X15331967Y-14488293D02*
X15331967Y-14526388D01*
X15331967Y-14526388D02*
X15341491Y-14545436D01*
X15341491Y-14545436D02*
X15351015Y-14554960D01*
X15351015Y-14554960D02*
X15370062Y-14564484D01*
X15370062Y-14564484D02*
X15408158Y-14564484D01*
X15408158Y-14564484D02*
X15427205Y-14554960D01*
X15427205Y-14554960D02*
X15436729Y-14545436D01*
X15436729Y-14545436D02*
X15446253Y-14526388D01*
X15446253Y-14526388D02*
X15446253Y-14488293D01*
X15446253Y-14488293D02*
X15436729Y-14469246D01*
X15436729Y-14469246D02*
X15427205Y-14459722D01*
X15427205Y-14459722D02*
X15408158Y-14450198D01*
X15570062Y-14364484D02*
X15589110Y-14364484D01*
X15589110Y-14364484D02*
X15608158Y-14374008D01*
X15608158Y-14374008D02*
X15617682Y-14383531D01*
X15617682Y-14383531D02*
X15627205Y-14402579D01*
X15627205Y-14402579D02*
X15636729Y-14440674D01*
X15636729Y-14440674D02*
X15636729Y-14488293D01*
X15636729Y-14488293D02*
X15627205Y-14526388D01*
X15627205Y-14526388D02*
X15617682Y-14545436D01*
X15617682Y-14545436D02*
X15608158Y-14554960D01*
X15608158Y-14554960D02*
X15589110Y-14564484D01*
X15589110Y-14564484D02*
X15570062Y-14564484D01*
X15570062Y-14564484D02*
X15551015Y-14554960D01*
X15551015Y-14554960D02*
X15541491Y-14545436D01*
X15541491Y-14545436D02*
X15531967Y-14526388D01*
X15531967Y-14526388D02*
X15522443Y-14488293D01*
X15522443Y-14488293D02*
X15522443Y-14440674D01*
X15522443Y-14440674D02*
X15531967Y-14402579D01*
X15531967Y-14402579D02*
X15541491Y-14383531D01*
X15541491Y-14383531D02*
X15551015Y-14374008D01*
X15551015Y-14374008D02*
X15570062Y-14364484D01*
X15760539Y-14364484D02*
X15779586Y-14364484D01*
X15779586Y-14364484D02*
X15798634Y-14374008D01*
X15798634Y-14374008D02*
X15808158Y-14383531D01*
X15808158Y-14383531D02*
X15817682Y-14402579D01*
X15817682Y-14402579D02*
X15827205Y-14440674D01*
X15827205Y-14440674D02*
X15827205Y-14488293D01*
X15827205Y-14488293D02*
X15817682Y-14526388D01*
X15817682Y-14526388D02*
X15808158Y-14545436D01*
X15808158Y-14545436D02*
X15798634Y-14554960D01*
X15798634Y-14554960D02*
X15779586Y-14564484D01*
X15779586Y-14564484D02*
X15760539Y-14564484D01*
X15760539Y-14564484D02*
X15741491Y-14554960D01*
X15741491Y-14554960D02*
X15731967Y-14545436D01*
X15731967Y-14545436D02*
X15722443Y-14526388D01*
X15722443Y-14526388D02*
X15712920Y-14488293D01*
X15712920Y-14488293D02*
X15712920Y-14440674D01*
X15712920Y-14440674D02*
X15722443Y-14402579D01*
X15722443Y-14402579D02*
X15731967Y-14383531D01*
X15731967Y-14383531D02*
X15741491Y-14374008D01*
X15741491Y-14374008D02*
X15760539Y-14364484D01*
X15912920Y-14564484D02*
X15912920Y-14431150D01*
X15912920Y-14450198D02*
X15922443Y-14440674D01*
X15922443Y-14440674D02*
X15941491Y-14431150D01*
X15941491Y-14431150D02*
X15970063Y-14431150D01*
X15970063Y-14431150D02*
X15989110Y-14440674D01*
X15989110Y-14440674D02*
X15998634Y-14459722D01*
X15998634Y-14459722D02*
X15998634Y-14564484D01*
X15998634Y-14459722D02*
X16008158Y-14440674D01*
X16008158Y-14440674D02*
X16027205Y-14431150D01*
X16027205Y-14431150D02*
X16055777Y-14431150D01*
X16055777Y-14431150D02*
X16074824Y-14440674D01*
X16074824Y-14440674D02*
X16084348Y-14459722D01*
X16084348Y-14459722D02*
X16084348Y-14564484D01*
X16179586Y-14564484D02*
X16179586Y-14431150D01*
X16179586Y-14450198D02*
X16189110Y-14440674D01*
X16189110Y-14440674D02*
X16208158Y-14431150D01*
X16208158Y-14431150D02*
X16236729Y-14431150D01*
X16236729Y-14431150D02*
X16255777Y-14440674D01*
X16255777Y-14440674D02*
X16265301Y-14459722D01*
X16265301Y-14459722D02*
X16265301Y-14564484D01*
X16265301Y-14459722D02*
X16274824Y-14440674D01*
X16274824Y-14440674D02*
X16293872Y-14431150D01*
X16293872Y-14431150D02*
X16322443Y-14431150D01*
X16322443Y-14431150D02*
X16341491Y-14440674D01*
X16341491Y-14440674D02*
X16351015Y-14459722D01*
X16351015Y-14459722D02*
X16351015Y-14564484D01*
X16741491Y-14354960D02*
X16570063Y-14612103D01*
X16998634Y-14364484D02*
X17017682Y-14364484D01*
X17017682Y-14364484D02*
X17036729Y-14374008D01*
X17036729Y-14374008D02*
X17046253Y-14383531D01*
X17046253Y-14383531D02*
X17055777Y-14402579D01*
X17055777Y-14402579D02*
X17065301Y-14440674D01*
X17065301Y-14440674D02*
X17065301Y-14488293D01*
X17065301Y-14488293D02*
X17055777Y-14526388D01*
X17055777Y-14526388D02*
X17046253Y-14545436D01*
X17046253Y-14545436D02*
X17036729Y-14554960D01*
X17036729Y-14554960D02*
X17017682Y-14564484D01*
X17017682Y-14564484D02*
X16998634Y-14564484D01*
X16998634Y-14564484D02*
X16979587Y-14554960D01*
X16979587Y-14554960D02*
X16970063Y-14545436D01*
X16970063Y-14545436D02*
X16960539Y-14526388D01*
X16960539Y-14526388D02*
X16951015Y-14488293D01*
X16951015Y-14488293D02*
X16951015Y-14440674D01*
X16951015Y-14440674D02*
X16960539Y-14402579D01*
X16960539Y-14402579D02*
X16970063Y-14383531D01*
X16970063Y-14383531D02*
X16979587Y-14374008D01*
X16979587Y-14374008D02*
X16998634Y-14364484D01*
X17151015Y-14545436D02*
X17160539Y-14554960D01*
X17160539Y-14554960D02*
X17151015Y-14564484D01*
X17151015Y-14564484D02*
X17141491Y-14554960D01*
X17141491Y-14554960D02*
X17151015Y-14545436D01*
X17151015Y-14545436D02*
X17151015Y-14564484D01*
X17284348Y-14364484D02*
X17303396Y-14364484D01*
X17303396Y-14364484D02*
X17322444Y-14374008D01*
X17322444Y-14374008D02*
X17331968Y-14383531D01*
X17331968Y-14383531D02*
X17341491Y-14402579D01*
X17341491Y-14402579D02*
X17351015Y-14440674D01*
X17351015Y-14440674D02*
X17351015Y-14488293D01*
X17351015Y-14488293D02*
X17341491Y-14526388D01*
X17341491Y-14526388D02*
X17331968Y-14545436D01*
X17331968Y-14545436D02*
X17322444Y-14554960D01*
X17322444Y-14554960D02*
X17303396Y-14564484D01*
X17303396Y-14564484D02*
X17284348Y-14564484D01*
X17284348Y-14564484D02*
X17265301Y-14554960D01*
X17265301Y-14554960D02*
X17255777Y-14545436D01*
X17255777Y-14545436D02*
X17246253Y-14526388D01*
X17246253Y-14526388D02*
X17236729Y-14488293D01*
X17236729Y-14488293D02*
X17236729Y-14440674D01*
X17236729Y-14440674D02*
X17246253Y-14402579D01*
X17246253Y-14402579D02*
X17255777Y-14383531D01*
X17255777Y-14383531D02*
X17265301Y-14374008D01*
X17265301Y-14374008D02*
X17284348Y-14364484D01*
X17417682Y-14364484D02*
X17541491Y-14364484D01*
X17541491Y-14364484D02*
X17474825Y-14440674D01*
X17474825Y-14440674D02*
X17503396Y-14440674D01*
X17503396Y-14440674D02*
X17522444Y-14450198D01*
X17522444Y-14450198D02*
X17531968Y-14459722D01*
X17531968Y-14459722D02*
X17541491Y-14478769D01*
X17541491Y-14478769D02*
X17541491Y-14526388D01*
X17541491Y-14526388D02*
X17531968Y-14545436D01*
X17531968Y-14545436D02*
X17522444Y-14554960D01*
X17522444Y-14554960D02*
X17503396Y-14564484D01*
X17503396Y-14564484D02*
X17446253Y-14564484D01*
X17446253Y-14564484D02*
X17427206Y-14554960D01*
X17427206Y-14554960D02*
X17417682Y-14545436D01*
X17731968Y-14564484D02*
X17617682Y-14564484D01*
X17674825Y-14564484D02*
X17674825Y-14364484D01*
X17674825Y-14364484D02*
X17655777Y-14393055D01*
X17655777Y-14393055D02*
X17636729Y-14412103D01*
X17636729Y-14412103D02*
X17617682Y-14421627D01*
X17912920Y-14364484D02*
X17817682Y-14364484D01*
X17817682Y-14364484D02*
X17808158Y-14459722D01*
X17808158Y-14459722D02*
X17817682Y-14450198D01*
X17817682Y-14450198D02*
X17836729Y-14440674D01*
X17836729Y-14440674D02*
X17884349Y-14440674D01*
X17884349Y-14440674D02*
X17903396Y-14450198D01*
X17903396Y-14450198D02*
X17912920Y-14459722D01*
X17912920Y-14459722D02*
X17922444Y-14478769D01*
X17922444Y-14478769D02*
X17922444Y-14526388D01*
X17922444Y-14526388D02*
X17912920Y-14545436D01*
X17912920Y-14545436D02*
X17903396Y-14554960D01*
X17903396Y-14554960D02*
X17884349Y-14564484D01*
X17884349Y-14564484D02*
X17836729Y-14564484D01*
X17836729Y-14564484D02*
X17817682Y-14554960D01*
X17817682Y-14554960D02*
X17808158Y-14545436D01*
X17998634Y-14364484D02*
X17998634Y-14402579D01*
X18074825Y-14364484D02*
X18074825Y-14402579D01*
X18370063Y-14640674D02*
X18360539Y-14631150D01*
X18360539Y-14631150D02*
X18341491Y-14602579D01*
X18341491Y-14602579D02*
X18331968Y-14583531D01*
X18331968Y-14583531D02*
X18322444Y-14554960D01*
X18322444Y-14554960D02*
X18312920Y-14507341D01*
X18312920Y-14507341D02*
X18312920Y-14469246D01*
X18312920Y-14469246D02*
X18322444Y-14421627D01*
X18322444Y-14421627D02*
X18331968Y-14393055D01*
X18331968Y-14393055D02*
X18341491Y-14374008D01*
X18341491Y-14374008D02*
X18360539Y-14345436D01*
X18360539Y-14345436D02*
X18370063Y-14335912D01*
X18541491Y-14364484D02*
X18446253Y-14364484D01*
X18446253Y-14364484D02*
X18436730Y-14459722D01*
X18436730Y-14459722D02*
X18446253Y-14450198D01*
X18446253Y-14450198D02*
X18465301Y-14440674D01*
X18465301Y-14440674D02*
X18512920Y-14440674D01*
X18512920Y-14440674D02*
X18531968Y-14450198D01*
X18531968Y-14450198D02*
X18541491Y-14459722D01*
X18541491Y-14459722D02*
X18551015Y-14478769D01*
X18551015Y-14478769D02*
X18551015Y-14526388D01*
X18551015Y-14526388D02*
X18541491Y-14545436D01*
X18541491Y-14545436D02*
X18531968Y-14554960D01*
X18531968Y-14554960D02*
X18512920Y-14564484D01*
X18512920Y-14564484D02*
X18465301Y-14564484D01*
X18465301Y-14564484D02*
X18446253Y-14554960D01*
X18446253Y-14554960D02*
X18436730Y-14545436D01*
X18617682Y-14364484D02*
X18751015Y-14364484D01*
X18751015Y-14364484D02*
X18665301Y-14564484D01*
X18979587Y-14564484D02*
X18979587Y-14364484D01*
X19065301Y-14564484D02*
X19065301Y-14459722D01*
X19065301Y-14459722D02*
X19055777Y-14440674D01*
X19055777Y-14440674D02*
X19036730Y-14431150D01*
X19036730Y-14431150D02*
X19008158Y-14431150D01*
X19008158Y-14431150D02*
X18989111Y-14440674D01*
X18989111Y-14440674D02*
X18979587Y-14450198D01*
X19189111Y-14564484D02*
X19170063Y-14554960D01*
X19170063Y-14554960D02*
X19160539Y-14545436D01*
X19160539Y-14545436D02*
X19151015Y-14526388D01*
X19151015Y-14526388D02*
X19151015Y-14469246D01*
X19151015Y-14469246D02*
X19160539Y-14450198D01*
X19160539Y-14450198D02*
X19170063Y-14440674D01*
X19170063Y-14440674D02*
X19189111Y-14431150D01*
X19189111Y-14431150D02*
X19217682Y-14431150D01*
X19217682Y-14431150D02*
X19236730Y-14440674D01*
X19236730Y-14440674D02*
X19246253Y-14450198D01*
X19246253Y-14450198D02*
X19255777Y-14469246D01*
X19255777Y-14469246D02*
X19255777Y-14526388D01*
X19255777Y-14526388D02*
X19246253Y-14545436D01*
X19246253Y-14545436D02*
X19236730Y-14554960D01*
X19236730Y-14554960D02*
X19217682Y-14564484D01*
X19217682Y-14564484D02*
X19189111Y-14564484D01*
X19370063Y-14564484D02*
X19351015Y-14554960D01*
X19351015Y-14554960D02*
X19341492Y-14535912D01*
X19341492Y-14535912D02*
X19341492Y-14364484D01*
X19522444Y-14554960D02*
X19503396Y-14564484D01*
X19503396Y-14564484D02*
X19465301Y-14564484D01*
X19465301Y-14564484D02*
X19446253Y-14554960D01*
X19446253Y-14554960D02*
X19436730Y-14535912D01*
X19436730Y-14535912D02*
X19436730Y-14459722D01*
X19436730Y-14459722D02*
X19446253Y-14440674D01*
X19446253Y-14440674D02*
X19465301Y-14431150D01*
X19465301Y-14431150D02*
X19503396Y-14431150D01*
X19503396Y-14431150D02*
X19522444Y-14440674D01*
X19522444Y-14440674D02*
X19531968Y-14459722D01*
X19531968Y-14459722D02*
X19531968Y-14478769D01*
X19531968Y-14478769D02*
X19436730Y-14497817D01*
X19608158Y-14554960D02*
X19627206Y-14564484D01*
X19627206Y-14564484D02*
X19665301Y-14564484D01*
X19665301Y-14564484D02*
X19684349Y-14554960D01*
X19684349Y-14554960D02*
X19693873Y-14535912D01*
X19693873Y-14535912D02*
X19693873Y-14526388D01*
X19693873Y-14526388D02*
X19684349Y-14507341D01*
X19684349Y-14507341D02*
X19665301Y-14497817D01*
X19665301Y-14497817D02*
X19636730Y-14497817D01*
X19636730Y-14497817D02*
X19617682Y-14488293D01*
X19617682Y-14488293D02*
X19608158Y-14469246D01*
X19608158Y-14469246D02*
X19608158Y-14459722D01*
X19608158Y-14459722D02*
X19617682Y-14440674D01*
X19617682Y-14440674D02*
X19636730Y-14431150D01*
X19636730Y-14431150D02*
X19665301Y-14431150D01*
X19665301Y-14431150D02*
X19684349Y-14440674D01*
X19760539Y-14640674D02*
X19770063Y-14631150D01*
X19770063Y-14631150D02*
X19789111Y-14602579D01*
X19789111Y-14602579D02*
X19798634Y-14583531D01*
X19798634Y-14583531D02*
X19808158Y-14554960D01*
X19808158Y-14554960D02*
X19817682Y-14507341D01*
X19817682Y-14507341D02*
X19817682Y-14469246D01*
X19817682Y-14469246D02*
X19808158Y-14421627D01*
X19808158Y-14421627D02*
X19798634Y-14393055D01*
X19798634Y-14393055D02*
X19789111Y-14374008D01*
X19789111Y-14374008D02*
X19770063Y-14345436D01*
X19770063Y-14345436D02*
X19760539Y-14335912D01*
D15*
X14781820Y-14768820D02*
X14781820Y-14705180D01*
X14718180Y-14705180D01*
X14718180Y-14768820D01*
X14781820Y-14768820D01*
D11*
X15093872Y-14628484D02*
X15112920Y-14628484D01*
X15112920Y-14628484D02*
X15131967Y-14638008D01*
X15131967Y-14638008D02*
X15141491Y-14647531D01*
X15141491Y-14647531D02*
X15151015Y-14666579D01*
X15151015Y-14666579D02*
X15160539Y-14704674D01*
X15160539Y-14704674D02*
X15160539Y-14752293D01*
X15160539Y-14752293D02*
X15151015Y-14790388D01*
X15151015Y-14790388D02*
X15141491Y-14809436D01*
X15141491Y-14809436D02*
X15131967Y-14818960D01*
X15131967Y-14818960D02*
X15112920Y-14828484D01*
X15112920Y-14828484D02*
X15093872Y-14828484D01*
X15093872Y-14828484D02*
X15074824Y-14818960D01*
X15074824Y-14818960D02*
X15065301Y-14809436D01*
X15065301Y-14809436D02*
X15055777Y-14790388D01*
X15055777Y-14790388D02*
X15046253Y-14752293D01*
X15046253Y-14752293D02*
X15046253Y-14704674D01*
X15046253Y-14704674D02*
X15055777Y-14666579D01*
X15055777Y-14666579D02*
X15065301Y-14647531D01*
X15065301Y-14647531D02*
X15074824Y-14638008D01*
X15074824Y-14638008D02*
X15093872Y-14628484D01*
X15246253Y-14809436D02*
X15255777Y-14818960D01*
X15255777Y-14818960D02*
X15246253Y-14828484D01*
X15246253Y-14828484D02*
X15236729Y-14818960D01*
X15236729Y-14818960D02*
X15246253Y-14809436D01*
X15246253Y-14809436D02*
X15246253Y-14828484D01*
X15351015Y-14828484D02*
X15389110Y-14828484D01*
X15389110Y-14828484D02*
X15408158Y-14818960D01*
X15408158Y-14818960D02*
X15417682Y-14809436D01*
X15417682Y-14809436D02*
X15436729Y-14780865D01*
X15436729Y-14780865D02*
X15446253Y-14742769D01*
X15446253Y-14742769D02*
X15446253Y-14666579D01*
X15446253Y-14666579D02*
X15436729Y-14647531D01*
X15436729Y-14647531D02*
X15427205Y-14638008D01*
X15427205Y-14638008D02*
X15408158Y-14628484D01*
X15408158Y-14628484D02*
X15370062Y-14628484D01*
X15370062Y-14628484D02*
X15351015Y-14638008D01*
X15351015Y-14638008D02*
X15341491Y-14647531D01*
X15341491Y-14647531D02*
X15331967Y-14666579D01*
X15331967Y-14666579D02*
X15331967Y-14714198D01*
X15331967Y-14714198D02*
X15341491Y-14733246D01*
X15341491Y-14733246D02*
X15351015Y-14742769D01*
X15351015Y-14742769D02*
X15370062Y-14752293D01*
X15370062Y-14752293D02*
X15408158Y-14752293D01*
X15408158Y-14752293D02*
X15427205Y-14742769D01*
X15427205Y-14742769D02*
X15436729Y-14733246D01*
X15436729Y-14733246D02*
X15446253Y-14714198D01*
X15570062Y-14628484D02*
X15589110Y-14628484D01*
X15589110Y-14628484D02*
X15608158Y-14638008D01*
X15608158Y-14638008D02*
X15617682Y-14647531D01*
X15617682Y-14647531D02*
X15627205Y-14666579D01*
X15627205Y-14666579D02*
X15636729Y-14704674D01*
X15636729Y-14704674D02*
X15636729Y-14752293D01*
X15636729Y-14752293D02*
X15627205Y-14790388D01*
X15627205Y-14790388D02*
X15617682Y-14809436D01*
X15617682Y-14809436D02*
X15608158Y-14818960D01*
X15608158Y-14818960D02*
X15589110Y-14828484D01*
X15589110Y-14828484D02*
X15570062Y-14828484D01*
X15570062Y-14828484D02*
X15551015Y-14818960D01*
X15551015Y-14818960D02*
X15541491Y-14809436D01*
X15541491Y-14809436D02*
X15531967Y-14790388D01*
X15531967Y-14790388D02*
X15522443Y-14752293D01*
X15522443Y-14752293D02*
X15522443Y-14704674D01*
X15522443Y-14704674D02*
X15531967Y-14666579D01*
X15531967Y-14666579D02*
X15541491Y-14647531D01*
X15541491Y-14647531D02*
X15551015Y-14638008D01*
X15551015Y-14638008D02*
X15570062Y-14628484D01*
X15760539Y-14628484D02*
X15779586Y-14628484D01*
X15779586Y-14628484D02*
X15798634Y-14638008D01*
X15798634Y-14638008D02*
X15808158Y-14647531D01*
X15808158Y-14647531D02*
X15817682Y-14666579D01*
X15817682Y-14666579D02*
X15827205Y-14704674D01*
X15827205Y-14704674D02*
X15827205Y-14752293D01*
X15827205Y-14752293D02*
X15817682Y-14790388D01*
X15817682Y-14790388D02*
X15808158Y-14809436D01*
X15808158Y-14809436D02*
X15798634Y-14818960D01*
X15798634Y-14818960D02*
X15779586Y-14828484D01*
X15779586Y-14828484D02*
X15760539Y-14828484D01*
X15760539Y-14828484D02*
X15741491Y-14818960D01*
X15741491Y-14818960D02*
X15731967Y-14809436D01*
X15731967Y-14809436D02*
X15722443Y-14790388D01*
X15722443Y-14790388D02*
X15712920Y-14752293D01*
X15712920Y-14752293D02*
X15712920Y-14704674D01*
X15712920Y-14704674D02*
X15722443Y-14666579D01*
X15722443Y-14666579D02*
X15731967Y-14647531D01*
X15731967Y-14647531D02*
X15741491Y-14638008D01*
X15741491Y-14638008D02*
X15760539Y-14628484D01*
X15912920Y-14828484D02*
X15912920Y-14695150D01*
X15912920Y-14714198D02*
X15922443Y-14704674D01*
X15922443Y-14704674D02*
X15941491Y-14695150D01*
X15941491Y-14695150D02*
X15970063Y-14695150D01*
X15970063Y-14695150D02*
X15989110Y-14704674D01*
X15989110Y-14704674D02*
X15998634Y-14723722D01*
X15998634Y-14723722D02*
X15998634Y-14828484D01*
X15998634Y-14723722D02*
X16008158Y-14704674D01*
X16008158Y-14704674D02*
X16027205Y-14695150D01*
X16027205Y-14695150D02*
X16055777Y-14695150D01*
X16055777Y-14695150D02*
X16074824Y-14704674D01*
X16074824Y-14704674D02*
X16084348Y-14723722D01*
X16084348Y-14723722D02*
X16084348Y-14828484D01*
X16179586Y-14828484D02*
X16179586Y-14695150D01*
X16179586Y-14714198D02*
X16189110Y-14704674D01*
X16189110Y-14704674D02*
X16208158Y-14695150D01*
X16208158Y-14695150D02*
X16236729Y-14695150D01*
X16236729Y-14695150D02*
X16255777Y-14704674D01*
X16255777Y-14704674D02*
X16265301Y-14723722D01*
X16265301Y-14723722D02*
X16265301Y-14828484D01*
X16265301Y-14723722D02*
X16274824Y-14704674D01*
X16274824Y-14704674D02*
X16293872Y-14695150D01*
X16293872Y-14695150D02*
X16322443Y-14695150D01*
X16322443Y-14695150D02*
X16341491Y-14704674D01*
X16341491Y-14704674D02*
X16351015Y-14723722D01*
X16351015Y-14723722D02*
X16351015Y-14828484D01*
X16741491Y-14618960D02*
X16570063Y-14876103D01*
X16998634Y-14628484D02*
X17017682Y-14628484D01*
X17017682Y-14628484D02*
X17036729Y-14638008D01*
X17036729Y-14638008D02*
X17046253Y-14647531D01*
X17046253Y-14647531D02*
X17055777Y-14666579D01*
X17055777Y-14666579D02*
X17065301Y-14704674D01*
X17065301Y-14704674D02*
X17065301Y-14752293D01*
X17065301Y-14752293D02*
X17055777Y-14790388D01*
X17055777Y-14790388D02*
X17046253Y-14809436D01*
X17046253Y-14809436D02*
X17036729Y-14818960D01*
X17036729Y-14818960D02*
X17017682Y-14828484D01*
X17017682Y-14828484D02*
X16998634Y-14828484D01*
X16998634Y-14828484D02*
X16979587Y-14818960D01*
X16979587Y-14818960D02*
X16970063Y-14809436D01*
X16970063Y-14809436D02*
X16960539Y-14790388D01*
X16960539Y-14790388D02*
X16951015Y-14752293D01*
X16951015Y-14752293D02*
X16951015Y-14704674D01*
X16951015Y-14704674D02*
X16960539Y-14666579D01*
X16960539Y-14666579D02*
X16970063Y-14647531D01*
X16970063Y-14647531D02*
X16979587Y-14638008D01*
X16979587Y-14638008D02*
X16998634Y-14628484D01*
X17151015Y-14809436D02*
X17160539Y-14818960D01*
X17160539Y-14818960D02*
X17151015Y-14828484D01*
X17151015Y-14828484D02*
X17141491Y-14818960D01*
X17141491Y-14818960D02*
X17151015Y-14809436D01*
X17151015Y-14809436D02*
X17151015Y-14828484D01*
X17284348Y-14628484D02*
X17303396Y-14628484D01*
X17303396Y-14628484D02*
X17322444Y-14638008D01*
X17322444Y-14638008D02*
X17331968Y-14647531D01*
X17331968Y-14647531D02*
X17341491Y-14666579D01*
X17341491Y-14666579D02*
X17351015Y-14704674D01*
X17351015Y-14704674D02*
X17351015Y-14752293D01*
X17351015Y-14752293D02*
X17341491Y-14790388D01*
X17341491Y-14790388D02*
X17331968Y-14809436D01*
X17331968Y-14809436D02*
X17322444Y-14818960D01*
X17322444Y-14818960D02*
X17303396Y-14828484D01*
X17303396Y-14828484D02*
X17284348Y-14828484D01*
X17284348Y-14828484D02*
X17265301Y-14818960D01*
X17265301Y-14818960D02*
X17255777Y-14809436D01*
X17255777Y-14809436D02*
X17246253Y-14790388D01*
X17246253Y-14790388D02*
X17236729Y-14752293D01*
X17236729Y-14752293D02*
X17236729Y-14704674D01*
X17236729Y-14704674D02*
X17246253Y-14666579D01*
X17246253Y-14666579D02*
X17255777Y-14647531D01*
X17255777Y-14647531D02*
X17265301Y-14638008D01*
X17265301Y-14638008D02*
X17284348Y-14628484D01*
X17417682Y-14628484D02*
X17541491Y-14628484D01*
X17541491Y-14628484D02*
X17474825Y-14704674D01*
X17474825Y-14704674D02*
X17503396Y-14704674D01*
X17503396Y-14704674D02*
X17522444Y-14714198D01*
X17522444Y-14714198D02*
X17531968Y-14723722D01*
X17531968Y-14723722D02*
X17541491Y-14742769D01*
X17541491Y-14742769D02*
X17541491Y-14790388D01*
X17541491Y-14790388D02*
X17531968Y-14809436D01*
X17531968Y-14809436D02*
X17522444Y-14818960D01*
X17522444Y-14818960D02*
X17503396Y-14828484D01*
X17503396Y-14828484D02*
X17446253Y-14828484D01*
X17446253Y-14828484D02*
X17427206Y-14818960D01*
X17427206Y-14818960D02*
X17417682Y-14809436D01*
X17722444Y-14628484D02*
X17627206Y-14628484D01*
X17627206Y-14628484D02*
X17617682Y-14723722D01*
X17617682Y-14723722D02*
X17627206Y-14714198D01*
X17627206Y-14714198D02*
X17646253Y-14704674D01*
X17646253Y-14704674D02*
X17693872Y-14704674D01*
X17693872Y-14704674D02*
X17712920Y-14714198D01*
X17712920Y-14714198D02*
X17722444Y-14723722D01*
X17722444Y-14723722D02*
X17731968Y-14742769D01*
X17731968Y-14742769D02*
X17731968Y-14790388D01*
X17731968Y-14790388D02*
X17722444Y-14809436D01*
X17722444Y-14809436D02*
X17712920Y-14818960D01*
X17712920Y-14818960D02*
X17693872Y-14828484D01*
X17693872Y-14828484D02*
X17646253Y-14828484D01*
X17646253Y-14828484D02*
X17627206Y-14818960D01*
X17627206Y-14818960D02*
X17617682Y-14809436D01*
X17903396Y-14695150D02*
X17903396Y-14828484D01*
X17855777Y-14618960D02*
X17808158Y-14761817D01*
X17808158Y-14761817D02*
X17931968Y-14761817D01*
X17998634Y-14628484D02*
X17998634Y-14666579D01*
X18074825Y-14628484D02*
X18074825Y-14666579D01*
X18370063Y-14904674D02*
X18360539Y-14895150D01*
X18360539Y-14895150D02*
X18341491Y-14866579D01*
X18341491Y-14866579D02*
X18331968Y-14847531D01*
X18331968Y-14847531D02*
X18322444Y-14818960D01*
X18322444Y-14818960D02*
X18312920Y-14771341D01*
X18312920Y-14771341D02*
X18312920Y-14733246D01*
X18312920Y-14733246D02*
X18322444Y-14685627D01*
X18322444Y-14685627D02*
X18331968Y-14657055D01*
X18331968Y-14657055D02*
X18341491Y-14638008D01*
X18341491Y-14638008D02*
X18360539Y-14609436D01*
X18360539Y-14609436D02*
X18370063Y-14599912D01*
X18436730Y-14647531D02*
X18446253Y-14638008D01*
X18446253Y-14638008D02*
X18465301Y-14628484D01*
X18465301Y-14628484D02*
X18512920Y-14628484D01*
X18512920Y-14628484D02*
X18531968Y-14638008D01*
X18531968Y-14638008D02*
X18541491Y-14647531D01*
X18541491Y-14647531D02*
X18551015Y-14666579D01*
X18551015Y-14666579D02*
X18551015Y-14685627D01*
X18551015Y-14685627D02*
X18541491Y-14714198D01*
X18541491Y-14714198D02*
X18427206Y-14828484D01*
X18427206Y-14828484D02*
X18551015Y-14828484D01*
X18665301Y-14714198D02*
X18646253Y-14704674D01*
X18646253Y-14704674D02*
X18636730Y-14695150D01*
X18636730Y-14695150D02*
X18627206Y-14676103D01*
X18627206Y-14676103D02*
X18627206Y-14666579D01*
X18627206Y-14666579D02*
X18636730Y-14647531D01*
X18636730Y-14647531D02*
X18646253Y-14638008D01*
X18646253Y-14638008D02*
X18665301Y-14628484D01*
X18665301Y-14628484D02*
X18703396Y-14628484D01*
X18703396Y-14628484D02*
X18722444Y-14638008D01*
X18722444Y-14638008D02*
X18731968Y-14647531D01*
X18731968Y-14647531D02*
X18741491Y-14666579D01*
X18741491Y-14666579D02*
X18741491Y-14676103D01*
X18741491Y-14676103D02*
X18731968Y-14695150D01*
X18731968Y-14695150D02*
X18722444Y-14704674D01*
X18722444Y-14704674D02*
X18703396Y-14714198D01*
X18703396Y-14714198D02*
X18665301Y-14714198D01*
X18665301Y-14714198D02*
X18646253Y-14723722D01*
X18646253Y-14723722D02*
X18636730Y-14733246D01*
X18636730Y-14733246D02*
X18627206Y-14752293D01*
X18627206Y-14752293D02*
X18627206Y-14790388D01*
X18627206Y-14790388D02*
X18636730Y-14809436D01*
X18636730Y-14809436D02*
X18646253Y-14818960D01*
X18646253Y-14818960D02*
X18665301Y-14828484D01*
X18665301Y-14828484D02*
X18703396Y-14828484D01*
X18703396Y-14828484D02*
X18722444Y-14818960D01*
X18722444Y-14818960D02*
X18731968Y-14809436D01*
X18731968Y-14809436D02*
X18741491Y-14790388D01*
X18741491Y-14790388D02*
X18741491Y-14752293D01*
X18741491Y-14752293D02*
X18731968Y-14733246D01*
X18731968Y-14733246D02*
X18722444Y-14723722D01*
X18722444Y-14723722D02*
X18703396Y-14714198D01*
X18979587Y-14828484D02*
X18979587Y-14628484D01*
X19065301Y-14828484D02*
X19065301Y-14723722D01*
X19065301Y-14723722D02*
X19055777Y-14704674D01*
X19055777Y-14704674D02*
X19036730Y-14695150D01*
X19036730Y-14695150D02*
X19008158Y-14695150D01*
X19008158Y-14695150D02*
X18989111Y-14704674D01*
X18989111Y-14704674D02*
X18979587Y-14714198D01*
X19189111Y-14828484D02*
X19170063Y-14818960D01*
X19170063Y-14818960D02*
X19160539Y-14809436D01*
X19160539Y-14809436D02*
X19151015Y-14790388D01*
X19151015Y-14790388D02*
X19151015Y-14733246D01*
X19151015Y-14733246D02*
X19160539Y-14714198D01*
X19160539Y-14714198D02*
X19170063Y-14704674D01*
X19170063Y-14704674D02*
X19189111Y-14695150D01*
X19189111Y-14695150D02*
X19217682Y-14695150D01*
X19217682Y-14695150D02*
X19236730Y-14704674D01*
X19236730Y-14704674D02*
X19246253Y-14714198D01*
X19246253Y-14714198D02*
X19255777Y-14733246D01*
X19255777Y-14733246D02*
X19255777Y-14790388D01*
X19255777Y-14790388D02*
X19246253Y-14809436D01*
X19246253Y-14809436D02*
X19236730Y-14818960D01*
X19236730Y-14818960D02*
X19217682Y-14828484D01*
X19217682Y-14828484D02*
X19189111Y-14828484D01*
X19370063Y-14828484D02*
X19351015Y-14818960D01*
X19351015Y-14818960D02*
X19341492Y-14799912D01*
X19341492Y-14799912D02*
X19341492Y-14628484D01*
X19522444Y-14818960D02*
X19503396Y-14828484D01*
X19503396Y-14828484D02*
X19465301Y-14828484D01*
X19465301Y-14828484D02*
X19446253Y-14818960D01*
X19446253Y-14818960D02*
X19436730Y-14799912D01*
X19436730Y-14799912D02*
X19436730Y-14723722D01*
X19436730Y-14723722D02*
X19446253Y-14704674D01*
X19446253Y-14704674D02*
X19465301Y-14695150D01*
X19465301Y-14695150D02*
X19503396Y-14695150D01*
X19503396Y-14695150D02*
X19522444Y-14704674D01*
X19522444Y-14704674D02*
X19531968Y-14723722D01*
X19531968Y-14723722D02*
X19531968Y-14742769D01*
X19531968Y-14742769D02*
X19436730Y-14761817D01*
X19608158Y-14818960D02*
X19627206Y-14828484D01*
X19627206Y-14828484D02*
X19665301Y-14828484D01*
X19665301Y-14828484D02*
X19684349Y-14818960D01*
X19684349Y-14818960D02*
X19693873Y-14799912D01*
X19693873Y-14799912D02*
X19693873Y-14790388D01*
X19693873Y-14790388D02*
X19684349Y-14771341D01*
X19684349Y-14771341D02*
X19665301Y-14761817D01*
X19665301Y-14761817D02*
X19636730Y-14761817D01*
X19636730Y-14761817D02*
X19617682Y-14752293D01*
X19617682Y-14752293D02*
X19608158Y-14733246D01*
X19608158Y-14733246D02*
X19608158Y-14723722D01*
X19608158Y-14723722D02*
X19617682Y-14704674D01*
X19617682Y-14704674D02*
X19636730Y-14695150D01*
X19636730Y-14695150D02*
X19665301Y-14695150D01*
X19665301Y-14695150D02*
X19684349Y-14704674D01*
X19760539Y-14904674D02*
X19770063Y-14895150D01*
X19770063Y-14895150D02*
X19789111Y-14866579D01*
X19789111Y-14866579D02*
X19798634Y-14847531D01*
X19798634Y-14847531D02*
X19808158Y-14818960D01*
X19808158Y-14818960D02*
X19817682Y-14771341D01*
X19817682Y-14771341D02*
X19817682Y-14733246D01*
X19817682Y-14733246D02*
X19808158Y-14685627D01*
X19808158Y-14685627D02*
X19798634Y-14657055D01*
X19798634Y-14657055D02*
X19789111Y-14638008D01*
X19789111Y-14638008D02*
X19770063Y-14609436D01*
X19770063Y-14609436D02*
X19760539Y-14599912D01*
D10*
X14745000Y-15051000D02*
X14795000Y-15001000D01*
X14745000Y-14951000D01*
X14695000Y-15001000D01*
X14745000Y-15051000D01*
D11*
X15160539Y-15092484D02*
X15046253Y-15092484D01*
X15103396Y-15092484D02*
X15103396Y-14892484D01*
X15103396Y-14892484D02*
X15084348Y-14921055D01*
X15084348Y-14921055D02*
X15065301Y-14940103D01*
X15065301Y-14940103D02*
X15046253Y-14949627D01*
X15246253Y-15073436D02*
X15255777Y-15082960D01*
X15255777Y-15082960D02*
X15246253Y-15092484D01*
X15246253Y-15092484D02*
X15236729Y-15082960D01*
X15236729Y-15082960D02*
X15246253Y-15073436D01*
X15246253Y-15073436D02*
X15246253Y-15092484D01*
X15379586Y-14892484D02*
X15398634Y-14892484D01*
X15398634Y-14892484D02*
X15417682Y-14902008D01*
X15417682Y-14902008D02*
X15427205Y-14911531D01*
X15427205Y-14911531D02*
X15436729Y-14930579D01*
X15436729Y-14930579D02*
X15446253Y-14968674D01*
X15446253Y-14968674D02*
X15446253Y-15016293D01*
X15446253Y-15016293D02*
X15436729Y-15054388D01*
X15436729Y-15054388D02*
X15427205Y-15073436D01*
X15427205Y-15073436D02*
X15417682Y-15082960D01*
X15417682Y-15082960D02*
X15398634Y-15092484D01*
X15398634Y-15092484D02*
X15379586Y-15092484D01*
X15379586Y-15092484D02*
X15360539Y-15082960D01*
X15360539Y-15082960D02*
X15351015Y-15073436D01*
X15351015Y-15073436D02*
X15341491Y-15054388D01*
X15341491Y-15054388D02*
X15331967Y-15016293D01*
X15331967Y-15016293D02*
X15331967Y-14968674D01*
X15331967Y-14968674D02*
X15341491Y-14930579D01*
X15341491Y-14930579D02*
X15351015Y-14911531D01*
X15351015Y-14911531D02*
X15360539Y-14902008D01*
X15360539Y-14902008D02*
X15379586Y-14892484D01*
X15570062Y-14892484D02*
X15589110Y-14892484D01*
X15589110Y-14892484D02*
X15608158Y-14902008D01*
X15608158Y-14902008D02*
X15617682Y-14911531D01*
X15617682Y-14911531D02*
X15627205Y-14930579D01*
X15627205Y-14930579D02*
X15636729Y-14968674D01*
X15636729Y-14968674D02*
X15636729Y-15016293D01*
X15636729Y-15016293D02*
X15627205Y-15054388D01*
X15627205Y-15054388D02*
X15617682Y-15073436D01*
X15617682Y-15073436D02*
X15608158Y-15082960D01*
X15608158Y-15082960D02*
X15589110Y-15092484D01*
X15589110Y-15092484D02*
X15570062Y-15092484D01*
X15570062Y-15092484D02*
X15551015Y-15082960D01*
X15551015Y-15082960D02*
X15541491Y-15073436D01*
X15541491Y-15073436D02*
X15531967Y-15054388D01*
X15531967Y-15054388D02*
X15522443Y-15016293D01*
X15522443Y-15016293D02*
X15522443Y-14968674D01*
X15522443Y-14968674D02*
X15531967Y-14930579D01*
X15531967Y-14930579D02*
X15541491Y-14911531D01*
X15541491Y-14911531D02*
X15551015Y-14902008D01*
X15551015Y-14902008D02*
X15570062Y-14892484D01*
X15760539Y-14892484D02*
X15779586Y-14892484D01*
X15779586Y-14892484D02*
X15798634Y-14902008D01*
X15798634Y-14902008D02*
X15808158Y-14911531D01*
X15808158Y-14911531D02*
X15817682Y-14930579D01*
X15817682Y-14930579D02*
X15827205Y-14968674D01*
X15827205Y-14968674D02*
X15827205Y-15016293D01*
X15827205Y-15016293D02*
X15817682Y-15054388D01*
X15817682Y-15054388D02*
X15808158Y-15073436D01*
X15808158Y-15073436D02*
X15798634Y-15082960D01*
X15798634Y-15082960D02*
X15779586Y-15092484D01*
X15779586Y-15092484D02*
X15760539Y-15092484D01*
X15760539Y-15092484D02*
X15741491Y-15082960D01*
X15741491Y-15082960D02*
X15731967Y-15073436D01*
X15731967Y-15073436D02*
X15722443Y-15054388D01*
X15722443Y-15054388D02*
X15712920Y-15016293D01*
X15712920Y-15016293D02*
X15712920Y-14968674D01*
X15712920Y-14968674D02*
X15722443Y-14930579D01*
X15722443Y-14930579D02*
X15731967Y-14911531D01*
X15731967Y-14911531D02*
X15741491Y-14902008D01*
X15741491Y-14902008D02*
X15760539Y-14892484D01*
X15912920Y-15092484D02*
X15912920Y-14959150D01*
X15912920Y-14978198D02*
X15922443Y-14968674D01*
X15922443Y-14968674D02*
X15941491Y-14959150D01*
X15941491Y-14959150D02*
X15970063Y-14959150D01*
X15970063Y-14959150D02*
X15989110Y-14968674D01*
X15989110Y-14968674D02*
X15998634Y-14987722D01*
X15998634Y-14987722D02*
X15998634Y-15092484D01*
X15998634Y-14987722D02*
X16008158Y-14968674D01*
X16008158Y-14968674D02*
X16027205Y-14959150D01*
X16027205Y-14959150D02*
X16055777Y-14959150D01*
X16055777Y-14959150D02*
X16074824Y-14968674D01*
X16074824Y-14968674D02*
X16084348Y-14987722D01*
X16084348Y-14987722D02*
X16084348Y-15092484D01*
X16179586Y-15092484D02*
X16179586Y-14959150D01*
X16179586Y-14978198D02*
X16189110Y-14968674D01*
X16189110Y-14968674D02*
X16208158Y-14959150D01*
X16208158Y-14959150D02*
X16236729Y-14959150D01*
X16236729Y-14959150D02*
X16255777Y-14968674D01*
X16255777Y-14968674D02*
X16265301Y-14987722D01*
X16265301Y-14987722D02*
X16265301Y-15092484D01*
X16265301Y-14987722D02*
X16274824Y-14968674D01*
X16274824Y-14968674D02*
X16293872Y-14959150D01*
X16293872Y-14959150D02*
X16322443Y-14959150D01*
X16322443Y-14959150D02*
X16341491Y-14968674D01*
X16341491Y-14968674D02*
X16351015Y-14987722D01*
X16351015Y-14987722D02*
X16351015Y-15092484D01*
X16741491Y-14882960D02*
X16570063Y-15140103D01*
X16998634Y-14892484D02*
X17017682Y-14892484D01*
X17017682Y-14892484D02*
X17036729Y-14902008D01*
X17036729Y-14902008D02*
X17046253Y-14911531D01*
X17046253Y-14911531D02*
X17055777Y-14930579D01*
X17055777Y-14930579D02*
X17065301Y-14968674D01*
X17065301Y-14968674D02*
X17065301Y-15016293D01*
X17065301Y-15016293D02*
X17055777Y-15054388D01*
X17055777Y-15054388D02*
X17046253Y-15073436D01*
X17046253Y-15073436D02*
X17036729Y-15082960D01*
X17036729Y-15082960D02*
X17017682Y-15092484D01*
X17017682Y-15092484D02*
X16998634Y-15092484D01*
X16998634Y-15092484D02*
X16979587Y-15082960D01*
X16979587Y-15082960D02*
X16970063Y-15073436D01*
X16970063Y-15073436D02*
X16960539Y-15054388D01*
X16960539Y-15054388D02*
X16951015Y-15016293D01*
X16951015Y-15016293D02*
X16951015Y-14968674D01*
X16951015Y-14968674D02*
X16960539Y-14930579D01*
X16960539Y-14930579D02*
X16970063Y-14911531D01*
X16970063Y-14911531D02*
X16979587Y-14902008D01*
X16979587Y-14902008D02*
X16998634Y-14892484D01*
X17151015Y-15073436D02*
X17160539Y-15082960D01*
X17160539Y-15082960D02*
X17151015Y-15092484D01*
X17151015Y-15092484D02*
X17141491Y-15082960D01*
X17141491Y-15082960D02*
X17151015Y-15073436D01*
X17151015Y-15073436D02*
X17151015Y-15092484D01*
X17284348Y-14892484D02*
X17303396Y-14892484D01*
X17303396Y-14892484D02*
X17322444Y-14902008D01*
X17322444Y-14902008D02*
X17331968Y-14911531D01*
X17331968Y-14911531D02*
X17341491Y-14930579D01*
X17341491Y-14930579D02*
X17351015Y-14968674D01*
X17351015Y-14968674D02*
X17351015Y-15016293D01*
X17351015Y-15016293D02*
X17341491Y-15054388D01*
X17341491Y-15054388D02*
X17331968Y-15073436D01*
X17331968Y-15073436D02*
X17322444Y-15082960D01*
X17322444Y-15082960D02*
X17303396Y-15092484D01*
X17303396Y-15092484D02*
X17284348Y-15092484D01*
X17284348Y-15092484D02*
X17265301Y-15082960D01*
X17265301Y-15082960D02*
X17255777Y-15073436D01*
X17255777Y-15073436D02*
X17246253Y-15054388D01*
X17246253Y-15054388D02*
X17236729Y-15016293D01*
X17236729Y-15016293D02*
X17236729Y-14968674D01*
X17236729Y-14968674D02*
X17246253Y-14930579D01*
X17246253Y-14930579D02*
X17255777Y-14911531D01*
X17255777Y-14911531D02*
X17265301Y-14902008D01*
X17265301Y-14902008D02*
X17284348Y-14892484D01*
X17417682Y-14892484D02*
X17541491Y-14892484D01*
X17541491Y-14892484D02*
X17474825Y-14968674D01*
X17474825Y-14968674D02*
X17503396Y-14968674D01*
X17503396Y-14968674D02*
X17522444Y-14978198D01*
X17522444Y-14978198D02*
X17531968Y-14987722D01*
X17531968Y-14987722D02*
X17541491Y-15006769D01*
X17541491Y-15006769D02*
X17541491Y-15054388D01*
X17541491Y-15054388D02*
X17531968Y-15073436D01*
X17531968Y-15073436D02*
X17522444Y-15082960D01*
X17522444Y-15082960D02*
X17503396Y-15092484D01*
X17503396Y-15092484D02*
X17446253Y-15092484D01*
X17446253Y-15092484D02*
X17427206Y-15082960D01*
X17427206Y-15082960D02*
X17417682Y-15073436D01*
X17636729Y-15092484D02*
X17674825Y-15092484D01*
X17674825Y-15092484D02*
X17693872Y-15082960D01*
X17693872Y-15082960D02*
X17703396Y-15073436D01*
X17703396Y-15073436D02*
X17722444Y-15044865D01*
X17722444Y-15044865D02*
X17731968Y-15006769D01*
X17731968Y-15006769D02*
X17731968Y-14930579D01*
X17731968Y-14930579D02*
X17722444Y-14911531D01*
X17722444Y-14911531D02*
X17712920Y-14902008D01*
X17712920Y-14902008D02*
X17693872Y-14892484D01*
X17693872Y-14892484D02*
X17655777Y-14892484D01*
X17655777Y-14892484D02*
X17636729Y-14902008D01*
X17636729Y-14902008D02*
X17627206Y-14911531D01*
X17627206Y-14911531D02*
X17617682Y-14930579D01*
X17617682Y-14930579D02*
X17617682Y-14978198D01*
X17617682Y-14978198D02*
X17627206Y-14997246D01*
X17627206Y-14997246D02*
X17636729Y-15006769D01*
X17636729Y-15006769D02*
X17655777Y-15016293D01*
X17655777Y-15016293D02*
X17693872Y-15016293D01*
X17693872Y-15016293D02*
X17712920Y-15006769D01*
X17712920Y-15006769D02*
X17722444Y-14997246D01*
X17722444Y-14997246D02*
X17731968Y-14978198D01*
X17903396Y-14959150D02*
X17903396Y-15092484D01*
X17855777Y-14882960D02*
X17808158Y-15025817D01*
X17808158Y-15025817D02*
X17931968Y-15025817D01*
X17998634Y-14892484D02*
X17998634Y-14930579D01*
X18074825Y-14892484D02*
X18074825Y-14930579D01*
X18370063Y-15168674D02*
X18360539Y-15159150D01*
X18360539Y-15159150D02*
X18341491Y-15130579D01*
X18341491Y-15130579D02*
X18331968Y-15111531D01*
X18331968Y-15111531D02*
X18322444Y-15082960D01*
X18322444Y-15082960D02*
X18312920Y-15035341D01*
X18312920Y-15035341D02*
X18312920Y-14997246D01*
X18312920Y-14997246D02*
X18322444Y-14949627D01*
X18322444Y-14949627D02*
X18331968Y-14921055D01*
X18331968Y-14921055D02*
X18341491Y-14902008D01*
X18341491Y-14902008D02*
X18360539Y-14873436D01*
X18360539Y-14873436D02*
X18370063Y-14863912D01*
X18436730Y-14911531D02*
X18446253Y-14902008D01*
X18446253Y-14902008D02*
X18465301Y-14892484D01*
X18465301Y-14892484D02*
X18512920Y-14892484D01*
X18512920Y-14892484D02*
X18531968Y-14902008D01*
X18531968Y-14902008D02*
X18541491Y-14911531D01*
X18541491Y-14911531D02*
X18551015Y-14930579D01*
X18551015Y-14930579D02*
X18551015Y-14949627D01*
X18551015Y-14949627D02*
X18541491Y-14978198D01*
X18541491Y-14978198D02*
X18427206Y-15092484D01*
X18427206Y-15092484D02*
X18551015Y-15092484D01*
X18617682Y-14892484D02*
X18741491Y-14892484D01*
X18741491Y-14892484D02*
X18674825Y-14968674D01*
X18674825Y-14968674D02*
X18703396Y-14968674D01*
X18703396Y-14968674D02*
X18722444Y-14978198D01*
X18722444Y-14978198D02*
X18731968Y-14987722D01*
X18731968Y-14987722D02*
X18741491Y-15006769D01*
X18741491Y-15006769D02*
X18741491Y-15054388D01*
X18741491Y-15054388D02*
X18731968Y-15073436D01*
X18731968Y-15073436D02*
X18722444Y-15082960D01*
X18722444Y-15082960D02*
X18703396Y-15092484D01*
X18703396Y-15092484D02*
X18646253Y-15092484D01*
X18646253Y-15092484D02*
X18627206Y-15082960D01*
X18627206Y-15082960D02*
X18617682Y-15073436D01*
X18979587Y-15092484D02*
X18979587Y-14892484D01*
X19065301Y-15092484D02*
X19065301Y-14987722D01*
X19065301Y-14987722D02*
X19055777Y-14968674D01*
X19055777Y-14968674D02*
X19036730Y-14959150D01*
X19036730Y-14959150D02*
X19008158Y-14959150D01*
X19008158Y-14959150D02*
X18989111Y-14968674D01*
X18989111Y-14968674D02*
X18979587Y-14978198D01*
X19189111Y-15092484D02*
X19170063Y-15082960D01*
X19170063Y-15082960D02*
X19160539Y-15073436D01*
X19160539Y-15073436D02*
X19151015Y-15054388D01*
X19151015Y-15054388D02*
X19151015Y-14997246D01*
X19151015Y-14997246D02*
X19160539Y-14978198D01*
X19160539Y-14978198D02*
X19170063Y-14968674D01*
X19170063Y-14968674D02*
X19189111Y-14959150D01*
X19189111Y-14959150D02*
X19217682Y-14959150D01*
X19217682Y-14959150D02*
X19236730Y-14968674D01*
X19236730Y-14968674D02*
X19246253Y-14978198D01*
X19246253Y-14978198D02*
X19255777Y-14997246D01*
X19255777Y-14997246D02*
X19255777Y-15054388D01*
X19255777Y-15054388D02*
X19246253Y-15073436D01*
X19246253Y-15073436D02*
X19236730Y-15082960D01*
X19236730Y-15082960D02*
X19217682Y-15092484D01*
X19217682Y-15092484D02*
X19189111Y-15092484D01*
X19370063Y-15092484D02*
X19351015Y-15082960D01*
X19351015Y-15082960D02*
X19341492Y-15063912D01*
X19341492Y-15063912D02*
X19341492Y-14892484D01*
X19522444Y-15082960D02*
X19503396Y-15092484D01*
X19503396Y-15092484D02*
X19465301Y-15092484D01*
X19465301Y-15092484D02*
X19446253Y-15082960D01*
X19446253Y-15082960D02*
X19436730Y-15063912D01*
X19436730Y-15063912D02*
X19436730Y-14987722D01*
X19436730Y-14987722D02*
X19446253Y-14968674D01*
X19446253Y-14968674D02*
X19465301Y-14959150D01*
X19465301Y-14959150D02*
X19503396Y-14959150D01*
X19503396Y-14959150D02*
X19522444Y-14968674D01*
X19522444Y-14968674D02*
X19531968Y-14987722D01*
X19531968Y-14987722D02*
X19531968Y-15006769D01*
X19531968Y-15006769D02*
X19436730Y-15025817D01*
X19608158Y-15082960D02*
X19627206Y-15092484D01*
X19627206Y-15092484D02*
X19665301Y-15092484D01*
X19665301Y-15092484D02*
X19684349Y-15082960D01*
X19684349Y-15082960D02*
X19693873Y-15063912D01*
X19693873Y-15063912D02*
X19693873Y-15054388D01*
X19693873Y-15054388D02*
X19684349Y-15035341D01*
X19684349Y-15035341D02*
X19665301Y-15025817D01*
X19665301Y-15025817D02*
X19636730Y-15025817D01*
X19636730Y-15025817D02*
X19617682Y-15016293D01*
X19617682Y-15016293D02*
X19608158Y-14997246D01*
X19608158Y-14997246D02*
X19608158Y-14987722D01*
X19608158Y-14987722D02*
X19617682Y-14968674D01*
X19617682Y-14968674D02*
X19636730Y-14959150D01*
X19636730Y-14959150D02*
X19665301Y-14959150D01*
X19665301Y-14959150D02*
X19684349Y-14968674D01*
X19760539Y-15168674D02*
X19770063Y-15159150D01*
X19770063Y-15159150D02*
X19789111Y-15130579D01*
X19789111Y-15130579D02*
X19798634Y-15111531D01*
X19798634Y-15111531D02*
X19808158Y-15082960D01*
X19808158Y-15082960D02*
X19817682Y-15035341D01*
X19817682Y-15035341D02*
X19817682Y-14997246D01*
X19817682Y-14997246D02*
X19808158Y-14949627D01*
X19808158Y-14949627D02*
X19798634Y-14921055D01*
X19798634Y-14921055D02*
X19789111Y-14902008D01*
X19789111Y-14902008D02*
X19770063Y-14873436D01*
X19770063Y-14873436D02*
X19760539Y-14863912D01*
D16*
X14685000Y-15210000D02*
X14795000Y-15320000D01*
X14795000Y-15210000D02*
X14685000Y-15320000D01*
X14795000Y-15265000D02*
G75*
G03*
X14795000Y-15265000I-55000J0D01*
G01*
D11*
X15160539Y-15356484D02*
X15046253Y-15356484D01*
X15103396Y-15356484D02*
X15103396Y-15156484D01*
X15103396Y-15156484D02*
X15084348Y-15185055D01*
X15084348Y-15185055D02*
X15065301Y-15204103D01*
X15065301Y-15204103D02*
X15046253Y-15213627D01*
X15246253Y-15337436D02*
X15255777Y-15346960D01*
X15255777Y-15346960D02*
X15246253Y-15356484D01*
X15246253Y-15356484D02*
X15236729Y-15346960D01*
X15236729Y-15346960D02*
X15246253Y-15337436D01*
X15246253Y-15337436D02*
X15246253Y-15356484D01*
X15446253Y-15356484D02*
X15331967Y-15356484D01*
X15389110Y-15356484D02*
X15389110Y-15156484D01*
X15389110Y-15156484D02*
X15370062Y-15185055D01*
X15370062Y-15185055D02*
X15351015Y-15204103D01*
X15351015Y-15204103D02*
X15331967Y-15213627D01*
X15570062Y-15156484D02*
X15589110Y-15156484D01*
X15589110Y-15156484D02*
X15608158Y-15166008D01*
X15608158Y-15166008D02*
X15617682Y-15175531D01*
X15617682Y-15175531D02*
X15627205Y-15194579D01*
X15627205Y-15194579D02*
X15636729Y-15232674D01*
X15636729Y-15232674D02*
X15636729Y-15280293D01*
X15636729Y-15280293D02*
X15627205Y-15318388D01*
X15627205Y-15318388D02*
X15617682Y-15337436D01*
X15617682Y-15337436D02*
X15608158Y-15346960D01*
X15608158Y-15346960D02*
X15589110Y-15356484D01*
X15589110Y-15356484D02*
X15570062Y-15356484D01*
X15570062Y-15356484D02*
X15551015Y-15346960D01*
X15551015Y-15346960D02*
X15541491Y-15337436D01*
X15541491Y-15337436D02*
X15531967Y-15318388D01*
X15531967Y-15318388D02*
X15522443Y-15280293D01*
X15522443Y-15280293D02*
X15522443Y-15232674D01*
X15522443Y-15232674D02*
X15531967Y-15194579D01*
X15531967Y-15194579D02*
X15541491Y-15175531D01*
X15541491Y-15175531D02*
X15551015Y-15166008D01*
X15551015Y-15166008D02*
X15570062Y-15156484D01*
X15760539Y-15156484D02*
X15779586Y-15156484D01*
X15779586Y-15156484D02*
X15798634Y-15166008D01*
X15798634Y-15166008D02*
X15808158Y-15175531D01*
X15808158Y-15175531D02*
X15817682Y-15194579D01*
X15817682Y-15194579D02*
X15827205Y-15232674D01*
X15827205Y-15232674D02*
X15827205Y-15280293D01*
X15827205Y-15280293D02*
X15817682Y-15318388D01*
X15817682Y-15318388D02*
X15808158Y-15337436D01*
X15808158Y-15337436D02*
X15798634Y-15346960D01*
X15798634Y-15346960D02*
X15779586Y-15356484D01*
X15779586Y-15356484D02*
X15760539Y-15356484D01*
X15760539Y-15356484D02*
X15741491Y-15346960D01*
X15741491Y-15346960D02*
X15731967Y-15337436D01*
X15731967Y-15337436D02*
X15722443Y-15318388D01*
X15722443Y-15318388D02*
X15712920Y-15280293D01*
X15712920Y-15280293D02*
X15712920Y-15232674D01*
X15712920Y-15232674D02*
X15722443Y-15194579D01*
X15722443Y-15194579D02*
X15731967Y-15175531D01*
X15731967Y-15175531D02*
X15741491Y-15166008D01*
X15741491Y-15166008D02*
X15760539Y-15156484D01*
X15912920Y-15356484D02*
X15912920Y-15223150D01*
X15912920Y-15242198D02*
X15922443Y-15232674D01*
X15922443Y-15232674D02*
X15941491Y-15223150D01*
X15941491Y-15223150D02*
X15970063Y-15223150D01*
X15970063Y-15223150D02*
X15989110Y-15232674D01*
X15989110Y-15232674D02*
X15998634Y-15251722D01*
X15998634Y-15251722D02*
X15998634Y-15356484D01*
X15998634Y-15251722D02*
X16008158Y-15232674D01*
X16008158Y-15232674D02*
X16027205Y-15223150D01*
X16027205Y-15223150D02*
X16055777Y-15223150D01*
X16055777Y-15223150D02*
X16074824Y-15232674D01*
X16074824Y-15232674D02*
X16084348Y-15251722D01*
X16084348Y-15251722D02*
X16084348Y-15356484D01*
X16179586Y-15356484D02*
X16179586Y-15223150D01*
X16179586Y-15242198D02*
X16189110Y-15232674D01*
X16189110Y-15232674D02*
X16208158Y-15223150D01*
X16208158Y-15223150D02*
X16236729Y-15223150D01*
X16236729Y-15223150D02*
X16255777Y-15232674D01*
X16255777Y-15232674D02*
X16265301Y-15251722D01*
X16265301Y-15251722D02*
X16265301Y-15356484D01*
X16265301Y-15251722D02*
X16274824Y-15232674D01*
X16274824Y-15232674D02*
X16293872Y-15223150D01*
X16293872Y-15223150D02*
X16322443Y-15223150D01*
X16322443Y-15223150D02*
X16341491Y-15232674D01*
X16341491Y-15232674D02*
X16351015Y-15251722D01*
X16351015Y-15251722D02*
X16351015Y-15356484D01*
X16741491Y-15146960D02*
X16570063Y-15404103D01*
X16998634Y-15156484D02*
X17017682Y-15156484D01*
X17017682Y-15156484D02*
X17036729Y-15166008D01*
X17036729Y-15166008D02*
X17046253Y-15175531D01*
X17046253Y-15175531D02*
X17055777Y-15194579D01*
X17055777Y-15194579D02*
X17065301Y-15232674D01*
X17065301Y-15232674D02*
X17065301Y-15280293D01*
X17065301Y-15280293D02*
X17055777Y-15318388D01*
X17055777Y-15318388D02*
X17046253Y-15337436D01*
X17046253Y-15337436D02*
X17036729Y-15346960D01*
X17036729Y-15346960D02*
X17017682Y-15356484D01*
X17017682Y-15356484D02*
X16998634Y-15356484D01*
X16998634Y-15356484D02*
X16979587Y-15346960D01*
X16979587Y-15346960D02*
X16970063Y-15337436D01*
X16970063Y-15337436D02*
X16960539Y-15318388D01*
X16960539Y-15318388D02*
X16951015Y-15280293D01*
X16951015Y-15280293D02*
X16951015Y-15232674D01*
X16951015Y-15232674D02*
X16960539Y-15194579D01*
X16960539Y-15194579D02*
X16970063Y-15175531D01*
X16970063Y-15175531D02*
X16979587Y-15166008D01*
X16979587Y-15166008D02*
X16998634Y-15156484D01*
X17151015Y-15337436D02*
X17160539Y-15346960D01*
X17160539Y-15346960D02*
X17151015Y-15356484D01*
X17151015Y-15356484D02*
X17141491Y-15346960D01*
X17141491Y-15346960D02*
X17151015Y-15337436D01*
X17151015Y-15337436D02*
X17151015Y-15356484D01*
X17284348Y-15156484D02*
X17303396Y-15156484D01*
X17303396Y-15156484D02*
X17322444Y-15166008D01*
X17322444Y-15166008D02*
X17331968Y-15175531D01*
X17331968Y-15175531D02*
X17341491Y-15194579D01*
X17341491Y-15194579D02*
X17351015Y-15232674D01*
X17351015Y-15232674D02*
X17351015Y-15280293D01*
X17351015Y-15280293D02*
X17341491Y-15318388D01*
X17341491Y-15318388D02*
X17331968Y-15337436D01*
X17331968Y-15337436D02*
X17322444Y-15346960D01*
X17322444Y-15346960D02*
X17303396Y-15356484D01*
X17303396Y-15356484D02*
X17284348Y-15356484D01*
X17284348Y-15356484D02*
X17265301Y-15346960D01*
X17265301Y-15346960D02*
X17255777Y-15337436D01*
X17255777Y-15337436D02*
X17246253Y-15318388D01*
X17246253Y-15318388D02*
X17236729Y-15280293D01*
X17236729Y-15280293D02*
X17236729Y-15232674D01*
X17236729Y-15232674D02*
X17246253Y-15194579D01*
X17246253Y-15194579D02*
X17255777Y-15175531D01*
X17255777Y-15175531D02*
X17265301Y-15166008D01*
X17265301Y-15166008D02*
X17284348Y-15156484D01*
X17522444Y-15223150D02*
X17522444Y-15356484D01*
X17474825Y-15146960D02*
X17427206Y-15289817D01*
X17427206Y-15289817D02*
X17551015Y-15289817D01*
X17608158Y-15156484D02*
X17731968Y-15156484D01*
X17731968Y-15156484D02*
X17665301Y-15232674D01*
X17665301Y-15232674D02*
X17693872Y-15232674D01*
X17693872Y-15232674D02*
X17712920Y-15242198D01*
X17712920Y-15242198D02*
X17722444Y-15251722D01*
X17722444Y-15251722D02*
X17731968Y-15270769D01*
X17731968Y-15270769D02*
X17731968Y-15318388D01*
X17731968Y-15318388D02*
X17722444Y-15337436D01*
X17722444Y-15337436D02*
X17712920Y-15346960D01*
X17712920Y-15346960D02*
X17693872Y-15356484D01*
X17693872Y-15356484D02*
X17636729Y-15356484D01*
X17636729Y-15356484D02*
X17617682Y-15346960D01*
X17617682Y-15346960D02*
X17608158Y-15337436D01*
X17798634Y-15156484D02*
X17922444Y-15156484D01*
X17922444Y-15156484D02*
X17855777Y-15232674D01*
X17855777Y-15232674D02*
X17884349Y-15232674D01*
X17884349Y-15232674D02*
X17903396Y-15242198D01*
X17903396Y-15242198D02*
X17912920Y-15251722D01*
X17912920Y-15251722D02*
X17922444Y-15270769D01*
X17922444Y-15270769D02*
X17922444Y-15318388D01*
X17922444Y-15318388D02*
X17912920Y-15337436D01*
X17912920Y-15337436D02*
X17903396Y-15346960D01*
X17903396Y-15346960D02*
X17884349Y-15356484D01*
X17884349Y-15356484D02*
X17827206Y-15356484D01*
X17827206Y-15356484D02*
X17808158Y-15346960D01*
X17808158Y-15346960D02*
X17798634Y-15337436D01*
X17998634Y-15156484D02*
X17998634Y-15194579D01*
X18074825Y-15156484D02*
X18074825Y-15194579D01*
X18370063Y-15432674D02*
X18360539Y-15423150D01*
X18360539Y-15423150D02*
X18341491Y-15394579D01*
X18341491Y-15394579D02*
X18331968Y-15375531D01*
X18331968Y-15375531D02*
X18322444Y-15346960D01*
X18322444Y-15346960D02*
X18312920Y-15299341D01*
X18312920Y-15299341D02*
X18312920Y-15261246D01*
X18312920Y-15261246D02*
X18322444Y-15213627D01*
X18322444Y-15213627D02*
X18331968Y-15185055D01*
X18331968Y-15185055D02*
X18341491Y-15166008D01*
X18341491Y-15166008D02*
X18360539Y-15137436D01*
X18360539Y-15137436D02*
X18370063Y-15127912D01*
X18531968Y-15223150D02*
X18531968Y-15356484D01*
X18484349Y-15146960D02*
X18436730Y-15289817D01*
X18436730Y-15289817D02*
X18560539Y-15289817D01*
X18789111Y-15356484D02*
X18789111Y-15156484D01*
X18874825Y-15356484D02*
X18874825Y-15251722D01*
X18874825Y-15251722D02*
X18865301Y-15232674D01*
X18865301Y-15232674D02*
X18846253Y-15223150D01*
X18846253Y-15223150D02*
X18817682Y-15223150D01*
X18817682Y-15223150D02*
X18798634Y-15232674D01*
X18798634Y-15232674D02*
X18789111Y-15242198D01*
X18998634Y-15356484D02*
X18979587Y-15346960D01*
X18979587Y-15346960D02*
X18970063Y-15337436D01*
X18970063Y-15337436D02*
X18960539Y-15318388D01*
X18960539Y-15318388D02*
X18960539Y-15261246D01*
X18960539Y-15261246D02*
X18970063Y-15242198D01*
X18970063Y-15242198D02*
X18979587Y-15232674D01*
X18979587Y-15232674D02*
X18998634Y-15223150D01*
X18998634Y-15223150D02*
X19027206Y-15223150D01*
X19027206Y-15223150D02*
X19046253Y-15232674D01*
X19046253Y-15232674D02*
X19055777Y-15242198D01*
X19055777Y-15242198D02*
X19065301Y-15261246D01*
X19065301Y-15261246D02*
X19065301Y-15318388D01*
X19065301Y-15318388D02*
X19055777Y-15337436D01*
X19055777Y-15337436D02*
X19046253Y-15346960D01*
X19046253Y-15346960D02*
X19027206Y-15356484D01*
X19027206Y-15356484D02*
X18998634Y-15356484D01*
X19179587Y-15356484D02*
X19160539Y-15346960D01*
X19160539Y-15346960D02*
X19151015Y-15327912D01*
X19151015Y-15327912D02*
X19151015Y-15156484D01*
X19331968Y-15346960D02*
X19312920Y-15356484D01*
X19312920Y-15356484D02*
X19274825Y-15356484D01*
X19274825Y-15356484D02*
X19255777Y-15346960D01*
X19255777Y-15346960D02*
X19246253Y-15327912D01*
X19246253Y-15327912D02*
X19246253Y-15251722D01*
X19246253Y-15251722D02*
X19255777Y-15232674D01*
X19255777Y-15232674D02*
X19274825Y-15223150D01*
X19274825Y-15223150D02*
X19312920Y-15223150D01*
X19312920Y-15223150D02*
X19331968Y-15232674D01*
X19331968Y-15232674D02*
X19341492Y-15251722D01*
X19341492Y-15251722D02*
X19341492Y-15270769D01*
X19341492Y-15270769D02*
X19246253Y-15289817D01*
X19417682Y-15346960D02*
X19436730Y-15356484D01*
X19436730Y-15356484D02*
X19474825Y-15356484D01*
X19474825Y-15356484D02*
X19493873Y-15346960D01*
X19493873Y-15346960D02*
X19503396Y-15327912D01*
X19503396Y-15327912D02*
X19503396Y-15318388D01*
X19503396Y-15318388D02*
X19493873Y-15299341D01*
X19493873Y-15299341D02*
X19474825Y-15289817D01*
X19474825Y-15289817D02*
X19446253Y-15289817D01*
X19446253Y-15289817D02*
X19427206Y-15280293D01*
X19427206Y-15280293D02*
X19417682Y-15261246D01*
X19417682Y-15261246D02*
X19417682Y-15251722D01*
X19417682Y-15251722D02*
X19427206Y-15232674D01*
X19427206Y-15232674D02*
X19446253Y-15223150D01*
X19446253Y-15223150D02*
X19474825Y-15223150D01*
X19474825Y-15223150D02*
X19493873Y-15232674D01*
X19570063Y-15432674D02*
X19579587Y-15423150D01*
X19579587Y-15423150D02*
X19598634Y-15394579D01*
X19598634Y-15394579D02*
X19608158Y-15375531D01*
X19608158Y-15375531D02*
X19617682Y-15346960D01*
X19617682Y-15346960D02*
X19627206Y-15299341D01*
X19627206Y-15299341D02*
X19627206Y-15261246D01*
X19627206Y-15261246D02*
X19617682Y-15213627D01*
X19617682Y-15213627D02*
X19608158Y-15185055D01*
X19608158Y-15185055D02*
X19598634Y-15166008D01*
X19598634Y-15166008D02*
X19579587Y-15137436D01*
X19579587Y-15137436D02*
X19570063Y-15127912D01*
D17*
X14620000Y-15441500D02*
X14795000Y-15616500D01*
X14795000Y-15441500D02*
X14620000Y-15616500D01*
X14707500Y-15441500D02*
X14707500Y-15616500D01*
X14620000Y-15529000D02*
X14795000Y-15529000D01*
D11*
X15160539Y-15620484D02*
X15046253Y-15620484D01*
X15103396Y-15620484D02*
X15103396Y-15420484D01*
X15103396Y-15420484D02*
X15084348Y-15449055D01*
X15084348Y-15449055D02*
X15065301Y-15468103D01*
X15065301Y-15468103D02*
X15046253Y-15477627D01*
X15246253Y-15601436D02*
X15255777Y-15610960D01*
X15255777Y-15610960D02*
X15246253Y-15620484D01*
X15246253Y-15620484D02*
X15236729Y-15610960D01*
X15236729Y-15610960D02*
X15246253Y-15601436D01*
X15246253Y-15601436D02*
X15246253Y-15620484D01*
X15322443Y-15420484D02*
X15455777Y-15420484D01*
X15455777Y-15420484D02*
X15370062Y-15620484D01*
X15627205Y-15420484D02*
X15531967Y-15420484D01*
X15531967Y-15420484D02*
X15522443Y-15515722D01*
X15522443Y-15515722D02*
X15531967Y-15506198D01*
X15531967Y-15506198D02*
X15551015Y-15496674D01*
X15551015Y-15496674D02*
X15598634Y-15496674D01*
X15598634Y-15496674D02*
X15617682Y-15506198D01*
X15617682Y-15506198D02*
X15627205Y-15515722D01*
X15627205Y-15515722D02*
X15636729Y-15534769D01*
X15636729Y-15534769D02*
X15636729Y-15582388D01*
X15636729Y-15582388D02*
X15627205Y-15601436D01*
X15627205Y-15601436D02*
X15617682Y-15610960D01*
X15617682Y-15610960D02*
X15598634Y-15620484D01*
X15598634Y-15620484D02*
X15551015Y-15620484D01*
X15551015Y-15620484D02*
X15531967Y-15610960D01*
X15531967Y-15610960D02*
X15522443Y-15601436D01*
X15760539Y-15420484D02*
X15779586Y-15420484D01*
X15779586Y-15420484D02*
X15798634Y-15430008D01*
X15798634Y-15430008D02*
X15808158Y-15439531D01*
X15808158Y-15439531D02*
X15817682Y-15458579D01*
X15817682Y-15458579D02*
X15827205Y-15496674D01*
X15827205Y-15496674D02*
X15827205Y-15544293D01*
X15827205Y-15544293D02*
X15817682Y-15582388D01*
X15817682Y-15582388D02*
X15808158Y-15601436D01*
X15808158Y-15601436D02*
X15798634Y-15610960D01*
X15798634Y-15610960D02*
X15779586Y-15620484D01*
X15779586Y-15620484D02*
X15760539Y-15620484D01*
X15760539Y-15620484D02*
X15741491Y-15610960D01*
X15741491Y-15610960D02*
X15731967Y-15601436D01*
X15731967Y-15601436D02*
X15722443Y-15582388D01*
X15722443Y-15582388D02*
X15712920Y-15544293D01*
X15712920Y-15544293D02*
X15712920Y-15496674D01*
X15712920Y-15496674D02*
X15722443Y-15458579D01*
X15722443Y-15458579D02*
X15731967Y-15439531D01*
X15731967Y-15439531D02*
X15741491Y-15430008D01*
X15741491Y-15430008D02*
X15760539Y-15420484D01*
X15912920Y-15620484D02*
X15912920Y-15487150D01*
X15912920Y-15506198D02*
X15922443Y-15496674D01*
X15922443Y-15496674D02*
X15941491Y-15487150D01*
X15941491Y-15487150D02*
X15970063Y-15487150D01*
X15970063Y-15487150D02*
X15989110Y-15496674D01*
X15989110Y-15496674D02*
X15998634Y-15515722D01*
X15998634Y-15515722D02*
X15998634Y-15620484D01*
X15998634Y-15515722D02*
X16008158Y-15496674D01*
X16008158Y-15496674D02*
X16027205Y-15487150D01*
X16027205Y-15487150D02*
X16055777Y-15487150D01*
X16055777Y-15487150D02*
X16074824Y-15496674D01*
X16074824Y-15496674D02*
X16084348Y-15515722D01*
X16084348Y-15515722D02*
X16084348Y-15620484D01*
X16179586Y-15620484D02*
X16179586Y-15487150D01*
X16179586Y-15506198D02*
X16189110Y-15496674D01*
X16189110Y-15496674D02*
X16208158Y-15487150D01*
X16208158Y-15487150D02*
X16236729Y-15487150D01*
X16236729Y-15487150D02*
X16255777Y-15496674D01*
X16255777Y-15496674D02*
X16265301Y-15515722D01*
X16265301Y-15515722D02*
X16265301Y-15620484D01*
X16265301Y-15515722D02*
X16274824Y-15496674D01*
X16274824Y-15496674D02*
X16293872Y-15487150D01*
X16293872Y-15487150D02*
X16322443Y-15487150D01*
X16322443Y-15487150D02*
X16341491Y-15496674D01*
X16341491Y-15496674D02*
X16351015Y-15515722D01*
X16351015Y-15515722D02*
X16351015Y-15620484D01*
X16741491Y-15410960D02*
X16570063Y-15668103D01*
X16998634Y-15420484D02*
X17017682Y-15420484D01*
X17017682Y-15420484D02*
X17036729Y-15430008D01*
X17036729Y-15430008D02*
X17046253Y-15439531D01*
X17046253Y-15439531D02*
X17055777Y-15458579D01*
X17055777Y-15458579D02*
X17065301Y-15496674D01*
X17065301Y-15496674D02*
X17065301Y-15544293D01*
X17065301Y-15544293D02*
X17055777Y-15582388D01*
X17055777Y-15582388D02*
X17046253Y-15601436D01*
X17046253Y-15601436D02*
X17036729Y-15610960D01*
X17036729Y-15610960D02*
X17017682Y-15620484D01*
X17017682Y-15620484D02*
X16998634Y-15620484D01*
X16998634Y-15620484D02*
X16979587Y-15610960D01*
X16979587Y-15610960D02*
X16970063Y-15601436D01*
X16970063Y-15601436D02*
X16960539Y-15582388D01*
X16960539Y-15582388D02*
X16951015Y-15544293D01*
X16951015Y-15544293D02*
X16951015Y-15496674D01*
X16951015Y-15496674D02*
X16960539Y-15458579D01*
X16960539Y-15458579D02*
X16970063Y-15439531D01*
X16970063Y-15439531D02*
X16979587Y-15430008D01*
X16979587Y-15430008D02*
X16998634Y-15420484D01*
X17151015Y-15601436D02*
X17160539Y-15610960D01*
X17160539Y-15610960D02*
X17151015Y-15620484D01*
X17151015Y-15620484D02*
X17141491Y-15610960D01*
X17141491Y-15610960D02*
X17151015Y-15601436D01*
X17151015Y-15601436D02*
X17151015Y-15620484D01*
X17284348Y-15420484D02*
X17303396Y-15420484D01*
X17303396Y-15420484D02*
X17322444Y-15430008D01*
X17322444Y-15430008D02*
X17331968Y-15439531D01*
X17331968Y-15439531D02*
X17341491Y-15458579D01*
X17341491Y-15458579D02*
X17351015Y-15496674D01*
X17351015Y-15496674D02*
X17351015Y-15544293D01*
X17351015Y-15544293D02*
X17341491Y-15582388D01*
X17341491Y-15582388D02*
X17331968Y-15601436D01*
X17331968Y-15601436D02*
X17322444Y-15610960D01*
X17322444Y-15610960D02*
X17303396Y-15620484D01*
X17303396Y-15620484D02*
X17284348Y-15620484D01*
X17284348Y-15620484D02*
X17265301Y-15610960D01*
X17265301Y-15610960D02*
X17255777Y-15601436D01*
X17255777Y-15601436D02*
X17246253Y-15582388D01*
X17246253Y-15582388D02*
X17236729Y-15544293D01*
X17236729Y-15544293D02*
X17236729Y-15496674D01*
X17236729Y-15496674D02*
X17246253Y-15458579D01*
X17246253Y-15458579D02*
X17255777Y-15439531D01*
X17255777Y-15439531D02*
X17265301Y-15430008D01*
X17265301Y-15430008D02*
X17284348Y-15420484D01*
X17522444Y-15420484D02*
X17484348Y-15420484D01*
X17484348Y-15420484D02*
X17465301Y-15430008D01*
X17465301Y-15430008D02*
X17455777Y-15439531D01*
X17455777Y-15439531D02*
X17436729Y-15468103D01*
X17436729Y-15468103D02*
X17427206Y-15506198D01*
X17427206Y-15506198D02*
X17427206Y-15582388D01*
X17427206Y-15582388D02*
X17436729Y-15601436D01*
X17436729Y-15601436D02*
X17446253Y-15610960D01*
X17446253Y-15610960D02*
X17465301Y-15620484D01*
X17465301Y-15620484D02*
X17503396Y-15620484D01*
X17503396Y-15620484D02*
X17522444Y-15610960D01*
X17522444Y-15610960D02*
X17531968Y-15601436D01*
X17531968Y-15601436D02*
X17541491Y-15582388D01*
X17541491Y-15582388D02*
X17541491Y-15534769D01*
X17541491Y-15534769D02*
X17531968Y-15515722D01*
X17531968Y-15515722D02*
X17522444Y-15506198D01*
X17522444Y-15506198D02*
X17503396Y-15496674D01*
X17503396Y-15496674D02*
X17465301Y-15496674D01*
X17465301Y-15496674D02*
X17446253Y-15506198D01*
X17446253Y-15506198D02*
X17436729Y-15515722D01*
X17436729Y-15515722D02*
X17427206Y-15534769D01*
X17655777Y-15506198D02*
X17636729Y-15496674D01*
X17636729Y-15496674D02*
X17627206Y-15487150D01*
X17627206Y-15487150D02*
X17617682Y-15468103D01*
X17617682Y-15468103D02*
X17617682Y-15458579D01*
X17617682Y-15458579D02*
X17627206Y-15439531D01*
X17627206Y-15439531D02*
X17636729Y-15430008D01*
X17636729Y-15430008D02*
X17655777Y-15420484D01*
X17655777Y-15420484D02*
X17693872Y-15420484D01*
X17693872Y-15420484D02*
X17712920Y-15430008D01*
X17712920Y-15430008D02*
X17722444Y-15439531D01*
X17722444Y-15439531D02*
X17731968Y-15458579D01*
X17731968Y-15458579D02*
X17731968Y-15468103D01*
X17731968Y-15468103D02*
X17722444Y-15487150D01*
X17722444Y-15487150D02*
X17712920Y-15496674D01*
X17712920Y-15496674D02*
X17693872Y-15506198D01*
X17693872Y-15506198D02*
X17655777Y-15506198D01*
X17655777Y-15506198D02*
X17636729Y-15515722D01*
X17636729Y-15515722D02*
X17627206Y-15525246D01*
X17627206Y-15525246D02*
X17617682Y-15544293D01*
X17617682Y-15544293D02*
X17617682Y-15582388D01*
X17617682Y-15582388D02*
X17627206Y-15601436D01*
X17627206Y-15601436D02*
X17636729Y-15610960D01*
X17636729Y-15610960D02*
X17655777Y-15620484D01*
X17655777Y-15620484D02*
X17693872Y-15620484D01*
X17693872Y-15620484D02*
X17712920Y-15610960D01*
X17712920Y-15610960D02*
X17722444Y-15601436D01*
X17722444Y-15601436D02*
X17731968Y-15582388D01*
X17731968Y-15582388D02*
X17731968Y-15544293D01*
X17731968Y-15544293D02*
X17722444Y-15525246D01*
X17722444Y-15525246D02*
X17712920Y-15515722D01*
X17712920Y-15515722D02*
X17693872Y-15506198D01*
X17827206Y-15620484D02*
X17865301Y-15620484D01*
X17865301Y-15620484D02*
X17884349Y-15610960D01*
X17884349Y-15610960D02*
X17893872Y-15601436D01*
X17893872Y-15601436D02*
X17912920Y-15572865D01*
X17912920Y-15572865D02*
X17922444Y-15534769D01*
X17922444Y-15534769D02*
X17922444Y-15458579D01*
X17922444Y-15458579D02*
X17912920Y-15439531D01*
X17912920Y-15439531D02*
X17903396Y-15430008D01*
X17903396Y-15430008D02*
X17884349Y-15420484D01*
X17884349Y-15420484D02*
X17846253Y-15420484D01*
X17846253Y-15420484D02*
X17827206Y-15430008D01*
X17827206Y-15430008D02*
X17817682Y-15439531D01*
X17817682Y-15439531D02*
X17808158Y-15458579D01*
X17808158Y-15458579D02*
X17808158Y-15506198D01*
X17808158Y-15506198D02*
X17817682Y-15525246D01*
X17817682Y-15525246D02*
X17827206Y-15534769D01*
X17827206Y-15534769D02*
X17846253Y-15544293D01*
X17846253Y-15544293D02*
X17884349Y-15544293D01*
X17884349Y-15544293D02*
X17903396Y-15534769D01*
X17903396Y-15534769D02*
X17912920Y-15525246D01*
X17912920Y-15525246D02*
X17922444Y-15506198D01*
X17998634Y-15420484D02*
X17998634Y-15458579D01*
X18074825Y-15420484D02*
X18074825Y-15458579D01*
X18370063Y-15696674D02*
X18360539Y-15687150D01*
X18360539Y-15687150D02*
X18341491Y-15658579D01*
X18341491Y-15658579D02*
X18331968Y-15639531D01*
X18331968Y-15639531D02*
X18322444Y-15610960D01*
X18322444Y-15610960D02*
X18312920Y-15563341D01*
X18312920Y-15563341D02*
X18312920Y-15525246D01*
X18312920Y-15525246D02*
X18322444Y-15477627D01*
X18322444Y-15477627D02*
X18331968Y-15449055D01*
X18331968Y-15449055D02*
X18341491Y-15430008D01*
X18341491Y-15430008D02*
X18360539Y-15401436D01*
X18360539Y-15401436D02*
X18370063Y-15391912D01*
X18551015Y-15620484D02*
X18436730Y-15620484D01*
X18493872Y-15620484D02*
X18493872Y-15420484D01*
X18493872Y-15420484D02*
X18474825Y-15449055D01*
X18474825Y-15449055D02*
X18455777Y-15468103D01*
X18455777Y-15468103D02*
X18436730Y-15477627D01*
X18627206Y-15439531D02*
X18636730Y-15430008D01*
X18636730Y-15430008D02*
X18655777Y-15420484D01*
X18655777Y-15420484D02*
X18703396Y-15420484D01*
X18703396Y-15420484D02*
X18722444Y-15430008D01*
X18722444Y-15430008D02*
X18731968Y-15439531D01*
X18731968Y-15439531D02*
X18741491Y-15458579D01*
X18741491Y-15458579D02*
X18741491Y-15477627D01*
X18741491Y-15477627D02*
X18731968Y-15506198D01*
X18731968Y-15506198D02*
X18617682Y-15620484D01*
X18617682Y-15620484D02*
X18741491Y-15620484D01*
X18979587Y-15620484D02*
X18979587Y-15420484D01*
X19065301Y-15620484D02*
X19065301Y-15515722D01*
X19065301Y-15515722D02*
X19055777Y-15496674D01*
X19055777Y-15496674D02*
X19036730Y-15487150D01*
X19036730Y-15487150D02*
X19008158Y-15487150D01*
X19008158Y-15487150D02*
X18989111Y-15496674D01*
X18989111Y-15496674D02*
X18979587Y-15506198D01*
X19189111Y-15620484D02*
X19170063Y-15610960D01*
X19170063Y-15610960D02*
X19160539Y-15601436D01*
X19160539Y-15601436D02*
X19151015Y-15582388D01*
X19151015Y-15582388D02*
X19151015Y-15525246D01*
X19151015Y-15525246D02*
X19160539Y-15506198D01*
X19160539Y-15506198D02*
X19170063Y-15496674D01*
X19170063Y-15496674D02*
X19189111Y-15487150D01*
X19189111Y-15487150D02*
X19217682Y-15487150D01*
X19217682Y-15487150D02*
X19236730Y-15496674D01*
X19236730Y-15496674D02*
X19246253Y-15506198D01*
X19246253Y-15506198D02*
X19255777Y-15525246D01*
X19255777Y-15525246D02*
X19255777Y-15582388D01*
X19255777Y-15582388D02*
X19246253Y-15601436D01*
X19246253Y-15601436D02*
X19236730Y-15610960D01*
X19236730Y-15610960D02*
X19217682Y-15620484D01*
X19217682Y-15620484D02*
X19189111Y-15620484D01*
X19370063Y-15620484D02*
X19351015Y-15610960D01*
X19351015Y-15610960D02*
X19341492Y-15591912D01*
X19341492Y-15591912D02*
X19341492Y-15420484D01*
X19522444Y-15610960D02*
X19503396Y-15620484D01*
X19503396Y-15620484D02*
X19465301Y-15620484D01*
X19465301Y-15620484D02*
X19446253Y-15610960D01*
X19446253Y-15610960D02*
X19436730Y-15591912D01*
X19436730Y-15591912D02*
X19436730Y-15515722D01*
X19436730Y-15515722D02*
X19446253Y-15496674D01*
X19446253Y-15496674D02*
X19465301Y-15487150D01*
X19465301Y-15487150D02*
X19503396Y-15487150D01*
X19503396Y-15487150D02*
X19522444Y-15496674D01*
X19522444Y-15496674D02*
X19531968Y-15515722D01*
X19531968Y-15515722D02*
X19531968Y-15534769D01*
X19531968Y-15534769D02*
X19436730Y-15553817D01*
X19608158Y-15610960D02*
X19627206Y-15620484D01*
X19627206Y-15620484D02*
X19665301Y-15620484D01*
X19665301Y-15620484D02*
X19684349Y-15610960D01*
X19684349Y-15610960D02*
X19693873Y-15591912D01*
X19693873Y-15591912D02*
X19693873Y-15582388D01*
X19693873Y-15582388D02*
X19684349Y-15563341D01*
X19684349Y-15563341D02*
X19665301Y-15553817D01*
X19665301Y-15553817D02*
X19636730Y-15553817D01*
X19636730Y-15553817D02*
X19617682Y-15544293D01*
X19617682Y-15544293D02*
X19608158Y-15525246D01*
X19608158Y-15525246D02*
X19608158Y-15515722D01*
X19608158Y-15515722D02*
X19617682Y-15496674D01*
X19617682Y-15496674D02*
X19636730Y-15487150D01*
X19636730Y-15487150D02*
X19665301Y-15487150D01*
X19665301Y-15487150D02*
X19684349Y-15496674D01*
X19760539Y-15696674D02*
X19770063Y-15687150D01*
X19770063Y-15687150D02*
X19789111Y-15658579D01*
X19789111Y-15658579D02*
X19798634Y-15639531D01*
X19798634Y-15639531D02*
X19808158Y-15610960D01*
X19808158Y-15610960D02*
X19817682Y-15563341D01*
X19817682Y-15563341D02*
X19817682Y-15525246D01*
X19817682Y-15525246D02*
X19808158Y-15477627D01*
X19808158Y-15477627D02*
X19798634Y-15449055D01*
X19798634Y-15449055D02*
X19789111Y-15430008D01*
X19789111Y-15430008D02*
X19770063Y-15401436D01*
X19770063Y-15401436D02*
X19760539Y-15391912D01*
M02*
