%TF.GenerationSoftware,KiCad,Pcbnew,7.0.6*%
%TF.CreationDate,2024-08-25T10:20:08-07:00*%
%TF.ProjectId,Guitar_waveform_proj,47756974-6172-45f7-9761-7665666f726d,rev?*%
%TF.SameCoordinates,Original*%
%TF.FileFunction,Legend,Bot*%
%TF.FilePolarity,Positive*%
%FSLAX46Y46*%
G04 Gerber Fmt 4.6, Leading zero omitted, Abs format (unit mm)*
G04 Created by KiCad (PCBNEW 7.0.6) date 2024-08-25 10:20:08*
%MOMM*%
%LPD*%
G01*
G04 APERTURE LIST*
%ADD10R,1.200000X1.200000*%
%ADD11C,1.200000*%
%ADD12R,2.400000X1.600000*%
%ADD13O,2.400000X1.600000*%
%ADD14C,1.600000*%
%ADD15C,2.200000*%
%ADD16O,1.600000X1.600000*%
%ADD17R,2.200000X2.200000*%
%ADD18O,2.200000X2.200000*%
%ADD19C,3.000000*%
%ADD20R,1.500000X1.500000*%
%ADD21C,1.500000*%
%ADD22R,1.600000X1.600000*%
%ADD23C,2.000000*%
%ADD24R,1.700000X1.700000*%
%ADD25O,1.700000X1.700000*%
%ADD26C,1.570000*%
G04 APERTURE END LIST*
%LPC*%
D10*
%TO.C,C5*%
X165735000Y-102870000D03*
D11*
X164235000Y-102870000D03*
%TD*%
D12*
%TO.C,U3*%
X177150000Y-72390000D03*
D13*
X177150000Y-74930000D03*
X177150000Y-77470000D03*
X177150000Y-80010000D03*
X177150000Y-82550000D03*
X177150000Y-85090000D03*
X177150000Y-87630000D03*
X184770000Y-87630000D03*
X184770000Y-85090000D03*
X184770000Y-82550000D03*
X184770000Y-80010000D03*
X184770000Y-77470000D03*
X184770000Y-74930000D03*
X184770000Y-72390000D03*
%TD*%
D14*
%TO.C,C8*%
X155600000Y-81280000D03*
X160600000Y-81280000D03*
%TD*%
D15*
%TO.C,H1*%
X173250000Y-38000000D03*
%TD*%
D14*
%TO.C,R8*%
X173340000Y-85090000D03*
D16*
X173340000Y-74930000D03*
%TD*%
D14*
%TO.C,R10*%
X158115000Y-94615000D03*
D16*
X168275000Y-94615000D03*
%TD*%
D17*
%TO.C,D1*%
X177800000Y-36830000D03*
D18*
X185420000Y-36830000D03*
%TD*%
D19*
%TO.C,J2*%
X187750000Y-45250000D03*
X187750000Y-61750000D03*
X194250000Y-45250000D03*
X194250000Y-61750000D03*
X181250000Y-45250000D03*
X181250000Y-61750000D03*
%TD*%
D10*
%TO.C,C4*%
X154535000Y-102870000D03*
D11*
X153035000Y-102870000D03*
%TD*%
D10*
%TO.C,C2*%
X151535000Y-39370000D03*
D11*
X150035000Y-39370000D03*
%TD*%
D17*
%TO.C,D2*%
X185420000Y-40640000D03*
D18*
X177800000Y-40640000D03*
%TD*%
D14*
%TO.C,R5*%
X165720000Y-78105000D03*
D16*
X165720000Y-67945000D03*
%TD*%
D14*
%TO.C,R1*%
X173990000Y-33250000D03*
D16*
X184150000Y-33250000D03*
%TD*%
D14*
%TO.C,R7*%
X169545000Y-85090000D03*
D16*
X159385000Y-85090000D03*
%TD*%
D14*
%TO.C,R6*%
X168895000Y-67945000D03*
D16*
X168895000Y-78105000D03*
%TD*%
D20*
%TO.C,Q1*%
X168910000Y-33655000D03*
D21*
X166370000Y-33655000D03*
X163830000Y-33655000D03*
%TD*%
D22*
%TO.C,C1*%
X191770000Y-35812349D03*
D14*
X191770000Y-39312349D03*
%TD*%
%TO.C,R4*%
X162545000Y-78105000D03*
D16*
X162545000Y-67945000D03*
%TD*%
D23*
%TO.C,U5*%
X193040000Y-73660000D03*
X193040000Y-76200000D03*
X193040000Y-78740000D03*
X193040000Y-81280000D03*
X193040000Y-83820000D03*
X193040000Y-86360000D03*
X193040000Y-88900000D03*
X193040000Y-91440000D03*
X193040000Y-93980000D03*
X193040000Y-96520000D03*
X193040000Y-99060000D03*
%TD*%
D22*
%TO.C,C3*%
X152385000Y-78740000D03*
D14*
X150385000Y-78740000D03*
%TD*%
D15*
%TO.C,H3*%
X193250000Y-117000000D03*
%TD*%
D24*
%TO.C,RV2*%
X169545000Y-89535000D03*
D25*
X167005000Y-89535000D03*
X164465000Y-89535000D03*
%TD*%
D20*
%TO.C,Q2*%
X172360000Y-97155000D03*
D21*
X172360000Y-99695000D03*
X172360000Y-102235000D03*
%TD*%
D24*
%TO.C,U2*%
X156845000Y-38735000D03*
D25*
X159385000Y-38735000D03*
X161925000Y-38735000D03*
X164465000Y-38735000D03*
%TD*%
D14*
%TO.C,R2*%
X159370000Y-67945000D03*
D16*
X159370000Y-78105000D03*
%TD*%
D24*
%TO.C,U1*%
X159390000Y-33655000D03*
D25*
X156850000Y-33655000D03*
%TD*%
D20*
%TO.C,Q3*%
X178075000Y-97155000D03*
D21*
X178075000Y-99695000D03*
X178075000Y-102235000D03*
%TD*%
D22*
%TO.C,D3*%
X182880000Y-94615000D03*
D16*
X175260000Y-94615000D03*
%TD*%
D10*
%TO.C,C6*%
X190095000Y-69215000D03*
D11*
X188595000Y-69215000D03*
%TD*%
D10*
%TO.C,C7*%
X176935000Y-67310000D03*
D11*
X175435000Y-67310000D03*
%TD*%
D15*
%TO.C,H2*%
X153250000Y-117000000D03*
%TD*%
D26*
%TO.C,U4*%
X154392000Y-128246000D03*
X156932000Y-128246000D03*
X159472000Y-128246000D03*
X162012000Y-128246000D03*
X164552000Y-128246000D03*
X167092000Y-128246000D03*
X169632000Y-128246000D03*
X172172000Y-128246000D03*
X174712000Y-128246000D03*
X177252000Y-128246000D03*
X179792000Y-128246000D03*
X182332000Y-128246000D03*
X184872000Y-128246000D03*
X187412000Y-128246000D03*
X189952000Y-128246000D03*
X192492000Y-128246000D03*
X192492000Y-107774000D03*
X189952000Y-107774000D03*
X187412000Y-107774000D03*
X184872000Y-107774000D03*
X182332000Y-107774000D03*
X179792000Y-107774000D03*
X177252000Y-107774000D03*
X174712000Y-107774000D03*
X172172000Y-107774000D03*
X169632000Y-107774000D03*
X167092000Y-107774000D03*
X164552000Y-107774000D03*
%TD*%
D14*
%TO.C,C10*%
X161290000Y-89535000D03*
X156290000Y-89535000D03*
%TD*%
D24*
%TO.C,RV1*%
X152385000Y-68580000D03*
D25*
X152385000Y-71120000D03*
X152385000Y-73660000D03*
%TD*%
D14*
%TO.C,R3*%
X156195000Y-78105000D03*
D16*
X156195000Y-67945000D03*
%TD*%
D14*
%TO.C,R11*%
X168275000Y-98425000D03*
D16*
X158115000Y-98425000D03*
%TD*%
D14*
%TO.C,C9*%
X170125000Y-81280000D03*
X165125000Y-81280000D03*
%TD*%
%TO.C,R9*%
X182880000Y-91440000D03*
D16*
X172720000Y-91440000D03*
%TD*%
D19*
%TO.C,J1*%
X158750000Y-61750000D03*
X158750000Y-45250000D03*
X152250000Y-61750000D03*
X152250000Y-45250000D03*
X165250000Y-61750000D03*
X165250000Y-45250000D03*
%TD*%
%LPD*%
M02*
