%TF.GenerationSoftware,KiCad,Pcbnew,7.0.6*%
%TF.CreationDate,2024-08-25T10:22:35-07:00*%
%TF.ProjectId,Guitar_waveform_proj,47756974-6172-45f7-9761-7665666f726d,rev?*%
%TF.SameCoordinates,Original*%
%TF.FileFunction,Drillmap*%
%TF.FilePolarity,Positive*%
%FSLAX45Y45*%
G04 Gerber Fmt 4.5, Leading zero omitted, Abs format (unit mm)*
G04 Created by KiCad (PCBNEW 7.0.6) date 2024-08-25 10:22:35*
%MOMM*%
%LPD*%
G01*
G04 APERTURE LIST*
%ADD10C,0.100000*%
%ADD11C,0.200000*%
%ADD12C,0.220000*%
G04 APERTURE END LIST*
D10*
X15200000Y-3100000D02*
X19450000Y-3100000D01*
X19450000Y-3100000D02*
G75*
G03*
X19850000Y-3500000I400000J0D01*
G01*
X19450000Y-13300000D02*
X15200000Y-13300000D01*
X14800000Y-3500000D02*
G75*
G03*
X15200000Y-3100000I0J400000D01*
G01*
X14800000Y-12900000D02*
X14800000Y-3500000D01*
X15200000Y-13300000D02*
G75*
G03*
X14800000Y-12900000I-400000J0D01*
G01*
X19850000Y-3500000D02*
X19850000Y-12900000D01*
X19850000Y-12900000D02*
G75*
G03*
X19450000Y-13300000I0J-400000D01*
G01*
D11*
D12*
X15215000Y-11590000D02*
X15435000Y-11810000D01*
X15435000Y-11590000D02*
X15215000Y-11810000D01*
X17215000Y-3690000D02*
X17435000Y-3910000D01*
X17435000Y-3690000D02*
X17215000Y-3910000D01*
X19215000Y-11590000D02*
X19435000Y-11810000D01*
X19435000Y-11590000D02*
X19215000Y-11810000D01*
D11*
X15055777Y-13616484D02*
X15055777Y-13416484D01*
X15055777Y-13416484D02*
X15103396Y-13416484D01*
X15103396Y-13416484D02*
X15131967Y-13426008D01*
X15131967Y-13426008D02*
X15151015Y-13445055D01*
X15151015Y-13445055D02*
X15160539Y-13464103D01*
X15160539Y-13464103D02*
X15170062Y-13502198D01*
X15170062Y-13502198D02*
X15170062Y-13530769D01*
X15170062Y-13530769D02*
X15160539Y-13568865D01*
X15160539Y-13568865D02*
X15151015Y-13587912D01*
X15151015Y-13587912D02*
X15131967Y-13606960D01*
X15131967Y-13606960D02*
X15103396Y-13616484D01*
X15103396Y-13616484D02*
X15055777Y-13616484D01*
X15255777Y-13616484D02*
X15255777Y-13483150D01*
X15255777Y-13521246D02*
X15265301Y-13502198D01*
X15265301Y-13502198D02*
X15274824Y-13492674D01*
X15274824Y-13492674D02*
X15293872Y-13483150D01*
X15293872Y-13483150D02*
X15312920Y-13483150D01*
X15379586Y-13616484D02*
X15379586Y-13483150D01*
X15379586Y-13416484D02*
X15370062Y-13426008D01*
X15370062Y-13426008D02*
X15379586Y-13435531D01*
X15379586Y-13435531D02*
X15389110Y-13426008D01*
X15389110Y-13426008D02*
X15379586Y-13416484D01*
X15379586Y-13416484D02*
X15379586Y-13435531D01*
X15503396Y-13616484D02*
X15484348Y-13606960D01*
X15484348Y-13606960D02*
X15474824Y-13587912D01*
X15474824Y-13587912D02*
X15474824Y-13416484D01*
X15608158Y-13616484D02*
X15589110Y-13606960D01*
X15589110Y-13606960D02*
X15579586Y-13587912D01*
X15579586Y-13587912D02*
X15579586Y-13416484D01*
X15836729Y-13616484D02*
X15836729Y-13416484D01*
X15836729Y-13416484D02*
X15903396Y-13559341D01*
X15903396Y-13559341D02*
X15970062Y-13416484D01*
X15970062Y-13416484D02*
X15970062Y-13616484D01*
X16151015Y-13616484D02*
X16151015Y-13511722D01*
X16151015Y-13511722D02*
X16141491Y-13492674D01*
X16141491Y-13492674D02*
X16122443Y-13483150D01*
X16122443Y-13483150D02*
X16084348Y-13483150D01*
X16084348Y-13483150D02*
X16065301Y-13492674D01*
X16151015Y-13606960D02*
X16131967Y-13616484D01*
X16131967Y-13616484D02*
X16084348Y-13616484D01*
X16084348Y-13616484D02*
X16065301Y-13606960D01*
X16065301Y-13606960D02*
X16055777Y-13587912D01*
X16055777Y-13587912D02*
X16055777Y-13568865D01*
X16055777Y-13568865D02*
X16065301Y-13549817D01*
X16065301Y-13549817D02*
X16084348Y-13540293D01*
X16084348Y-13540293D02*
X16131967Y-13540293D01*
X16131967Y-13540293D02*
X16151015Y-13530769D01*
X16246253Y-13483150D02*
X16246253Y-13683150D01*
X16246253Y-13492674D02*
X16265301Y-13483150D01*
X16265301Y-13483150D02*
X16303396Y-13483150D01*
X16303396Y-13483150D02*
X16322443Y-13492674D01*
X16322443Y-13492674D02*
X16331967Y-13502198D01*
X16331967Y-13502198D02*
X16341491Y-13521246D01*
X16341491Y-13521246D02*
X16341491Y-13578388D01*
X16341491Y-13578388D02*
X16331967Y-13597436D01*
X16331967Y-13597436D02*
X16322443Y-13606960D01*
X16322443Y-13606960D02*
X16303396Y-13616484D01*
X16303396Y-13616484D02*
X16265301Y-13616484D01*
X16265301Y-13616484D02*
X16246253Y-13606960D01*
X16427205Y-13597436D02*
X16436729Y-13606960D01*
X16436729Y-13606960D02*
X16427205Y-13616484D01*
X16427205Y-13616484D02*
X16417682Y-13606960D01*
X16417682Y-13606960D02*
X16427205Y-13597436D01*
X16427205Y-13597436D02*
X16427205Y-13616484D01*
X16427205Y-13492674D02*
X16436729Y-13502198D01*
X16436729Y-13502198D02*
X16427205Y-13511722D01*
X16427205Y-13511722D02*
X16417682Y-13502198D01*
X16417682Y-13502198D02*
X16427205Y-13492674D01*
X16427205Y-13492674D02*
X16427205Y-13511722D01*
X14595000Y-13845000D02*
X14795000Y-14045000D01*
X14795000Y-13845000D02*
X14595000Y-14045000D01*
X15046253Y-13855531D02*
X15055777Y-13846008D01*
X15055777Y-13846008D02*
X15074824Y-13836484D01*
X15074824Y-13836484D02*
X15122443Y-13836484D01*
X15122443Y-13836484D02*
X15141491Y-13846008D01*
X15141491Y-13846008D02*
X15151015Y-13855531D01*
X15151015Y-13855531D02*
X15160539Y-13874579D01*
X15160539Y-13874579D02*
X15160539Y-13893627D01*
X15160539Y-13893627D02*
X15151015Y-13922198D01*
X15151015Y-13922198D02*
X15036729Y-14036484D01*
X15036729Y-14036484D02*
X15160539Y-14036484D01*
X15246253Y-14017436D02*
X15255777Y-14026960D01*
X15255777Y-14026960D02*
X15246253Y-14036484D01*
X15246253Y-14036484D02*
X15236729Y-14026960D01*
X15236729Y-14026960D02*
X15246253Y-14017436D01*
X15246253Y-14017436D02*
X15246253Y-14036484D01*
X15331967Y-13855531D02*
X15341491Y-13846008D01*
X15341491Y-13846008D02*
X15360539Y-13836484D01*
X15360539Y-13836484D02*
X15408158Y-13836484D01*
X15408158Y-13836484D02*
X15427205Y-13846008D01*
X15427205Y-13846008D02*
X15436729Y-13855531D01*
X15436729Y-13855531D02*
X15446253Y-13874579D01*
X15446253Y-13874579D02*
X15446253Y-13893627D01*
X15446253Y-13893627D02*
X15436729Y-13922198D01*
X15436729Y-13922198D02*
X15322443Y-14036484D01*
X15322443Y-14036484D02*
X15446253Y-14036484D01*
X15570062Y-13836484D02*
X15589110Y-13836484D01*
X15589110Y-13836484D02*
X15608158Y-13846008D01*
X15608158Y-13846008D02*
X15617682Y-13855531D01*
X15617682Y-13855531D02*
X15627205Y-13874579D01*
X15627205Y-13874579D02*
X15636729Y-13912674D01*
X15636729Y-13912674D02*
X15636729Y-13960293D01*
X15636729Y-13960293D02*
X15627205Y-13998388D01*
X15627205Y-13998388D02*
X15617682Y-14017436D01*
X15617682Y-14017436D02*
X15608158Y-14026960D01*
X15608158Y-14026960D02*
X15589110Y-14036484D01*
X15589110Y-14036484D02*
X15570062Y-14036484D01*
X15570062Y-14036484D02*
X15551015Y-14026960D01*
X15551015Y-14026960D02*
X15541491Y-14017436D01*
X15541491Y-14017436D02*
X15531967Y-13998388D01*
X15531967Y-13998388D02*
X15522443Y-13960293D01*
X15522443Y-13960293D02*
X15522443Y-13912674D01*
X15522443Y-13912674D02*
X15531967Y-13874579D01*
X15531967Y-13874579D02*
X15541491Y-13855531D01*
X15541491Y-13855531D02*
X15551015Y-13846008D01*
X15551015Y-13846008D02*
X15570062Y-13836484D01*
X15760539Y-13836484D02*
X15779586Y-13836484D01*
X15779586Y-13836484D02*
X15798634Y-13846008D01*
X15798634Y-13846008D02*
X15808158Y-13855531D01*
X15808158Y-13855531D02*
X15817682Y-13874579D01*
X15817682Y-13874579D02*
X15827205Y-13912674D01*
X15827205Y-13912674D02*
X15827205Y-13960293D01*
X15827205Y-13960293D02*
X15817682Y-13998388D01*
X15817682Y-13998388D02*
X15808158Y-14017436D01*
X15808158Y-14017436D02*
X15798634Y-14026960D01*
X15798634Y-14026960D02*
X15779586Y-14036484D01*
X15779586Y-14036484D02*
X15760539Y-14036484D01*
X15760539Y-14036484D02*
X15741491Y-14026960D01*
X15741491Y-14026960D02*
X15731967Y-14017436D01*
X15731967Y-14017436D02*
X15722443Y-13998388D01*
X15722443Y-13998388D02*
X15712920Y-13960293D01*
X15712920Y-13960293D02*
X15712920Y-13912674D01*
X15712920Y-13912674D02*
X15722443Y-13874579D01*
X15722443Y-13874579D02*
X15731967Y-13855531D01*
X15731967Y-13855531D02*
X15741491Y-13846008D01*
X15741491Y-13846008D02*
X15760539Y-13836484D01*
X15912920Y-14036484D02*
X15912920Y-13903150D01*
X15912920Y-13922198D02*
X15922443Y-13912674D01*
X15922443Y-13912674D02*
X15941491Y-13903150D01*
X15941491Y-13903150D02*
X15970063Y-13903150D01*
X15970063Y-13903150D02*
X15989110Y-13912674D01*
X15989110Y-13912674D02*
X15998634Y-13931722D01*
X15998634Y-13931722D02*
X15998634Y-14036484D01*
X15998634Y-13931722D02*
X16008158Y-13912674D01*
X16008158Y-13912674D02*
X16027205Y-13903150D01*
X16027205Y-13903150D02*
X16055777Y-13903150D01*
X16055777Y-13903150D02*
X16074824Y-13912674D01*
X16074824Y-13912674D02*
X16084348Y-13931722D01*
X16084348Y-13931722D02*
X16084348Y-14036484D01*
X16179586Y-14036484D02*
X16179586Y-13903150D01*
X16179586Y-13922198D02*
X16189110Y-13912674D01*
X16189110Y-13912674D02*
X16208158Y-13903150D01*
X16208158Y-13903150D02*
X16236729Y-13903150D01*
X16236729Y-13903150D02*
X16255777Y-13912674D01*
X16255777Y-13912674D02*
X16265301Y-13931722D01*
X16265301Y-13931722D02*
X16265301Y-14036484D01*
X16265301Y-13931722D02*
X16274824Y-13912674D01*
X16274824Y-13912674D02*
X16293872Y-13903150D01*
X16293872Y-13903150D02*
X16322443Y-13903150D01*
X16322443Y-13903150D02*
X16341491Y-13912674D01*
X16341491Y-13912674D02*
X16351015Y-13931722D01*
X16351015Y-13931722D02*
X16351015Y-14036484D01*
X16741491Y-13826960D02*
X16570063Y-14084103D01*
X16998634Y-13836484D02*
X17017682Y-13836484D01*
X17017682Y-13836484D02*
X17036729Y-13846008D01*
X17036729Y-13846008D02*
X17046253Y-13855531D01*
X17046253Y-13855531D02*
X17055777Y-13874579D01*
X17055777Y-13874579D02*
X17065301Y-13912674D01*
X17065301Y-13912674D02*
X17065301Y-13960293D01*
X17065301Y-13960293D02*
X17055777Y-13998388D01*
X17055777Y-13998388D02*
X17046253Y-14017436D01*
X17046253Y-14017436D02*
X17036729Y-14026960D01*
X17036729Y-14026960D02*
X17017682Y-14036484D01*
X17017682Y-14036484D02*
X16998634Y-14036484D01*
X16998634Y-14036484D02*
X16979587Y-14026960D01*
X16979587Y-14026960D02*
X16970063Y-14017436D01*
X16970063Y-14017436D02*
X16960539Y-13998388D01*
X16960539Y-13998388D02*
X16951015Y-13960293D01*
X16951015Y-13960293D02*
X16951015Y-13912674D01*
X16951015Y-13912674D02*
X16960539Y-13874579D01*
X16960539Y-13874579D02*
X16970063Y-13855531D01*
X16970063Y-13855531D02*
X16979587Y-13846008D01*
X16979587Y-13846008D02*
X16998634Y-13836484D01*
X17151015Y-14017436D02*
X17160539Y-14026960D01*
X17160539Y-14026960D02*
X17151015Y-14036484D01*
X17151015Y-14036484D02*
X17141491Y-14026960D01*
X17141491Y-14026960D02*
X17151015Y-14017436D01*
X17151015Y-14017436D02*
X17151015Y-14036484D01*
X17284348Y-13836484D02*
X17303396Y-13836484D01*
X17303396Y-13836484D02*
X17322444Y-13846008D01*
X17322444Y-13846008D02*
X17331968Y-13855531D01*
X17331968Y-13855531D02*
X17341491Y-13874579D01*
X17341491Y-13874579D02*
X17351015Y-13912674D01*
X17351015Y-13912674D02*
X17351015Y-13960293D01*
X17351015Y-13960293D02*
X17341491Y-13998388D01*
X17341491Y-13998388D02*
X17331968Y-14017436D01*
X17331968Y-14017436D02*
X17322444Y-14026960D01*
X17322444Y-14026960D02*
X17303396Y-14036484D01*
X17303396Y-14036484D02*
X17284348Y-14036484D01*
X17284348Y-14036484D02*
X17265301Y-14026960D01*
X17265301Y-14026960D02*
X17255777Y-14017436D01*
X17255777Y-14017436D02*
X17246253Y-13998388D01*
X17246253Y-13998388D02*
X17236729Y-13960293D01*
X17236729Y-13960293D02*
X17236729Y-13912674D01*
X17236729Y-13912674D02*
X17246253Y-13874579D01*
X17246253Y-13874579D02*
X17255777Y-13855531D01*
X17255777Y-13855531D02*
X17265301Y-13846008D01*
X17265301Y-13846008D02*
X17284348Y-13836484D01*
X17465301Y-13922198D02*
X17446253Y-13912674D01*
X17446253Y-13912674D02*
X17436729Y-13903150D01*
X17436729Y-13903150D02*
X17427206Y-13884103D01*
X17427206Y-13884103D02*
X17427206Y-13874579D01*
X17427206Y-13874579D02*
X17436729Y-13855531D01*
X17436729Y-13855531D02*
X17446253Y-13846008D01*
X17446253Y-13846008D02*
X17465301Y-13836484D01*
X17465301Y-13836484D02*
X17503396Y-13836484D01*
X17503396Y-13836484D02*
X17522444Y-13846008D01*
X17522444Y-13846008D02*
X17531968Y-13855531D01*
X17531968Y-13855531D02*
X17541491Y-13874579D01*
X17541491Y-13874579D02*
X17541491Y-13884103D01*
X17541491Y-13884103D02*
X17531968Y-13903150D01*
X17531968Y-13903150D02*
X17522444Y-13912674D01*
X17522444Y-13912674D02*
X17503396Y-13922198D01*
X17503396Y-13922198D02*
X17465301Y-13922198D01*
X17465301Y-13922198D02*
X17446253Y-13931722D01*
X17446253Y-13931722D02*
X17436729Y-13941246D01*
X17436729Y-13941246D02*
X17427206Y-13960293D01*
X17427206Y-13960293D02*
X17427206Y-13998388D01*
X17427206Y-13998388D02*
X17436729Y-14017436D01*
X17436729Y-14017436D02*
X17446253Y-14026960D01*
X17446253Y-14026960D02*
X17465301Y-14036484D01*
X17465301Y-14036484D02*
X17503396Y-14036484D01*
X17503396Y-14036484D02*
X17522444Y-14026960D01*
X17522444Y-14026960D02*
X17531968Y-14017436D01*
X17531968Y-14017436D02*
X17541491Y-13998388D01*
X17541491Y-13998388D02*
X17541491Y-13960293D01*
X17541491Y-13960293D02*
X17531968Y-13941246D01*
X17531968Y-13941246D02*
X17522444Y-13931722D01*
X17522444Y-13931722D02*
X17503396Y-13922198D01*
X17712920Y-13836484D02*
X17674825Y-13836484D01*
X17674825Y-13836484D02*
X17655777Y-13846008D01*
X17655777Y-13846008D02*
X17646253Y-13855531D01*
X17646253Y-13855531D02*
X17627206Y-13884103D01*
X17627206Y-13884103D02*
X17617682Y-13922198D01*
X17617682Y-13922198D02*
X17617682Y-13998388D01*
X17617682Y-13998388D02*
X17627206Y-14017436D01*
X17627206Y-14017436D02*
X17636729Y-14026960D01*
X17636729Y-14026960D02*
X17655777Y-14036484D01*
X17655777Y-14036484D02*
X17693872Y-14036484D01*
X17693872Y-14036484D02*
X17712920Y-14026960D01*
X17712920Y-14026960D02*
X17722444Y-14017436D01*
X17722444Y-14017436D02*
X17731968Y-13998388D01*
X17731968Y-13998388D02*
X17731968Y-13950769D01*
X17731968Y-13950769D02*
X17722444Y-13931722D01*
X17722444Y-13931722D02*
X17712920Y-13922198D01*
X17712920Y-13922198D02*
X17693872Y-13912674D01*
X17693872Y-13912674D02*
X17655777Y-13912674D01*
X17655777Y-13912674D02*
X17636729Y-13922198D01*
X17636729Y-13922198D02*
X17627206Y-13931722D01*
X17627206Y-13931722D02*
X17617682Y-13950769D01*
X17903396Y-13836484D02*
X17865301Y-13836484D01*
X17865301Y-13836484D02*
X17846253Y-13846008D01*
X17846253Y-13846008D02*
X17836729Y-13855531D01*
X17836729Y-13855531D02*
X17817682Y-13884103D01*
X17817682Y-13884103D02*
X17808158Y-13922198D01*
X17808158Y-13922198D02*
X17808158Y-13998388D01*
X17808158Y-13998388D02*
X17817682Y-14017436D01*
X17817682Y-14017436D02*
X17827206Y-14026960D01*
X17827206Y-14026960D02*
X17846253Y-14036484D01*
X17846253Y-14036484D02*
X17884349Y-14036484D01*
X17884349Y-14036484D02*
X17903396Y-14026960D01*
X17903396Y-14026960D02*
X17912920Y-14017436D01*
X17912920Y-14017436D02*
X17922444Y-13998388D01*
X17922444Y-13998388D02*
X17922444Y-13950769D01*
X17922444Y-13950769D02*
X17912920Y-13931722D01*
X17912920Y-13931722D02*
X17903396Y-13922198D01*
X17903396Y-13922198D02*
X17884349Y-13912674D01*
X17884349Y-13912674D02*
X17846253Y-13912674D01*
X17846253Y-13912674D02*
X17827206Y-13922198D01*
X17827206Y-13922198D02*
X17817682Y-13931722D01*
X17817682Y-13931722D02*
X17808158Y-13950769D01*
X17998634Y-13836484D02*
X17998634Y-13874579D01*
X18074825Y-13836484D02*
X18074825Y-13874579D01*
X18370063Y-14112674D02*
X18360539Y-14103150D01*
X18360539Y-14103150D02*
X18341491Y-14074579D01*
X18341491Y-14074579D02*
X18331968Y-14055531D01*
X18331968Y-14055531D02*
X18322444Y-14026960D01*
X18322444Y-14026960D02*
X18312920Y-13979341D01*
X18312920Y-13979341D02*
X18312920Y-13941246D01*
X18312920Y-13941246D02*
X18322444Y-13893627D01*
X18322444Y-13893627D02*
X18331968Y-13865055D01*
X18331968Y-13865055D02*
X18341491Y-13846008D01*
X18341491Y-13846008D02*
X18360539Y-13817436D01*
X18360539Y-13817436D02*
X18370063Y-13807912D01*
X18427206Y-13836484D02*
X18551015Y-13836484D01*
X18551015Y-13836484D02*
X18484349Y-13912674D01*
X18484349Y-13912674D02*
X18512920Y-13912674D01*
X18512920Y-13912674D02*
X18531968Y-13922198D01*
X18531968Y-13922198D02*
X18541491Y-13931722D01*
X18541491Y-13931722D02*
X18551015Y-13950769D01*
X18551015Y-13950769D02*
X18551015Y-13998388D01*
X18551015Y-13998388D02*
X18541491Y-14017436D01*
X18541491Y-14017436D02*
X18531968Y-14026960D01*
X18531968Y-14026960D02*
X18512920Y-14036484D01*
X18512920Y-14036484D02*
X18455777Y-14036484D01*
X18455777Y-14036484D02*
X18436730Y-14026960D01*
X18436730Y-14026960D02*
X18427206Y-14017436D01*
X18789111Y-14036484D02*
X18789111Y-13836484D01*
X18874825Y-14036484D02*
X18874825Y-13931722D01*
X18874825Y-13931722D02*
X18865301Y-13912674D01*
X18865301Y-13912674D02*
X18846253Y-13903150D01*
X18846253Y-13903150D02*
X18817682Y-13903150D01*
X18817682Y-13903150D02*
X18798634Y-13912674D01*
X18798634Y-13912674D02*
X18789111Y-13922198D01*
X18998634Y-14036484D02*
X18979587Y-14026960D01*
X18979587Y-14026960D02*
X18970063Y-14017436D01*
X18970063Y-14017436D02*
X18960539Y-13998388D01*
X18960539Y-13998388D02*
X18960539Y-13941246D01*
X18960539Y-13941246D02*
X18970063Y-13922198D01*
X18970063Y-13922198D02*
X18979587Y-13912674D01*
X18979587Y-13912674D02*
X18998634Y-13903150D01*
X18998634Y-13903150D02*
X19027206Y-13903150D01*
X19027206Y-13903150D02*
X19046253Y-13912674D01*
X19046253Y-13912674D02*
X19055777Y-13922198D01*
X19055777Y-13922198D02*
X19065301Y-13941246D01*
X19065301Y-13941246D02*
X19065301Y-13998388D01*
X19065301Y-13998388D02*
X19055777Y-14017436D01*
X19055777Y-14017436D02*
X19046253Y-14026960D01*
X19046253Y-14026960D02*
X19027206Y-14036484D01*
X19027206Y-14036484D02*
X18998634Y-14036484D01*
X19179587Y-14036484D02*
X19160539Y-14026960D01*
X19160539Y-14026960D02*
X19151015Y-14007912D01*
X19151015Y-14007912D02*
X19151015Y-13836484D01*
X19331968Y-14026960D02*
X19312920Y-14036484D01*
X19312920Y-14036484D02*
X19274825Y-14036484D01*
X19274825Y-14036484D02*
X19255777Y-14026960D01*
X19255777Y-14026960D02*
X19246253Y-14007912D01*
X19246253Y-14007912D02*
X19246253Y-13931722D01*
X19246253Y-13931722D02*
X19255777Y-13912674D01*
X19255777Y-13912674D02*
X19274825Y-13903150D01*
X19274825Y-13903150D02*
X19312920Y-13903150D01*
X19312920Y-13903150D02*
X19331968Y-13912674D01*
X19331968Y-13912674D02*
X19341492Y-13931722D01*
X19341492Y-13931722D02*
X19341492Y-13950769D01*
X19341492Y-13950769D02*
X19246253Y-13969817D01*
X19417682Y-14026960D02*
X19436730Y-14036484D01*
X19436730Y-14036484D02*
X19474825Y-14036484D01*
X19474825Y-14036484D02*
X19493873Y-14026960D01*
X19493873Y-14026960D02*
X19503396Y-14007912D01*
X19503396Y-14007912D02*
X19503396Y-13998388D01*
X19503396Y-13998388D02*
X19493873Y-13979341D01*
X19493873Y-13979341D02*
X19474825Y-13969817D01*
X19474825Y-13969817D02*
X19446253Y-13969817D01*
X19446253Y-13969817D02*
X19427206Y-13960293D01*
X19427206Y-13960293D02*
X19417682Y-13941246D01*
X19417682Y-13941246D02*
X19417682Y-13931722D01*
X19417682Y-13931722D02*
X19427206Y-13912674D01*
X19427206Y-13912674D02*
X19446253Y-13903150D01*
X19446253Y-13903150D02*
X19474825Y-13903150D01*
X19474825Y-13903150D02*
X19493873Y-13912674D01*
X19570063Y-14112674D02*
X19579587Y-14103150D01*
X19579587Y-14103150D02*
X19598634Y-14074579D01*
X19598634Y-14074579D02*
X19608158Y-14055531D01*
X19608158Y-14055531D02*
X19617682Y-14026960D01*
X19617682Y-14026960D02*
X19627206Y-13979341D01*
X19627206Y-13979341D02*
X19627206Y-13941246D01*
X19627206Y-13941246D02*
X19617682Y-13893627D01*
X19617682Y-13893627D02*
X19608158Y-13865055D01*
X19608158Y-13865055D02*
X19598634Y-13846008D01*
X19598634Y-13846008D02*
X19579587Y-13817436D01*
X19579587Y-13817436D02*
X19570063Y-13807912D01*
X19931968Y-14112674D02*
X19922444Y-14103150D01*
X19922444Y-14103150D02*
X19903396Y-14074579D01*
X19903396Y-14074579D02*
X19893873Y-14055531D01*
X19893873Y-14055531D02*
X19884349Y-14026960D01*
X19884349Y-14026960D02*
X19874825Y-13979341D01*
X19874825Y-13979341D02*
X19874825Y-13941246D01*
X19874825Y-13941246D02*
X19884349Y-13893627D01*
X19884349Y-13893627D02*
X19893873Y-13865055D01*
X19893873Y-13865055D02*
X19903396Y-13846008D01*
X19903396Y-13846008D02*
X19922444Y-13817436D01*
X19922444Y-13817436D02*
X19931968Y-13807912D01*
X20008158Y-13903150D02*
X20008158Y-14036484D01*
X20008158Y-13922198D02*
X20017682Y-13912674D01*
X20017682Y-13912674D02*
X20036730Y-13903150D01*
X20036730Y-13903150D02*
X20065301Y-13903150D01*
X20065301Y-13903150D02*
X20084349Y-13912674D01*
X20084349Y-13912674D02*
X20093873Y-13931722D01*
X20093873Y-13931722D02*
X20093873Y-14036484D01*
X20217682Y-14036484D02*
X20198634Y-14026960D01*
X20198634Y-14026960D02*
X20189111Y-14017436D01*
X20189111Y-14017436D02*
X20179587Y-13998388D01*
X20179587Y-13998388D02*
X20179587Y-13941246D01*
X20179587Y-13941246D02*
X20189111Y-13922198D01*
X20189111Y-13922198D02*
X20198634Y-13912674D01*
X20198634Y-13912674D02*
X20217682Y-13903150D01*
X20217682Y-13903150D02*
X20246254Y-13903150D01*
X20246254Y-13903150D02*
X20265301Y-13912674D01*
X20265301Y-13912674D02*
X20274825Y-13922198D01*
X20274825Y-13922198D02*
X20284349Y-13941246D01*
X20284349Y-13941246D02*
X20284349Y-13998388D01*
X20284349Y-13998388D02*
X20274825Y-14017436D01*
X20274825Y-14017436D02*
X20265301Y-14026960D01*
X20265301Y-14026960D02*
X20246254Y-14036484D01*
X20246254Y-14036484D02*
X20217682Y-14036484D01*
X20341492Y-13903150D02*
X20417682Y-13903150D01*
X20370063Y-13836484D02*
X20370063Y-14007912D01*
X20370063Y-14007912D02*
X20379587Y-14026960D01*
X20379587Y-14026960D02*
X20398634Y-14036484D01*
X20398634Y-14036484D02*
X20417682Y-14036484D01*
X20636730Y-13903150D02*
X20636730Y-14103150D01*
X20636730Y-13912674D02*
X20655777Y-13903150D01*
X20655777Y-13903150D02*
X20693873Y-13903150D01*
X20693873Y-13903150D02*
X20712920Y-13912674D01*
X20712920Y-13912674D02*
X20722444Y-13922198D01*
X20722444Y-13922198D02*
X20731968Y-13941246D01*
X20731968Y-13941246D02*
X20731968Y-13998388D01*
X20731968Y-13998388D02*
X20722444Y-14017436D01*
X20722444Y-14017436D02*
X20712920Y-14026960D01*
X20712920Y-14026960D02*
X20693873Y-14036484D01*
X20693873Y-14036484D02*
X20655777Y-14036484D01*
X20655777Y-14036484D02*
X20636730Y-14026960D01*
X20846254Y-14036484D02*
X20827206Y-14026960D01*
X20827206Y-14026960D02*
X20817682Y-14007912D01*
X20817682Y-14007912D02*
X20817682Y-13836484D01*
X21008158Y-14036484D02*
X21008158Y-13931722D01*
X21008158Y-13931722D02*
X20998635Y-13912674D01*
X20998635Y-13912674D02*
X20979587Y-13903150D01*
X20979587Y-13903150D02*
X20941492Y-13903150D01*
X20941492Y-13903150D02*
X20922444Y-13912674D01*
X21008158Y-14026960D02*
X20989111Y-14036484D01*
X20989111Y-14036484D02*
X20941492Y-14036484D01*
X20941492Y-14036484D02*
X20922444Y-14026960D01*
X20922444Y-14026960D02*
X20912920Y-14007912D01*
X20912920Y-14007912D02*
X20912920Y-13988865D01*
X20912920Y-13988865D02*
X20922444Y-13969817D01*
X20922444Y-13969817D02*
X20941492Y-13960293D01*
X20941492Y-13960293D02*
X20989111Y-13960293D01*
X20989111Y-13960293D02*
X21008158Y-13950769D01*
X21074825Y-13903150D02*
X21151015Y-13903150D01*
X21103396Y-13836484D02*
X21103396Y-14007912D01*
X21103396Y-14007912D02*
X21112920Y-14026960D01*
X21112920Y-14026960D02*
X21131968Y-14036484D01*
X21131968Y-14036484D02*
X21151015Y-14036484D01*
X21293873Y-14026960D02*
X21274825Y-14036484D01*
X21274825Y-14036484D02*
X21236730Y-14036484D01*
X21236730Y-14036484D02*
X21217682Y-14026960D01*
X21217682Y-14026960D02*
X21208158Y-14007912D01*
X21208158Y-14007912D02*
X21208158Y-13931722D01*
X21208158Y-13931722D02*
X21217682Y-13912674D01*
X21217682Y-13912674D02*
X21236730Y-13903150D01*
X21236730Y-13903150D02*
X21274825Y-13903150D01*
X21274825Y-13903150D02*
X21293873Y-13912674D01*
X21293873Y-13912674D02*
X21303396Y-13931722D01*
X21303396Y-13931722D02*
X21303396Y-13950769D01*
X21303396Y-13950769D02*
X21208158Y-13969817D01*
X21474825Y-14036484D02*
X21474825Y-13836484D01*
X21474825Y-14026960D02*
X21455777Y-14036484D01*
X21455777Y-14036484D02*
X21417682Y-14036484D01*
X21417682Y-14036484D02*
X21398635Y-14026960D01*
X21398635Y-14026960D02*
X21389111Y-14017436D01*
X21389111Y-14017436D02*
X21379587Y-13998388D01*
X21379587Y-13998388D02*
X21379587Y-13941246D01*
X21379587Y-13941246D02*
X21389111Y-13922198D01*
X21389111Y-13922198D02*
X21398635Y-13912674D01*
X21398635Y-13912674D02*
X21417682Y-13903150D01*
X21417682Y-13903150D02*
X21455777Y-13903150D01*
X21455777Y-13903150D02*
X21474825Y-13912674D01*
X21551016Y-14112674D02*
X21560539Y-14103150D01*
X21560539Y-14103150D02*
X21579587Y-14074579D01*
X21579587Y-14074579D02*
X21589111Y-14055531D01*
X21589111Y-14055531D02*
X21598635Y-14026960D01*
X21598635Y-14026960D02*
X21608158Y-13979341D01*
X21608158Y-13979341D02*
X21608158Y-13941246D01*
X21608158Y-13941246D02*
X21598635Y-13893627D01*
X21598635Y-13893627D02*
X21589111Y-13865055D01*
X21589111Y-13865055D02*
X21579587Y-13846008D01*
X21579587Y-13846008D02*
X21560539Y-13817436D01*
X21560539Y-13817436D02*
X21551016Y-13807912D01*
M02*
