%TF.GenerationSoftware,KiCad,Pcbnew,7.0.6*%
%TF.CreationDate,2024-08-25T10:20:08-07:00*%
%TF.ProjectId,Guitar_waveform_proj,47756974-6172-45f7-9761-7665666f726d,rev?*%
%TF.SameCoordinates,Original*%
%TF.FileFunction,Copper,L1,Top*%
%TF.FilePolarity,Positive*%
%FSLAX46Y46*%
G04 Gerber Fmt 4.6, Leading zero omitted, Abs format (unit mm)*
G04 Created by KiCad (PCBNEW 7.0.6) date 2024-08-25 10:20:08*
%MOMM*%
%LPD*%
G01*
G04 APERTURE LIST*
%TA.AperFunction,ComponentPad*%
%ADD10R,1.200000X1.200000*%
%TD*%
%TA.AperFunction,ComponentPad*%
%ADD11C,1.200000*%
%TD*%
%TA.AperFunction,ComponentPad*%
%ADD12R,2.400000X1.600000*%
%TD*%
%TA.AperFunction,ComponentPad*%
%ADD13O,2.400000X1.600000*%
%TD*%
%TA.AperFunction,ComponentPad*%
%ADD14C,1.600000*%
%TD*%
%TA.AperFunction,ComponentPad*%
%ADD15O,1.600000X1.600000*%
%TD*%
%TA.AperFunction,ComponentPad*%
%ADD16R,2.200000X2.200000*%
%TD*%
%TA.AperFunction,ComponentPad*%
%ADD17O,2.200000X2.200000*%
%TD*%
%TA.AperFunction,ComponentPad*%
%ADD18C,3.000000*%
%TD*%
%TA.AperFunction,ComponentPad*%
%ADD19R,1.500000X1.500000*%
%TD*%
%TA.AperFunction,ComponentPad*%
%ADD20C,1.500000*%
%TD*%
%TA.AperFunction,ComponentPad*%
%ADD21R,1.600000X1.600000*%
%TD*%
%TA.AperFunction,ComponentPad*%
%ADD22C,2.000000*%
%TD*%
%TA.AperFunction,ComponentPad*%
%ADD23R,1.700000X1.700000*%
%TD*%
%TA.AperFunction,ComponentPad*%
%ADD24O,1.700000X1.700000*%
%TD*%
%TA.AperFunction,ComponentPad*%
%ADD25C,1.570000*%
%TD*%
%TA.AperFunction,ViaPad*%
%ADD26C,1.200000*%
%TD*%
%TA.AperFunction,Conductor*%
%ADD27C,0.500000*%
%TD*%
%TA.AperFunction,Conductor*%
%ADD28C,0.300000*%
%TD*%
G04 APERTURE END LIST*
D10*
%TO.P,C5,1*%
%TO.N,+5V*%
X165735000Y-102870000D03*
D11*
%TO.P,C5,2*%
%TO.N,GND*%
X164235000Y-102870000D03*
%TD*%
D12*
%TO.P,U3,1*%
%TO.N,Vbuf*%
X177150000Y-72390000D03*
D13*
%TO.P,U3,2,-*%
X177150000Y-74930000D03*
%TO.P,U3,3,+*%
%TO.N,Net-(U3A-+)*%
X177150000Y-77470000D03*
%TO.P,U3,4,V+*%
%TO.N,+9V*%
X177150000Y-80010000D03*
%TO.P,U3,5,+*%
%TO.N,Net-(U3B-+)*%
X177150000Y-82550000D03*
%TO.P,U3,6,-*%
%TO.N,Net-(U3B--)*%
X177150000Y-85090000D03*
%TO.P,U3,7*%
%TO.N,Vamp*%
X177150000Y-87630000D03*
%TO.P,U3,8*%
%TO.N,Vadc*%
X184770000Y-87630000D03*
%TO.P,U3,9,-*%
X184770000Y-85090000D03*
%TO.P,U3,10,+*%
%TO.N,Net-(D3-K)*%
X184770000Y-82550000D03*
%TO.P,U3,11,V-*%
%TO.N,GND*%
X184770000Y-80010000D03*
%TO.P,U3,12*%
%TO.N,N/C*%
X184770000Y-77470000D03*
%TO.P,U3,13*%
X184770000Y-74930000D03*
%TO.P,U3,14*%
X184770000Y-72390000D03*
%TD*%
D14*
%TO.P,C8,1*%
%TO.N,GND*%
X155600000Y-81280000D03*
%TO.P,C8,2*%
%TO.N,Net-(C8-Pad2)*%
X160600000Y-81280000D03*
%TD*%
%TO.P,R8,1*%
%TO.N,Net-(U3B--)*%
X173340000Y-85090000D03*
D15*
%TO.P,R8,2*%
%TO.N,Vbuf*%
X173340000Y-74930000D03*
%TD*%
D14*
%TO.P,R10,1*%
%TO.N,+3.3V*%
X158115000Y-94615000D03*
D15*
%TO.P,R10,2*%
%TO.N,Net-(Q2-B)*%
X168275000Y-94615000D03*
%TD*%
D16*
%TO.P,D1,1,K*%
%TO.N,+9V*%
X177800000Y-36830000D03*
D17*
%TO.P,D1,2,A*%
%TO.N,Net-(D1-A)*%
X185420000Y-36830000D03*
%TD*%
D18*
%TO.P,J2,R*%
%TO.N,unconnected-(J2-PadR)*%
X187750000Y-45250000D03*
%TO.P,J2,RN*%
%TO.N,unconnected-(J2-PadRN)*%
X187750000Y-61750000D03*
%TO.P,J2,S*%
%TO.N,GND*%
X194250000Y-45250000D03*
%TO.P,J2,SN*%
X194250000Y-61750000D03*
%TO.P,J2,T*%
%TO.N,Vgtr*%
X181250000Y-45250000D03*
%TO.P,J2,TN*%
%TO.N,unconnected-(J2-PadTN)*%
X181250000Y-61750000D03*
%TD*%
D10*
%TO.P,C4,1*%
%TO.N,+3.3V*%
X154535000Y-102870000D03*
D11*
%TO.P,C4,2*%
%TO.N,GND*%
X153035000Y-102870000D03*
%TD*%
D10*
%TO.P,C2,1*%
%TO.N,+5V*%
X151535000Y-39370000D03*
D11*
%TO.P,C2,2*%
%TO.N,GND*%
X150035000Y-39370000D03*
%TD*%
D16*
%TO.P,D2,1,K*%
%TO.N,Net-(D1-A)*%
X185420000Y-40640000D03*
D17*
%TO.P,D2,2,A*%
%TO.N,Net-(D2-A)*%
X177800000Y-40640000D03*
%TD*%
D14*
%TO.P,R5,1*%
%TO.N,Net-(C8-Pad2)*%
X165720000Y-78105000D03*
D15*
%TO.P,R5,2*%
%TO.N,GND*%
X165720000Y-67945000D03*
%TD*%
D14*
%TO.P,R1,1*%
%TO.N,Net-(D2-A)*%
X173990000Y-33250000D03*
D15*
%TO.P,R1,2*%
%TO.N,GND*%
X184150000Y-33250000D03*
%TD*%
D14*
%TO.P,R7,1*%
%TO.N,Net-(U3B-+)*%
X169545000Y-85090000D03*
D15*
%TO.P,R7,2*%
%TO.N,Vref*%
X159385000Y-85090000D03*
%TD*%
D14*
%TO.P,R6,1*%
%TO.N,Vref*%
X168895000Y-67945000D03*
D15*
%TO.P,R6,2*%
%TO.N,Net-(U3A-+)*%
X168895000Y-78105000D03*
%TD*%
D19*
%TO.P,Q1,1,S*%
%TO.N,+9V*%
X168910000Y-33655000D03*
D20*
%TO.P,Q1,2,G*%
%TO.N,Net-(D2-A)*%
X166370000Y-33655000D03*
%TO.P,Q1,3,D*%
%TO.N,Net-(Q1-D)*%
X163830000Y-33655000D03*
%TD*%
D21*
%TO.P,C1,1*%
%TO.N,+9V*%
X191770000Y-35812349D03*
D14*
%TO.P,C1,2*%
%TO.N,GND*%
X191770000Y-39312349D03*
%TD*%
%TO.P,R4,1*%
%TO.N,Net-(C8-Pad2)*%
X162545000Y-78105000D03*
D15*
%TO.P,R4,2*%
%TO.N,Vgtr*%
X162545000Y-67945000D03*
%TD*%
D22*
%TO.P,U5,1,Vin*%
%TO.N,+5V*%
X193040000Y-73660000D03*
%TO.P,U5,2,3v3*%
%TO.N,unconnected-(U5-3v3-Pad2)*%
X193040000Y-76200000D03*
%TO.P,U5,3,Gnd*%
%TO.N,GND*%
X193040000Y-78740000D03*
%TO.P,U5,4,SCK*%
%TO.N,SCK*%
X193040000Y-81280000D03*
%TO.P,U5,5,MISO*%
%TO.N,MISO*%
X193040000Y-83820000D03*
%TO.P,U5,6,MOSI*%
%TO.N,MOSI*%
X193040000Y-86360000D03*
%TO.P,U5,7,CS*%
%TO.N,Net-(U4-14)*%
X193040000Y-88900000D03*
%TO.P,U5,8,RST*%
%TO.N,Net-(U4-15)*%
X193040000Y-91440000D03*
%TO.P,U5,9,D/C*%
%TO.N,Net-(U4-32)*%
X193040000Y-93980000D03*
%TO.P,U5,10,CCS*%
%TO.N,unconnected-(U5-CCS-Pad10)*%
X193040000Y-96520000D03*
%TO.P,U5,11,Lite*%
%TO.N,unconnected-(U5-Lite-Pad11)*%
X193040000Y-99060000D03*
%TD*%
D21*
%TO.P,C3,1*%
%TO.N,Vref*%
X152385000Y-78740000D03*
D14*
%TO.P,C3,2*%
%TO.N,GND*%
X150385000Y-78740000D03*
%TD*%
D23*
%TO.P,RV2,1,1*%
%TO.N,Vamp*%
X169545000Y-89535000D03*
D24*
%TO.P,RV2,2,2*%
%TO.N,Net-(U3B--)*%
X167005000Y-89535000D03*
%TO.P,RV2,3,3*%
%TO.N,unconnected-(RV2-Pad3)*%
X164465000Y-89535000D03*
%TD*%
D19*
%TO.P,Q2,1,E*%
%TO.N,Net-(Q2-E)*%
X172360000Y-97155000D03*
D20*
%TO.P,Q2,2,B*%
%TO.N,Net-(Q2-B)*%
X172360000Y-99695000D03*
%TO.P,Q2,3,C*%
%TO.N,Net-(D3-K)*%
X172360000Y-102235000D03*
%TD*%
D23*
%TO.P,U2,1,GND*%
%TO.N,GND*%
X156845000Y-38735000D03*
D24*
%TO.P,U2,2,5V*%
%TO.N,+5V*%
X159385000Y-38735000D03*
%TO.P,U2,3,Vin*%
%TO.N,+9V*%
X161925000Y-38735000D03*
%TO.P,U2,4,En*%
%TO.N,unconnected-(U2-En-Pad4)*%
X164465000Y-38735000D03*
%TD*%
D14*
%TO.P,R2,1*%
%TO.N,+9V*%
X159370000Y-67945000D03*
D15*
%TO.P,R2,2*%
%TO.N,Vref*%
X159370000Y-78105000D03*
%TD*%
D23*
%TO.P,U1,1,VCC*%
%TO.N,Net-(Q1-D)*%
X159390000Y-33655000D03*
D24*
%TO.P,U1,2,GND*%
%TO.N,GND*%
X156850000Y-33655000D03*
%TD*%
D19*
%TO.P,Q3,1,E*%
%TO.N,GND*%
X178075000Y-97155000D03*
D20*
%TO.P,Q3,2,B*%
%TO.N,Net-(Q2-E)*%
X178075000Y-99695000D03*
%TO.P,Q3,3,C*%
%TO.N,Net-(D3-K)*%
X178075000Y-102235000D03*
%TD*%
D21*
%TO.P,D3,1,K*%
%TO.N,Net-(D3-K)*%
X182880000Y-94615000D03*
D15*
%TO.P,D3,2,A*%
%TO.N,GND*%
X175260000Y-94615000D03*
%TD*%
D10*
%TO.P,C6,1*%
%TO.N,+5V*%
X190095000Y-69215000D03*
D11*
%TO.P,C6,2*%
%TO.N,GND*%
X188595000Y-69215000D03*
%TD*%
D10*
%TO.P,C7,1*%
%TO.N,+9V*%
X176935000Y-67310000D03*
D11*
%TO.P,C7,2*%
%TO.N,GND*%
X175435000Y-67310000D03*
%TD*%
D25*
%TO.P,U4,1,RST*%
%TO.N,unconnected-(U4-RST-Pad1)*%
X154392000Y-128246000D03*
%TO.P,U4,2,3V*%
%TO.N,+3.3V*%
X156932000Y-128246000D03*
%TO.P,U4,3,NC*%
%TO.N,unconnected-(U4-NC-Pad3)*%
X159472000Y-128246000D03*
%TO.P,U4,4,GND*%
%TO.N,GND*%
X162012000Y-128246000D03*
%TO.P,U4,5,A0*%
%TO.N,unconnected-(U4-A0-Pad5)*%
X164552000Y-128246000D03*
%TO.P,U4,6,A1*%
%TO.N,unconnected-(U4-A1-Pad6)*%
X167092000Y-128246000D03*
%TO.P,U4,7,A2*%
%TO.N,Vadc*%
X169632000Y-128246000D03*
%TO.P,U4,8,A3*%
%TO.N,unconnected-(U4-A3-Pad8)*%
X172172000Y-128246000D03*
%TO.P,U4,9,A4*%
%TO.N,unconnected-(U4-A4-Pad9)*%
X174712000Y-128246000D03*
%TO.P,U4,10,A5*%
%TO.N,unconnected-(U4-A5-Pad10)*%
X177252000Y-128246000D03*
%TO.P,U4,11,SCK*%
%TO.N,SCK*%
X179792000Y-128246000D03*
%TO.P,U4,12,MOSI*%
%TO.N,MOSI*%
X182332000Y-128246000D03*
%TO.P,U4,13,MISO*%
%TO.N,MISO*%
X184872000Y-128246000D03*
%TO.P,U4,14,RX*%
%TO.N,unconnected-(U4-RX-Pad14)*%
X187412000Y-128246000D03*
%TO.P,U4,15,TX*%
%TO.N,unconnected-(U4-TX-Pad15)*%
X189952000Y-128246000D03*
%TO.P,U4,16,21*%
%TO.N,unconnected-(U4-21-Pad16)*%
X192492000Y-128246000D03*
%TO.P,U4,17,SDA*%
%TO.N,unconnected-(U4-SDA-Pad17)*%
X192492000Y-107774000D03*
%TO.P,U4,18,SCL*%
%TO.N,unconnected-(U4-SCL-Pad18)*%
X189952000Y-107774000D03*
%TO.P,U4,19,14*%
%TO.N,Net-(U4-14)*%
X187412000Y-107774000D03*
%TO.P,U4,20,32*%
%TO.N,Net-(U4-32)*%
X184872000Y-107774000D03*
%TO.P,U4,21,15*%
%TO.N,Net-(U4-15)*%
X182332000Y-107774000D03*
%TO.P,U4,22,33*%
%TO.N,unconnected-(U4-33-Pad22)*%
X179792000Y-107774000D03*
%TO.P,U4,23,27*%
%TO.N,unconnected-(U4-27-Pad23)*%
X177252000Y-107774000D03*
%TO.P,U4,24,12*%
%TO.N,unconnected-(U4-12-Pad24)*%
X174712000Y-107774000D03*
%TO.P,U4,25,13*%
%TO.N,unconnected-(U4-13-Pad25)*%
X172172000Y-107774000D03*
%TO.P,U4,26,VBUS/USB*%
%TO.N,unconnected-(U4-VBUS{slash}USB-Pad26)*%
X169632000Y-107774000D03*
%TO.P,U4,27,EN*%
%TO.N,unconnected-(U4-EN-Pad27)*%
X167092000Y-107774000D03*
%TO.P,U4,28,VBAT*%
%TO.N,+5V*%
X164552000Y-107774000D03*
%TD*%
D14*
%TO.P,C10,1*%
%TO.N,Net-(U3B-+)*%
X161290000Y-89535000D03*
%TO.P,C10,2*%
%TO.N,GND*%
X156290000Y-89535000D03*
%TD*%
D23*
%TO.P,RV1,1,1*%
%TO.N,GND*%
X152385000Y-68580000D03*
D24*
%TO.P,RV1,2,2*%
%TO.N,Vref*%
X152385000Y-71120000D03*
%TO.P,RV1,3,3*%
%TO.N,unconnected-(RV1-Pad3)*%
X152385000Y-73660000D03*
%TD*%
D14*
%TO.P,R3,1*%
%TO.N,Vref*%
X156195000Y-78105000D03*
D15*
%TO.P,R3,2*%
%TO.N,GND*%
X156195000Y-67945000D03*
%TD*%
D14*
%TO.P,R11,1*%
%TO.N,Net-(Q2-B)*%
X168275000Y-98425000D03*
D15*
%TO.P,R11,2*%
%TO.N,GND*%
X158115000Y-98425000D03*
%TD*%
D14*
%TO.P,C9,1*%
%TO.N,Net-(U3A-+)*%
X170125000Y-81280000D03*
%TO.P,C9,2*%
%TO.N,Net-(C8-Pad2)*%
X165125000Y-81280000D03*
%TD*%
%TO.P,R9,1*%
%TO.N,Net-(D3-K)*%
X182880000Y-91440000D03*
D15*
%TO.P,R9,2*%
%TO.N,Vamp*%
X172720000Y-91440000D03*
%TD*%
D18*
%TO.P,J1,R*%
%TO.N,unconnected-(J1-PadR)*%
X158750000Y-61750000D03*
%TO.P,J1,RN*%
%TO.N,unconnected-(J1-PadRN)*%
X158750000Y-45250000D03*
%TO.P,J1,S*%
%TO.N,GND*%
X152250000Y-61750000D03*
%TO.P,J1,SN*%
X152250000Y-45250000D03*
%TO.P,J1,T*%
%TO.N,Vgtr*%
X165250000Y-61750000D03*
%TO.P,J1,TN*%
%TO.N,GND*%
X165250000Y-45250000D03*
%TD*%
D26*
%TO.N,+5V*%
X182880000Y-104140000D03*
X163195000Y-41910000D03*
%TD*%
D27*
%TO.N,+9V*%
X156800000Y-62820000D02*
X159370000Y-65390000D01*
X177150000Y-80010000D02*
X178800000Y-78360000D01*
X168910000Y-33655000D02*
X166436522Y-36128478D01*
X160020000Y-72390000D02*
X163830000Y-72390000D01*
X167005000Y-66040000D02*
X168275000Y-64770000D01*
X156800000Y-43860000D02*
X156800000Y-62820000D01*
X177800000Y-36830000D02*
X179350000Y-35280000D01*
X191237651Y-35280000D02*
X191770000Y-35812349D01*
X178800000Y-78360000D02*
X178800000Y-69175000D01*
X167005000Y-69215000D02*
X167005000Y-66040000D01*
X161925000Y-38735000D02*
X156800000Y-43860000D01*
X166436522Y-36128478D02*
X164531522Y-36128478D01*
X163830000Y-72390000D02*
X167005000Y-69215000D01*
X178800000Y-69175000D02*
X176935000Y-67310000D01*
X179350000Y-35280000D02*
X191237651Y-35280000D01*
X159370000Y-65390000D02*
X159370000Y-67945000D01*
X159370000Y-67945000D02*
X159370000Y-71740000D01*
X174395000Y-64770000D02*
X176935000Y-67310000D01*
X164531522Y-36128478D02*
X161925000Y-38735000D01*
X168275000Y-64770000D02*
X174395000Y-64770000D01*
X159370000Y-71740000D02*
X160020000Y-72390000D01*
D28*
%TO.N,Vamp*%
X177150000Y-87630000D02*
X176530000Y-87630000D01*
X176530000Y-87630000D02*
X172720000Y-91440000D01*
X170815000Y-89535000D02*
X172720000Y-91440000D01*
X169545000Y-89535000D02*
X170815000Y-89535000D01*
%TO.N,Vgtr*%
X165250000Y-61750000D02*
X181250000Y-45750000D01*
X165250000Y-61750000D02*
X163000000Y-61750000D01*
X163000000Y-61750000D02*
X162545000Y-62205000D01*
X162545000Y-62205000D02*
X162545000Y-67945000D01*
X181250000Y-45750000D02*
X181250000Y-45250000D01*
%TO.N,Net-(D3-K)*%
X184770000Y-83063654D02*
X184770000Y-82550000D01*
X178075000Y-102235000D02*
X172360000Y-102235000D01*
X182880000Y-84953654D02*
X184770000Y-83063654D01*
X182880000Y-93980000D02*
X182880000Y-97430000D01*
X182880000Y-90805000D02*
X182880000Y-84953654D01*
X182880000Y-90805000D02*
X182880000Y-93980000D01*
X182880000Y-97430000D02*
X178075000Y-102235000D01*
D27*
%TO.N,Net-(D1-A)*%
X185420000Y-36830000D02*
X185420000Y-40640000D01*
%TO.N,+3.3V*%
X156932000Y-128246000D02*
X156932000Y-105267000D01*
X156932000Y-105267000D02*
X154535000Y-102870000D01*
X154535000Y-102870000D02*
X154535000Y-98195000D01*
X154535000Y-98195000D02*
X158115000Y-94615000D01*
%TO.N,Net-(D2-A)*%
X167574999Y-32450001D02*
X173190001Y-32450001D01*
X173190001Y-32450001D02*
X173990000Y-33250000D01*
X175260000Y-38100000D02*
X177800000Y-40640000D01*
X173990000Y-33250000D02*
X175260000Y-34520000D01*
X175260000Y-34520000D02*
X175260000Y-38100000D01*
X166370000Y-33655000D02*
X167574999Y-32450001D01*
D28*
%TO.N,Vadc*%
X177206000Y-106639000D02*
X171491000Y-106639000D01*
X184770000Y-85090000D02*
X184770000Y-87630000D01*
X170815000Y-127063000D02*
X169632000Y-128246000D01*
X171491000Y-106639000D02*
X170815000Y-107315000D01*
X184785000Y-99060000D02*
X177206000Y-106639000D01*
X184770000Y-87630000D02*
X184770000Y-99045000D01*
X184770000Y-99045000D02*
X184785000Y-99060000D01*
X170815000Y-107315000D02*
X170815000Y-127063000D01*
D27*
%TO.N,Net-(Q1-D)*%
X159390000Y-33655000D02*
X163830000Y-33655000D01*
D28*
%TO.N,Net-(Q2-E)*%
X175535000Y-97155000D02*
X178075000Y-99695000D01*
X172360000Y-97155000D02*
X175535000Y-97155000D01*
%TO.N,Net-(Q2-B)*%
X172360000Y-99695000D02*
X169545000Y-99695000D01*
X169545000Y-99695000D02*
X168275000Y-98425000D01*
X168275000Y-94615000D02*
X168275000Y-98425000D01*
%TO.N,SCK*%
X192962133Y-129381000D02*
X180927000Y-129381000D01*
X198120000Y-86360000D02*
X198120000Y-124223133D01*
X198120000Y-124223133D02*
X192962133Y-129381000D01*
X180927000Y-129381000D02*
X179792000Y-128246000D01*
X193040000Y-81280000D02*
X198120000Y-86360000D01*
%TO.N,MOSI*%
X195580000Y-88900000D02*
X195580000Y-108585000D01*
X182332000Y-121833000D02*
X182332000Y-128246000D01*
X193040000Y-86360000D02*
X195580000Y-88900000D01*
X195580000Y-108585000D02*
X182332000Y-121833000D01*
%TO.N,MISO*%
X196850000Y-87630000D02*
X196850000Y-116268000D01*
X193040000Y-83820000D02*
X196850000Y-87630000D01*
X196850000Y-116268000D02*
X184872000Y-128246000D01*
%TO.N,Net-(U4-14)*%
X194390000Y-92630000D02*
X194310000Y-92710000D01*
X194390000Y-100796000D02*
X187412000Y-107774000D01*
X193040000Y-88900000D02*
X194390000Y-90250000D01*
X194390000Y-90250000D02*
X194390000Y-92630000D01*
X194390000Y-92790000D02*
X194390000Y-100796000D01*
X194310000Y-92710000D02*
X194390000Y-92790000D01*
%TO.N,Net-(U4-32)*%
X191690000Y-100956000D02*
X184872000Y-107774000D01*
X191690000Y-95330000D02*
X191690000Y-100956000D01*
X193040000Y-93980000D02*
X191690000Y-95330000D01*
%TO.N,Net-(U4-15)*%
X189230000Y-100876000D02*
X189230000Y-95250000D01*
X182332000Y-107774000D02*
X189230000Y-100876000D01*
X189230000Y-95250000D02*
X193040000Y-91440000D01*
D27*
%TO.N,+5V*%
X186690000Y-100330000D02*
X186690000Y-94615000D01*
X158085000Y-40035000D02*
X152200000Y-40035000D01*
X189230000Y-77470000D02*
X193040000Y-73660000D01*
X189230000Y-92075000D02*
X189230000Y-77470000D01*
X165735000Y-102870000D02*
X165735000Y-106591000D01*
X196215000Y-70485000D02*
X193040000Y-73660000D01*
X186690000Y-94615000D02*
X189230000Y-92075000D01*
X190095000Y-69215000D02*
X190095000Y-70715000D01*
X194582717Y-42825000D02*
X196215000Y-44457283D01*
X196215000Y-44457283D02*
X196215000Y-70485000D01*
X152200000Y-40035000D02*
X151535000Y-39370000D01*
X190095000Y-70715000D02*
X193040000Y-73660000D01*
X163195000Y-41910000D02*
X164110000Y-42825000D01*
X165735000Y-106591000D02*
X164552000Y-107774000D01*
X182880000Y-104140000D02*
X186690000Y-100330000D01*
X159385000Y-38735000D02*
X158085000Y-40035000D01*
X164110000Y-42825000D02*
X194582717Y-42825000D01*
D28*
%TO.N,Vref*%
X159370000Y-78105000D02*
X159370000Y-85075000D01*
X170165000Y-69215000D02*
X170180000Y-69215000D01*
X159370000Y-85075000D02*
X159385000Y-85090000D01*
X152385000Y-78740000D02*
X155560000Y-78740000D01*
X155560000Y-78740000D02*
X156195000Y-78105000D01*
X170180000Y-69215000D02*
X170180000Y-73660000D01*
X170180000Y-73660000D02*
X168910000Y-74930000D01*
X156195000Y-74930000D02*
X156195000Y-78105000D01*
X168910000Y-74930000D02*
X162545000Y-74930000D01*
X168895000Y-67945000D02*
X170165000Y-69215000D01*
X152385000Y-71120000D02*
X156195000Y-74930000D01*
X159370000Y-78105000D02*
X156195000Y-78105000D01*
X162545000Y-74930000D02*
X159370000Y-78105000D01*
%TO.N,Net-(C8-Pad2)*%
X165125000Y-81280000D02*
X165125000Y-78700000D01*
X165125000Y-78700000D02*
X165720000Y-78105000D01*
X160600000Y-81280000D02*
X160600000Y-80050000D01*
X160600000Y-80050000D02*
X162545000Y-78105000D01*
X162545000Y-78105000D02*
X165720000Y-78105000D01*
%TO.N,Vbuf*%
X173340000Y-74930000D02*
X177150000Y-74930000D01*
X177150000Y-72390000D02*
X177150000Y-74930000D01*
%TO.N,Net-(U3A-+)*%
X168895000Y-80050000D02*
X170125000Y-81280000D01*
X170125000Y-81280000D02*
X173340000Y-81280000D01*
X168895000Y-78105000D02*
X168895000Y-80050000D01*
X173340000Y-81280000D02*
X177150000Y-77470000D01*
%TO.N,Net-(U3B-+)*%
X172085000Y-82550000D02*
X177150000Y-82550000D01*
X165735000Y-85090000D02*
X169545000Y-85090000D01*
X169545000Y-85090000D02*
X172085000Y-82550000D01*
X161290000Y-89535000D02*
X165735000Y-85090000D01*
%TO.N,Net-(U3B--)*%
X167005000Y-89535000D02*
X171450000Y-85090000D01*
X173340000Y-85090000D02*
X177150000Y-85090000D01*
X171450000Y-85090000D02*
X173340000Y-85090000D01*
%TD*%
M02*
